<svg width="48" height="48" viewBox="0 0 48 48" fill="none" xmlns="http://www.w3.org/2000/svg">
<g clip-path="url(#clip0_660_9537)">
<path d="M36.187 36.6809C41.5673 32.9123 47.7209 26.1061 47.7831 20.157C47.1735 16.3809 45.6793 12.9018 43.5191 9.93302C43.8478 13.6876 42.9975 18.2064 40.1468 22.5744C39.0052 24.6736 35.9279 28.0228 35.8165 28.1524C35.8862 28.0525 38.6097 24.4159 39.521 22.2334C42.8961 15.7165 41.9937 9.26221 40.0334 6.09011C35.8156 2.34171 30.2689 0.0449981 24.182 0C30.0302 0.494076 35.9687 8.8312 33.8446 17.3086C31.4388 26.9098 19.4366 33.4098 17.987 41.0604C17.6578 42.7985 17.8561 44.7598 19.0019 46.111C20.3697 47.7239 21.9207 47.9507 23.9998 47.9948C36.6088 48.2626 46.9536 38.3404 47.9999 26.0476C45.3444 30.3723 40.7153 34.2046 36.187 36.6809Z" fill="url(#paint0_linear_660_9537)"/>
<path d="M11.8131 36.6809C6.43277 32.9121 0.279031 26.1061 0.216984 20.157C0.82657 16.3809 2.32078 12.9018 4.481 9.93302C4.15226 13.6876 5.0026 18.2064 7.85332 22.5744C8.99484 24.6736 12.0722 28.0228 12.1836 28.1524C12.1139 28.0525 9.39035 24.4159 8.47905 22.2334C5.10401 15.7165 6.00642 9.26221 7.96671 6.09011C12.1843 2.34171 17.731 0.0449981 23.8181 0C17.9699 0.494076 12.0313 8.8312 14.1555 17.3086C16.5613 26.91 28.5635 33.4096 30.013 41.0604C30.3423 42.7985 30.144 44.7598 28.9982 46.111C27.6304 47.7239 26.0794 47.9507 24.0003 47.9948C11.3909 48.2626 1.04609 38.3404 0 26.0476C2.65551 30.3723 7.28473 34.2046 11.8131 36.6809Z" fill="url(#paint1_linear_660_9537)"/>
<path d="M28.9979 46.1108C30.1438 44.7596 30.342 42.7983 30.0128 41.0602C29.3712 37.6739 26.3208 34.1073 24 31.5605C21.6865 34.0992 18.6293 37.6703 17.987 41.0602C17.6578 42.7983 17.8561 44.7596 19.0019 46.1108C20.3697 47.7235 21.9223 47.9064 23.9998 47.9946C26.0775 47.9064 27.6299 47.7235 28.9977 46.1108H28.9979Z" fill="url(#paint2_linear_660_9537)"/>
</g>
<defs>
<linearGradient id="paint0_linear_660_9537" x1="17.8438" y1="0" x2="61.0876" y2="27.1681" gradientUnits="userSpaceOnUse">
<stop stop-color="#F8A01E"/>
<stop offset="1" stop-color="#EC7A24"/>
</linearGradient>
<linearGradient id="paint1_linear_660_9537" x1="26.8626" y1="23.8903" x2="-10.7365" y2="23.7174" gradientUnits="userSpaceOnUse">
<stop stop-color="#752876"/>
<stop offset="1" stop-color="#C384B9"/>
</linearGradient>
<linearGradient id="paint2_linear_660_9537" x1="17.8438" y1="31.5605" x2="33.6157" y2="43.3767" gradientUnits="userSpaceOnUse">
<stop stop-color="#8D0085"/>
<stop offset="1" stop-color="#FF9400"/>
</linearGradient>
<clipPath id="clip0_660_9537">
<rect width="48" height="48" fill="white"/>
</clipPath>
</defs>
</svg>
