<?xml version="1.0" encoding="UTF-8"?><svg id="Layer_1" xmlns="http://www.w3.org/2000/svg" viewBox="0 0 20 20"><path d="M8.94,16.81c-1.59,1.59-4.16,1.59-5.74,0-1.59-1.59-1.59-4.16,0-5.75l2.47-2.48s.07-.07,.11-.11c.24-.22,.62-.06,.63,.26,0,.15,.02,.3,.04,.45,.01,.12-.02,.23-.11,.32-.52,.51-2.35,2.35-2.35,2.35-1.15,1.15-1.15,3.01,0,4.15,1.15,1.15,3.01,1.15,4.15,0l2.47-2.47h.01c1.13-1.16,1.13-3.01-.01-4.15-.26-.26-.55-.46-.86-.6-.14-.06-.23-.21-.22-.36,0-.17,.04-.33,.09-.48,.07-.21,.3-.31,.5-.23,.47,.2,.91,.49,1.29,.87,1.58,1.58,1.58,4.16,0,5.75l-2.48,2.48Zm-.35-11.14l2.48-2.47c1.59-1.59,4.16-1.59,5.74,0,1.59,1.59,1.59,4.16,0,5.75l-2.47,2.48s-.07,.07-.11,.11c-.24,.22-.62,.06-.63-.26,0-.15-.02-.3-.04-.45-.01-.12,.02-.23,.11-.32,.52-.51,2.35-2.35,2.35-2.35,1.15-1.15,1.15-3.01,0-4.15-1.15-1.15-3.01-1.15-4.15,0l-2.47,2.47h-.01c-1.13,1.16-1.13,3.01,.01,4.15,.26,.26,.55,.46,.86,.6,.14,.06,.23,.21,.22,.36,0,.17-.04,.33-.09,.48-.07,.21-.3,.31-.5,.23-.47-.2-.91-.49-1.29-.87-1.58-1.58-1.58-4.16,0-5.75Z"/></svg>