<svg width="40" height="40" viewBox="0 0 40 40" fill="none" xmlns="http://www.w3.org/2000/svg">
<path fill-rule="evenodd" clip-rule="evenodd" d="M1 8C0.462212 8 0.0215535 8.42726 0.0135497 8.96498C0 9.8753 0 10.8825 0 12V18C0 18.5523 0.447715 19 1 19C1.55228 19 2 19.4477 2 20C2 20.5523 1.55228 21 1 21C0.447715 21 0 21.4477 0 22V28C0 29.1175 0 30.1247 0.0135497 31.035C0.0215536 31.5727 0.462212 32 1 32C1.55228 32 2 32.4477 2 33C2 33.5523 1.55228 34 1 34C0.545857 34 0.187653 34.3926 0.256799 34.8414C0.487546 36.3393 0.925632 37.4109 1.75736 38.2426C3.51472 40 6.34315 40 12 40H28C33.6569 40 36.4853 40 38.2426 38.2426C40 36.4853 40 33.6569 40 28V12C40 6.34315 40 3.51472 38.2426 1.75736C36.4853 0 33.6569 0 28 0H12C6.34315 0 3.51472 0 1.75736 1.75736C0.925632 2.58909 0.487546 3.66073 0.256799 5.15859C0.187653 5.60744 0.545857 6 1 6C1.55228 6 2 6.44772 2 7C2 7.55228 1.55228 8 1 8Z" fill="url(#paint0_linear_1655_1583)"/>
<path opacity="0.25" d="M0 8C0 6.14006 0 5.21008 0.204445 4.44709C0.759248 2.37653 2.37653 0.759248 4.44709 0.204445C5.21008 0 6.14006 0 8 0V40C6.14006 40 5.21008 40 4.44709 39.7956C2.37653 39.2408 0.759248 37.6235 0.204445 35.5529C0 34.7899 0 33.8599 0 32V8Z" fill="white"/>
<path fill-rule="evenodd" clip-rule="evenodd" d="M22.5 20C24.7094 20 26.5 18.2094 26.5 16C26.5 13.7906 24.7094 12 22.5 12C20.2906 12 18.5 13.7906 18.5 16C18.5 18.2094 20.2906 20 22.5 20ZM21.0719 21.5C17.9938 21.5 15.5 23.9937 15.5 27.0719C15.5 27.5844 15.9156 28 16.4281 28H28.5719C29.0844 28 29.5 27.5844 29.5 27.0719C29.5 23.9937 27.0063 21.5 23.9281 21.5H21.0719ZM27.5001 16C27.5001 17.6357 26.7148 19.0878 25.5007 20C27.7098 19.9996 29.5001 18.2091 29.5001 16C29.5001 13.7909 27.7098 12.0004 25.5007 12C26.7148 12.9122 27.5001 14.3643 27.5001 16ZM30.5001 27.0719C30.5001 27.4083 30.4139 27.7247 30.2623 28H31.5719C32.0844 28 32.5 27.5844 32.5 27.0719C32.5 24.1711 30.2854 21.7893 27.4541 21.5245C29.2855 22.6907 30.5001 24.7391 30.5001 27.0719Z" fill="white"/>
<defs>
<linearGradient id="paint0_linear_1655_1583" x1="0" y1="0" x2="42.0742" y2="34.6591" gradientUnits="userSpaceOnUse">
<stop stop-color="#C500B9"/>
<stop offset="1" stop-color="#8D0085"/>
</linearGradient>
</defs>
</svg>
