<svg width="20" height="16" viewBox="0 0 20 16" fill="none" xmlns="http://www.w3.org/2000/svg">
<path d="M19.8094 15.1064C20.0281 15.2782 20.0625 15.5657 19.8937 15.8095C19.7219 16.0282 19.4062 16.0626 19.1906 15.8939L0.190186 0.89262C-0.0265426 0.72137 -0.0635332 0.406995 0.107592 0.190308C0.278686 -0.0264205 0.593123 -0.0634111 0.809686 0.107714L19.8094 15.1064ZM18.4844 8.00012L16.1656 10.3189L15.375 9.69699L17.7781 7.29387C18.95 6.12199 18.95 4.222 17.7781 3.05043C16.6062 1.87887 14.7062 1.87887 13.5344 3.05043L12.8281 3.75637C12.6344 3.95325 12.3156 3.95325 12.1219 3.75637C11.925 3.5345 11.925 3.247 12.1219 3.05043L12.8281 2.34325C14.3906 0.781058 16.9219 0.781058 18.4844 2.34325C20.0469 3.87825 20.0469 6.43762 18.4844 8.00012ZM8.94375 11.8939C8.09687 11.047 7.70625 9.9095 7.78125 8.797L8.825 9.61887C8.93125 10.1939 9.20625 10.7439 9.65 11.1845C10.2719 11.8064 11.1 12.1001 11.9125 12.0595L12.9562 12.8814C11.5844 13.3095 10.0281 12.9782 8.94375 11.8939ZM8.0875 3.94075L7.04375 3.11762C8.41562 2.69137 9.97187 3.02168 11.0562 4.10637C11.9031 4.95325 12.2937 6.09074 12.1906 7.20325L11.175 6.38137C11.0687 5.80637 10.7937 5.25637 10.35 4.81575C9.72812 4.19387 8.9 3.90012 8.0875 3.94075ZM2.22187 8.70637C1.05031 9.87825 1.05031 11.7782 2.22187 12.9501C3.39375 14.122 5.29375 14.122 6.46562 12.9501L7.17187 12.2439C7.36562 12.047 7.68437 12.047 7.87812 12.2439C8.075 12.4376 8.075 12.7532 7.87812 12.9501L7.17187 13.6564C5.60937 15.2189 3.07687 15.2189 1.51469 13.6564C-0.0474393 12.0939 -0.0474393 9.5345 1.51469 8.00012L3.83437 5.68137L4.59687 6.30325L2.22187 8.70637Z" fill="#FF3D3D"/>
</svg>
