<svg width="16" height="16" viewBox="0 0 16 16" fill="none" xmlns="http://www.w3.org/2000/svg">
<path d="M15.4688 1.86252C16.1531 2.54596 16.1531 3.65314 15.4688 4.33752L5.69688 14.1125C5.34063 14.4656 4.90313 14.725 4.42188 14.8688L0.641255 15.9813C0.46563 16.0313 0.275848 15.9844 0.146473 15.8531C0.0170858 15.725 -0.031308 15.5344 0.0203358 15.3594L1.13219 11.5781C1.27375 11.0969 1.53407 10.6594 1.88875 10.3031L11.6625 0.53033C12.3469 -0.153014 13.4531 -0.153014 14.1375 0.53033L15.4688 1.86252ZM10.6563 2.95002L13.05 5.31564L14.7625 3.63127C15.0563 3.33752 15.0563 2.86252 14.7625 2.56971L13.4313 1.23752C13.1375 0.944705 12.6625 0.944705 12.3688 1.23752L10.6563 2.95002ZM9.95 3.65627L2.59594 11.0125C2.35938 11.2469 2.18594 11.5406 2.09157 11.8625L1.23844 14.7625L4.1375 13.9094C4.45938 13.8156 4.75313 13.6406 4.9875 13.4031L12.3156 6.05002L9.95 3.65627Z" fill="#131B4A"/>
</svg>
