<svg width="24" height="24" viewBox="0 0 24 24" fill="none" xmlns="http://www.w3.org/2000/svg">
<path d="M1 3.25C1 2.00734 2.00734 1 3.25 1H7.75C8.99219 1 10 2.00734 10 3.25V7.75C10 8.99219 8.99219 10 7.75 10H3.25C2.00734 10 1 8.99219 1 7.75V3.25ZM2.5 3.25V7.75C2.5 8.1625 2.83562 8.5 3.25 8.5H7.75C8.1625 8.5 8.5 8.1625 8.5 7.75V3.25C8.5 2.83562 8.1625 2.5 7.75 2.5H3.25C2.83562 2.5 2.5 2.83562 2.5 3.25ZM1 15.25C1 14.0078 2.00734 13 3.25 13H7.75C8.99219 13 10 14.0078 10 15.25V19.75C10 20.9922 8.99219 22 7.75 22H3.25C2.00734 22 1 20.9922 1 19.75V15.25ZM2.5 15.25V19.75C2.5 20.1625 2.83562 20.5 3.25 20.5H7.75C8.1625 20.5 8.5 20.1625 8.5 19.75V15.25C8.5 14.8375 8.1625 14.5 7.75 14.5H3.25C2.83562 14.5 2.5 14.8375 2.5 15.25ZM19.75 1C20.9922 1 22 2.00734 22 3.25V7.75C22 8.99219 20.9922 10 19.75 10H15.25C14.0078 10 13 8.99219 13 7.75V3.25C13 2.00734 14.0078 1 15.25 1H19.75ZM19.75 2.5H15.25C14.8375 2.5 14.5 2.83562 14.5 3.25V7.75C14.5 8.1625 14.8375 8.5 15.25 8.5H19.75C20.1625 8.5 20.5 8.1625 20.5 7.75V3.25C20.5 2.83562 20.1625 2.5 19.75 2.5ZM13 15.25C13 14.0078 14.0078 13 15.25 13H19.75C20.9922 13 22 14.0078 22 15.25V19.75C22 20.9922 20.9922 22 19.75 22H15.25C14.0078 22 13 20.9922 13 19.75V15.25ZM14.5 15.25V19.75C14.5 20.1625 14.8375 20.5 15.25 20.5H19.75C20.1625 20.5 20.5 20.1625 20.5 19.75V15.25C20.5 14.8375 20.1625 14.5 19.75 14.5H15.25C14.8375 14.5 14.5 14.8375 14.5 15.25Z" fill="white"/>
</svg>
