<svg width="24" height="24" viewBox="0 0 24 24" fill="none" xmlns="http://www.w3.org/2000/svg">
<path d="M9.125 9.5L12.125 4.5C12.3125 4.1875 12.625 4 13 4C13.3438 4 13.6562 4.1875 13.8438 4.5L16.8438 9.5C17.0312 9.8125 17.0312 10.1875 16.8438 10.5C16.6875 10.8125 16.3438 11 16 11L10 11C9.625 11 9.28125 10.8125 9.125 10.5C8.9375 10.1875 8.9375 9.8125 9.125 9.5ZM13 6L10.875 9.5L15.0938 9.5L13 6ZM18.5 14H14.5V18H18.5V14ZM14.25 12.5H18.75C19.4375 12.5 20 13.0625 20 13.75L20 18.25C20 18.9688 19.4375 19.5 18.75 19.5H14.25C13.5313 19.5 13 18.9688 13 18.25V13.75C13 13.0625 13.5313 12.5 14.25 12.5ZM10.5 16C10.5 15.125 10 14.3125 9.25 13.8438C8.46875 13.4062 7.5 13.4062 6.75 13.8438C5.96875 14.3125 5.5 15.125 5.5 16C5.5 16.9062 5.96875 17.7188 6.75 18.1875C7.5 18.625 8.46875 18.625 9.25 18.1875C10 17.7188 10.5 16.9062 10.5 16ZM4 16C4 14.5938 4.75 13.2812 6 12.5625C7.21875 11.8438 8.75 11.8438 10 12.5625C11.2188 13.2812 12 14.5937 12 16C12 17.4375 11.2188 18.75 10 19.4688C8.75 20.1875 7.21875 20.1875 6 19.4688C4.75 18.75 4 17.4375 4 16Z" fill="#131B4A"/>
</svg>
