<svg width="14" height="14" viewBox="0 0 14 14" fill="none" xmlns="http://www.w3.org/2000/svg">
<path d="M0.21875 7.5625C0.0625 7.40625 0 7.21875 0 7C0 6.8125 0.0625 6.625 0.21875 6.46875L5.71875 1.21875C6.03125 0.9375 6.5 0.9375 6.78125 1.25C7.0625 1.53125 7.0625 2.03125 6.75 2.3125L2.59375 6.25L13.25 6.25C13.6563 6.25 14 6.59375 14 7C14 7.4375 13.6563 7.75 13.25 7.75L2.59375 7.75L6.75 11.7187C7.0625 12 7.0625 12.4687 6.78125 12.7812C6.5 13.0937 6.03125 13.0937 5.71875 12.8125L0.21875 7.5625Z" fill="white"/>
</svg>
