<svg width="129" height="128" viewBox="0 0 129 128" fill="none" xmlns="http://www.w3.org/2000/svg">
<g clip-path="url(#clip0_635_6850)">
<path d="M96.9988 97.8157C111.346 87.766 127.756 69.6164 127.922 53.752C126.296 43.6825 122.312 34.4048 116.551 26.4881C117.428 36.5002 115.16 48.5503 107.558 60.1985C104.514 65.7963 96.308 74.7275 96.0109 75.073C96.1967 74.8065 103.459 65.1091 105.89 59.2891C114.89 41.9106 112.483 24.6992 107.256 16.2403C96.0085 6.24456 81.2173 0.119995 64.9854 0C80.5806 1.31754 96.4168 23.5499 90.7525 46.1562C84.3368 71.7594 52.3312 89.0927 48.4656 109.494C47.5875 114.129 48.1163 119.359 51.172 122.963C54.8193 127.264 58.9553 127.868 64.4997 127.986C98.1236 128.7 125.71 102.241 128.5 69.4603C121.419 80.9928 109.074 91.2121 96.9988 97.8157Z" fill="url(#paint0_linear_635_6850)"/>
<path d="M32.0016 97.8157C17.654 87.7655 1.24408 69.6164 1.07862 53.752C2.70419 43.6825 6.68875 34.4048 12.4493 26.4881C11.5727 36.5002 13.8403 48.5503 21.4422 60.1985C24.4862 65.7963 32.6924 74.7275 32.9895 75.073C32.8037 74.8065 25.5409 65.1091 23.1108 59.2891C14.1107 41.9106 16.5171 24.6992 21.7446 16.2403C32.9914 6.24456 47.7826 0.119995 64.015 0C48.4197 1.31754 32.5836 23.5499 38.2479 46.1562C44.6635 71.7599 76.6692 89.0922 80.5348 109.494C81.4129 114.129 80.8841 119.359 77.8284 122.963C74.181 127.264 70.0451 127.868 64.5007 127.986C30.8758 128.7 3.28958 102.241 0.5 69.4603C7.58136 80.9928 19.926 91.2121 32.0016 97.8157Z" fill="url(#paint1_linear_635_6850)"/>
<path d="M77.8278 122.962C80.8835 119.359 81.4123 114.129 80.5342 109.494C78.8235 100.464 70.6889 90.9529 64.5001 84.1613C58.3307 90.9312 50.1783 100.454 48.4656 109.494C47.5875 114.129 48.1163 119.359 51.172 122.962C54.8193 127.263 58.9597 127.75 64.4997 127.986C70.0401 127.75 74.18 127.263 77.8273 122.962H77.8278Z" fill="url(#paint2_linear_635_6850)"/>
</g>
<defs>
<linearGradient id="paint0_linear_635_6850" x1="48.0835" y1="0" x2="163.401" y2="72.4482" gradientUnits="userSpaceOnUse">
<stop stop-color="#F8A01E"/>
<stop offset="1" stop-color="#EC7A24"/>
</linearGradient>
<linearGradient id="paint1_linear_635_6850" x1="72.1336" y1="63.7075" x2="-28.1307" y2="63.2463" gradientUnits="userSpaceOnUse">
<stop stop-color="#752876"/>
<stop offset="1" stop-color="#C384B9"/>
</linearGradient>
<linearGradient id="paint2_linear_635_6850" x1="48.0835" y1="84.1613" x2="90.142" y2="115.671" gradientUnits="userSpaceOnUse">
<stop stop-color="#8D0085"/>
<stop offset="1" stop-color="#FF9400"/>
</linearGradient>
<clipPath id="clip0_635_6850">
<rect width="128" height="128" fill="white" transform="translate(0.5)"/>
</clipPath>
</defs>
</svg>
