<svg width="24" height="24" viewBox="0 0 24 24" fill="none" xmlns="http://www.w3.org/2000/svg">
<path d="M18.75 12.5625L13.25 17.8125C12.9375 18.0938 12.4688 18.0938 12.1875 17.7812C11.9062 17.4688 11.9062 17 12.2188 16.7188L16.375 12.75H5.75C5.3125 12.75 5 12.4375 5 12C5 11.5938 5.3125 11.25 5.75 11.25H16.375L12.2188 7.3125C11.9062 7.03125 11.9062 6.53125 12.1875 6.25C12.4688 5.9375 12.9688 5.9375 13.25 6.21875L18.75 11.4688C18.9062 11.625 19 11.8125 19 12C19 12.2188 18.9062 12.4062 18.75 12.5625Z" fill="#131B4A"/>
</svg>
