<svg width="24" height="24" viewBox="0 0 24 24" fill="none" xmlns="http://www.w3.org/2000/svg">
<path d="M12.3438 4.09375L19.4375 8.03125C19.7812 8.21875 20 8.5625 20 8.9375C20 9.53125 19.5 10 18.9062 10L5.0625 10C4.46875 10 4 9.53125 4 8.9375C4 8.5625 4.1875 8.21875 4.53125 8.03125L11.625 4.09375C11.8438 3.96875 12.125 3.96875 12.3438 4.09375ZM11.125 8.5C11.0312 8.375 11 8.1875 11 8C11 7.46875 11.4375 7 12 7C12.5312 7 13 7.46875 13 8C13 8.1875 12.9375 8.375 12.8438 8.5H17.2188L12 5.625L6.75 8.5H11.125ZM6 11H7.5V16H9.5L9.5 11H11L11 16H13V11H14.5V16H16.5V11L18 11V16H18.25C18.6562 16 19 16.3438 19 16.75C19 17.1875 18.6562 17.5 18.25 17.5H6C5.5625 17.5 5.25 17.1875 5.25 16.75C5.25 16.3438 5.5625 16 6 16V11ZM5 18.5H19.25C19.6562 18.5 20 18.8438 20 19.25C20 19.6875 19.6562 20 19.25 20H5C4.5625 20 4.25 19.6875 4.25 19.25C4.25 18.8438 4.5625 18.5 5 18.5Z" fill="#131B4A"/>
</svg>
