<svg width="24" height="24" viewBox="0 0 24 24" fill="none" xmlns="http://www.w3.org/2000/svg">
<path d="M6 6.5C5.71875 6.5 5.5 6.75 5.5 7L5.5 12.0625C5.65625 12.0312 5.8125 12 6 12L18 12C18.1562 12 18.3125 12.0312 18.5 12.0625V7C18.5 6.75 18.25 6.5 18 6.5L6 6.5ZM5.5 14V17C5.5 17.2812 5.71875 17.5 6 17.5H18C18.25 17.5 18.5 17.2812 18.5 17V14C18.5 13.75 18.25 13.5 18 13.5L6 13.5C5.71875 13.5 5.5 13.75 5.5 14ZM4 14L4 7C4 5.90625 4.875 5 6 5L18 5C19.0938 5 20 5.90625 20 7V14L20 17C20 18.125 19.0938 19 18 19H6C4.875 19 4 18.125 4 17V14ZM12.75 15.5C12.75 15.0937 13.0625 14.75 13.5 14.75C13.9063 14.75 14.25 15.0937 14.25 15.5C14.25 15.9375 13.9063 16.25 13.5 16.25C13.0625 16.25 12.75 15.9375 12.75 15.5ZM16.5 14.75C16.9062 14.75 17.25 15.0937 17.25 15.5C17.25 15.9375 16.9062 16.25 16.5 16.25C16.0625 16.25 15.75 15.9375 15.75 15.5C15.75 15.0937 16.0625 14.75 16.5 14.75Z" fill="#131B4A"/>
</svg>
