<svg width="24" height="24" viewBox="0 0 24 24" fill="none" xmlns="http://www.w3.org/2000/svg">
<path d="M21 4.5H12.75L10.6266 2.37891C10.0641 1.81594 9.30469 1.5 8.50781 1.5H3C1.34297 1.5 0 2.84297 0 4.5V19.5C0 21.157 1.34297 22.5 3 22.5H21C22.657 22.5 24 21.157 24 19.5V7.5C24 5.84531 22.6547 4.5 21 4.5ZM18 6V13.0359L16.0856 12.0787C15.8747 11.9733 15.6257 11.9733 15.4148 12.0787L13.5 13.0359V6H18ZM22.5 19.5C22.5 20.3269 21.8269 21 21 21H3C2.17313 21 1.5 20.3269 1.5 19.5V4.5C1.5 3.67313 2.17313 3 3 3H8.50781C8.90855 3 9.285 3.156 9.56859 3.43945L12.022 5.89289C12.0141 5.92969 12 5.9625 12 6V14.2078C12 14.4678 12.1348 14.7094 12.356 14.8463C12.5757 14.9825 12.851 14.9949 13.0853 14.8792L15.75 13.5891L18.4144 14.9213C18.5203 14.9719 18.6375 15 18.75 15C18.8877 15 19.0239 14.9626 19.144 14.8879C19.3641 14.7516 19.5 14.5078 19.5 14.2078V6H21C21.8269 6 22.5 6.67313 22.5 7.5V19.5Z" fill="white"/>
</svg>
