<svg width="24" height="24" viewBox="0 0 24 24" fill="none" xmlns="http://www.w3.org/2000/svg">
<path d="M7 6.5C6.71875 6.5 6.5 6.75 6.5 7L6.5 17C6.5 17.2812 6.71875 17.5 7 17.5H17C17.25 17.5 17.5 17.2812 17.5 17V7C17.5 6.75 17.25 6.5 17 6.5L7 6.5ZM5 7C5 5.90625 5.875 5 7 5L17 5C18.0938 5 19 5.90625 19 7V17C19 18.125 18.0938 19 17 19H7C5.875 19 5 18.125 5 17L5 7ZM8 9C8 8.46875 8.4375 8 9 8C9.53125 8 10 8.46875 10 9C10 9.5625 9.53125 10 9 10C8.4375 10 8 9.5625 8 9ZM11.25 9C11.25 8.59375 11.5625 8.25 12 8.25L15 8.25C15.4062 8.25 15.75 8.59375 15.75 9C15.75 9.4375 15.4063 9.75 15 9.75L12 9.75C11.5625 9.75 11.25 9.4375 11.25 9ZM11.25 12C11.25 11.5938 11.5625 11.25 12 11.25L15 11.25C15.4063 11.25 15.75 11.5937 15.75 12C15.75 12.4375 15.4063 12.75 15 12.75H12C11.5625 12.75 11.25 12.4375 11.25 12ZM11.25 15C11.25 14.5937 11.5625 14.25 12 14.25H15C15.4063 14.25 15.75 14.5937 15.75 15C15.75 15.4375 15.4063 15.75 15 15.75H12C11.5625 15.75 11.25 15.4375 11.25 15ZM9 13C8.4375 13 8 12.5625 8 12C8 11.4688 8.4375 11 9 11C9.53125 11 10 11.4688 10 12C10 12.5625 9.53125 13 9 13ZM8 15C8 14.4688 8.4375 14 9 14C9.53125 14 10 14.4687 10 15C10 15.5625 9.53125 16 9 16C8.4375 16 8 15.5625 8 15Z" fill="#131B4A"/>
</svg>
