<svg width="16" height="14" viewBox="0 0 16 14" fill="none" xmlns="http://www.w3.org/2000/svg">
<path d="M2.5 3.25C2.5 2.83437 2.83594 2.5 3.25 2.5C3.66563 2.5 4 2.83437 4 3.25C4 3.66563 3.66563 4 3.25 4C2.83594 4 2.5 3.66563 2.5 3.25ZM6.37813 0C6.775 0 7.15938 0.158125 7.44063 0.439375L12.8344 5.83437C13.6156 6.61562 13.6156 7.88437 12.8344 8.66562L8.66562 12.8344C7.88437 13.6156 6.61562 13.6156 5.83437 12.8344L0.439375 7.44063C0.158031 7.15938 0 6.775 0 6.37813V1.5C0 0.671562 0.671562 0 1.5 0H6.37813ZM1.14656 6.73125L6.54375 12.1281C6.93437 12.5188 7.56563 12.5188 7.95625 12.1281L12.1281 7.95625C12.5188 7.56563 12.5188 6.93437 12.1281 6.54375L6.73125 1.14656C6.6375 1.05281 6.5125 1 6.37813 1H1.5C1.22375 1 1 1.22375 1 1.5V6.37813C1 6.5125 1.05281 6.6375 1.14656 6.73125ZM9.6375 0.154688C9.82812 -0.045 10.1469 -0.0521875 10.3469 0.138438L14.7625 4.35938C16.4094 5.93437 16.4094 8.56563 14.7625 10.1406L10.8687 13.8625C10.6687 14.0531 10.3531 14.0437 10.1625 13.8469C9.97188 13.6469 9.97813 13.3281 10.1781 13.1375L14.0719 9.41875C15.3062 8.2375 15.3062 6.2625 14.0719 5.08125L9.65312 0.861562C9.45625 0.670625 9.44687 0.354375 9.6375 0.154688Z" fill="white"/>
</svg>
