<svg width="24" height="24" viewBox="0 0 24 24" fill="none" xmlns="http://www.w3.org/2000/svg">
<path d="M6.5 17C6.5 17.2812 6.71875 17.5 7 17.5H17C17.25 17.5 17.5 17.2812 17.5 17V7C17.5 6.75 17.25 6.5 17 6.5L7 6.5C6.71875 6.5 6.5 6.75 6.5 7L6.5 17ZM7 19C5.875 19 5 18.125 5 17L5 7C5 5.90625 5.875 5 7 5L17 5C18.0938 5 19 5.90625 19 7V17C19 18.125 18.0938 19 17 19H7ZM11 12C11 11.4688 11.4375 11 12 11C12.5313 11 13 11.4687 13 12C13 12.5625 12.5313 13 12 13C11.4375 13 11 12.5625 11 12ZM9 13C8.4375 13 8 12.5625 8 12C8 11.4688 8.4375 11 9 11C9.53125 11 10 11.4688 10 12C10 12.5625 9.53125 13 9 13ZM14 12C14 11.4687 14.4375 11 15 11C15.5313 11 16 11.4687 16 12C16 12.5625 15.5313 13 15 13C14.4375 13 14 12.5625 14 12Z" fill="#131B4A"/>
</svg>
