<svg width="18" height="16" viewBox="0 0 18 16" fill="none" xmlns="http://www.w3.org/2000/svg">
<path d="M9 16C6.125 16 3.5 14.5 2.0625 12C0.625 9.53125 0.625 6.5 2.0625 4C3.5 1.53125 6.125 0 9 0C11.8438 0 14.4688 1.53125 15.9062 4C17.3438 6.5 17.3438 9.53125 15.9063 12C14.4688 14.5 11.8438 16 9 16ZM9 4C8.5625 4 8.25 4.34375 8.25 4.75V8.25C8.25 8.6875 8.5625 9 9 9C9.40625 9 9.75 8.6875 9.75 8.25L9.75 4.75C9.75 4.34375 9.40625 4 9 4ZM8 11C8 11.5625 8.4375 12 9 12C9.53125 12 10 11.5625 10 11C10 10.4687 9.53125 10 9 10C8.4375 10 8 10.4687 8 11Z" fill="#F79009"/>
</svg>
