<svg width="25" height="24" viewBox="0 0 25 24" fill="none" xmlns="http://www.w3.org/2000/svg">
<path d="M6.75 11.25L11.75 11.25L11.75 6.25C11.75 5.84375 12.0937 5.5 12.5 5.5C12.9375 5.5 13.25 5.84375 13.25 6.25L13.25 11.25L18.25 11.25C18.6875 11.25 19 11.5937 19 12C19 12.4375 18.6875 12.75 18.25 12.75L13.25 12.75L13.25 17.75C13.25 18.1875 12.9375 18.5 12.5 18.5C12.0937 18.5 11.75 18.1875 11.75 17.75L11.75 12.75L6.75 12.75C6.34375 12.75 6 12.4375 6 12C6 11.5937 6.34375 11.25 6.75 11.25Z" fill="white"/>
</svg>
