<svg width="40" height="40" viewBox="0 0 40 40" fill="none" xmlns="http://www.w3.org/2000/svg">
<g filter="url(#filter0_d_1197_2306)">
<path fill-rule="evenodd" clip-rule="evenodd" d="M9.17157 5.17157C8 6.34315 8 8.22876 8 12V20C8 23.7712 8 25.6569 9.17157 26.8284C10.3431 28 12.2288 28 16 28H24C27.7712 28 29.6569 28 30.8284 26.8284C32 25.6569 32 23.7712 32 20V12C32 8.22876 32 6.34315 30.8284 5.17157C29.6569 4 27.7712 4 24 4H16C12.2288 4 10.3431 4 9.17157 5.17157ZM14.5 8C14.2239 8 14 8.22386 14 8.5C14 8.77614 14.2239 9 14.5 9H25.5C25.7761 9 26 8.77614 26 8.5C26 8.22386 25.7761 8 25.5 8H14.5Z" fill="url(#paint0_linear_1197_2306)"/>
</g>
<defs>
<filter id="filter0_d_1197_2306" x="0" y="0" width="40" height="40" filterUnits="userSpaceOnUse" color-interpolation-filters="sRGB">
<feFlood flood-opacity="0" result="BackgroundImageFix"/>
<feColorMatrix in="SourceAlpha" type="matrix" values="0 0 0 0 0 0 0 0 0 0 0 0 0 0 0 0 0 0 127 0" result="hardAlpha"/>
<feOffset dy="4"/>
<feGaussianBlur stdDeviation="4"/>
<feComposite in2="hardAlpha" operator="out"/>
<feColorMatrix type="matrix" values="0 0 0 0 0.0745098 0 0 0 0 0.105882 0 0 0 0 0.290196 0 0 0 0.08 0"/>
<feBlend mode="normal" in2="BackgroundImageFix" result="effect1_dropShadow_1197_2306"/>
<feBlend mode="normal" in="SourceGraphic" in2="effect1_dropShadow_1197_2306" result="shape"/>
</filter>
<linearGradient id="paint0_linear_1197_2306" x1="8" y1="4" x2="32" y2="28" gradientUnits="userSpaceOnUse">
<stop stop-color="#8D0085"/>
<stop offset="1" stop-color="#FF9400"/>
</linearGradient>
</defs>
</svg>
