<svg width="15" height="14" viewBox="0 0 15 14" fill="none" xmlns="http://www.w3.org/2000/svg">
<path d="M14.9467 5.275L12.4748 0.275C12.3049 -0.0628125 11.7501 -0.0628125 11.5804 0.275L9.10855 5.275C8.98502 5.52206 9.08512 5.82188 9.33218 5.94594C9.57924 6.07094 9.87968 5.9684 10.0031 5.72231L10.3092 5H13.6904L14.0523 5.72375C14.1491 5.91613 14.4298 6.095 14.7232 5.94737C14.9717 5.82187 15.0717 5.525 14.9467 5.275ZM10.8092 4L12.0001 1.61812L13.1904 4H10.8092ZM13.9717 13H11.0123L14.3623 8.8125C14.4824 8.66212 14.5054 8.45687 14.4224 8.28312C14.3654 8.10938 14.1936 8 13.9717 8H9.97168C9.6953 8 9.47168 8.22363 9.47168 8.5C9.47168 8.77637 9.6953 9 9.97168 9H12.9311L9.58105 13.1875C9.46093 13.3379 9.43799 13.5431 9.52099 13.7169C9.63105 13.8906 9.80606 14 9.97168 14H13.9436C14.2199 14 14.4154 13.7764 14.4154 13.5C14.4154 13.2236 14.2748 13 13.9717 13ZM6.9998 10C6.87187 10 6.74393 10.0488 6.64637 10.1465L4.4998 12.2937V0.5C4.4998 0.223625 4.27618 0 3.9998 0C3.72343 0 3.4998 0.22375 3.4998 0.5V12.2937L1.35324 10.1472C1.15793 9.95187 0.841367 9.95187 0.646367 10.1472C0.451367 10.3425 0.451055 10.6591 0.646367 10.8541L3.64637 13.8541C3.84168 14.0494 4.15824 14.0494 4.35324 13.8541L7.35324 10.8541C7.54855 10.6587 7.54855 10.3422 7.35324 10.1472C7.25605 10.05 7.12793 10 6.9998 10Z" fill="#131B4A"/>
</svg>
