<svg width="24" height="24" viewBox="0 0 24 24" fill="none" xmlns="http://www.w3.org/2000/svg">
<path d="M5.5 6.5L5.5 8L18.5 8V6.5L5.5 6.5ZM5 5L19 5C19.5312 5 20 5.46875 20 6V8.5C20 9.0625 19.5312 9.5 19 9.5L5 9.5C4.4375 9.5 4 9.0625 4 8.5L4 6C4 5.46875 4.4375 5 5 5ZM9 11.75C9 11.3438 9.3125 11 9.75 11L14.25 11C14.6563 11 15 11.3437 15 11.75C15 12.1875 14.6563 12.5 14.25 12.5H9.75C9.3125 12.5 9 12.1875 9 11.75ZM5 17L5 10.5H6.5L6.5 17C6.5 17.2812 6.71875 17.5 7 17.5H17C17.25 17.5 17.5 17.2812 17.5 17V10.5L19 10.5V17C19 18.125 18.0938 19 17 19H7C5.875 19 5 18.125 5 17Z" fill="#898DA4"/>
</svg>
