<svg width="24" height="24" viewBox="0 0 24 24" fill="none" xmlns="http://www.w3.org/2000/svg">
<path d="M3.1875 4.1875L6.6875 6.90625C8.09375 5.84375 9.84375 5 12 5C14.5 5 16.5312 6.15625 18 7.53125C19.4688 8.875 20.4375 10.5 20.9062 11.625C21 11.875 21 12.1562 20.9062 12.4062C20.5 13.4062 19.6562 14.8437 18.4062 16.0938L21.6875 18.6875C22.0313 18.9375 22.0938 19.4062 21.8125 19.7187C21.5625 20.0625 21.0938 20.125 20.7813 19.8437L2.28125 5.34375C1.9375 5.09375 1.875 4.625 2.15625 4.3125C2.40625 3.96875 2.875 3.90625 3.1875 4.1875ZM7.90625 7.875L9.34375 9C10.0625 8.375 10.9688 8 12 8C14.1875 8 16 9.8125 16 12C16 12.6875 15.8438 13.3125 15.5313 13.8437L17.2188 15.1562C18.3125 14.0937 19.0625 12.875 19.4375 12C19.0312 11.0625 18.1875 9.75 16.9688 8.625C15.6875 7.4375 14.0312 6.5 12 6.5C10.4062 6.5 9.0625 7.0625 7.90625 7.875ZM14.3125 12.9062C14.4375 12.625 14.5 12.3125 14.5 12C14.5 10.625 13.375 9.5 12 9.5C11.9688 9.5 11.9375 9.5 11.9375 9.5C11.9688 9.6875 12 9.84375 12 10C12 10.3438 11.9062 10.625 11.7812 10.9062L14.3125 12.9062ZM14.625 16.9688L15.9375 18C14.7813 18.625 13.4688 19 12 19C9.46875 19 7.4375 17.875 5.96875 16.5C4.5 15.125 3.53125 13.5 3.0625 12.4062C2.96875 12.1562 2.96875 11.875 3.0625 11.625C3.375 10.9062 3.875 10 4.59375 9.0625L5.75 10C5.1875 10.7188 4.78125 11.4375 4.53125 12C4.96875 12.9375 5.78125 14.2812 7 15.4062C8.28125 16.5938 9.9375 17.5 12 17.5C12.9375 17.5 13.8125 17.3125 14.625 16.9688ZM8 12H7.96875C7.96875 11.9375 8 11.8438 8 11.75L9.75 13.125C10.0625 13.7812 10.6875 14.2812 11.4375 14.4375L13.1875 15.8437C12.8125 15.9375 12.4063 16 12 16C9.78125 16 8 14.2188 8 12Z" fill="#131B4A"/>
</svg>
