<?xml version="1.0" encoding="UTF-8"?><svg id="Layer_1" xmlns="http://www.w3.org/2000/svg" viewBox="0 0 20 20"><path d="M9.33,15H3.5c-.28,0-.5-.22-.5-.5V5.5c0-.28,.22-.5,.5-.5h4.59l1.71,1.71c.19,.19,.44,.29,.71,.29h6c.28,0,.5,.22,.5,.5v2.03c.35,.09,.68,.22,1,.37v-2.4c0-.83-.67-1.5-1.5-1.5h-6l-1.71-1.71c-.19-.19-.44-.29-.71-.29H3.5c-.83,0-1.5,.67-1.5,1.5V14.5c0,.83,.67,1.5,1.5,1.5h5.84c-.02-.2-.03-.39-.03-.6,0-.14,.01-.27,.02-.4Z"/><path d="M18,11.62c-.31-.21-.65-.37-1-.5-.5-.19-1.03-.3-1.6-.3-2.4,0-4.35,1.84-4.55,4.19-.01,.14-.04,.27-.04,.4,0,.2,.03,.4,.06,.6,.29,2.25,2.2,4,4.54,4,2.54,0,4.6-2.06,4.6-4.6,0-1.57-.79-2.96-2-3.79Zm-1.12,5.76c-.07,.07-.14,.14-.2,.2-.05,.05-.09,.12-.11,.19-.03,.1-.05,.2-.09,.3l-.25,.75c-.04,.15-.15,.25-.3,.28-.02,0-.05,0-.07,.01,0,0-.02,0-.03,0-.02,0-.03,0-.04,0-.21,0-.38-.17-.38-.36v-.23c.03-.23-.14-.65-.41-.92-.11-.12-.18-.27-.17-.42v-.57c0-.21-.11-.4-.3-.5-.05-.03-.12-.07-.19-.1-.23-.13-.49-.27-.69-.37-.21-.11-.4-.24-.57-.39h-.01c-.07-.08-.13-.16-.2-.24-.04-.05-.09-.09-.13-.14-.13-.19-.43-.64-.64-.95-.03-.04-.04-.09-.06-.13,.39-.81,1.07-1.46,1.91-1.82l.17,.16c.08,.08,.18,.15,.29,.2,.06,.03,.14,.04,.21,.02,.13-.04,.21-.15,.21-.28,0-.11,.09-.21,.2-.22,.05,0,.09,0,.14-.01,.06,0,.13,.02,.17,.06l.44,.44c.11,.11,.11,.29,0,.41l-.27,.27c-.06,.06-.06,.15,0,.2l.08,.08c.06,.06,.06,.15,0,.2l-.14,.14s-.06,.04-.1,.04h-.16s-.07,.02-.1,.04l-.18,.17s-.06,.11-.03,.17l.28,.56s.02,.04,.02,.06c0,.08-.06,.14-.14,.14h-.1s-.07-.01-.09-.04l-.17-.15c-.08-.07-.18-.09-.28-.06l-.56,.19c-.05,.02-.1,.06-.12,.1-.02,.04-.01,.08,0,.11,0,.07,.03,.14,.1,.18l.2,.1c.17,.08,.36,.13,.54,.13s.41,.49,.57,.57h1.2s.07,.01,.1,.02c.11,.02,.22,.06,.3,.15l.25,.25c.1,.1,.16,.24,.16,.39,0,.22-.09,.44-.25,.59Zm1.86-1.48l-.37-.18c-.08-.03-.14-.09-.19-.16l-.31-.46-.02-.02c-.1-.15-.1-.33,0-.48l.14-.21,.21-.32c.04-.06,.1-.11,.17-.15,.12-.06,.26-.1,.39-.12,.23,.49,.37,1.03,.37,1.61,0,.23-.02,.45-.06,.66l-.33-.18Z"/></svg>