<svg width="24" height="24" viewBox="0 0 24 24" fill="none" xmlns="http://www.w3.org/2000/svg">
<g clip-path="url(#clip0_979_2433)">
<path d="M7.87527 11.9578C7.87527 9.72188 9.72215 7.83281 12.0003 7.83281C14.2784 7.83281 16.1253 9.72188 16.1253 11.9578C16.1253 14.2781 14.2784 16.125 12.0003 16.125C9.72215 16.125 7.87527 14.2781 7.87527 11.9578ZM12.0003 9.33281C10.5518 9.33281 9.37527 10.5516 9.37527 11.9578C9.37527 13.4484 10.5518 14.5828 12.0003 14.5828C13.4487 14.5828 14.6253 13.4484 14.6253 11.9578C14.6253 10.5516 13.4487 9.33281 12.0003 9.33281ZM3.07856 10.8094L1.18809 9.08438C0.666838 8.61094 0.546838 7.8375 0.899338 7.22812L2.31684 4.77188C2.66934 4.16156 3.39918 3.87891 4.0709 4.09312L6.50653 4.87031C7.13465 4.38562 7.8284 3.9825 8.56903 3.67641L9.11746 1.17937C9.26746 0.490781 9.87684 0 10.5847 0H13.4159C14.1237 0 14.7331 0.490781 14.8831 1.17937L15.4315 3.67641C16.13 3.9825 16.8659 4.38562 17.494 4.87031L19.9315 4.09312C20.6018 3.87891 21.3331 4.16156 21.6847 4.77188L23.1003 7.22812C23.4518 7.8375 23.3347 8.61094 22.8143 9.08438L20.9206 10.8094C20.9722 11.1984 21.0003 11.5969 21.0003 11.9578C21.0003 12.4031 20.9722 12.8016 20.9206 13.1906L22.8143 14.9156C23.3347 15.3891 23.4518 16.1625 23.1003 16.7719L21.6847 19.2281C21.3331 19.8375 20.6018 20.1188 19.9315 19.9078L17.494 19.1297C16.8659 19.6125 16.13 20.0156 15.4315 20.325L14.8831 22.8187C14.7331 23.5078 14.1237 24 13.4159 24H10.5847C9.87684 24 9.26746 23.5078 9.11746 22.8187L8.56903 20.325C7.8284 20.0156 7.13465 19.6125 6.50653 19.1297L4.0709 19.9078C3.39918 20.1188 2.66934 19.8375 2.31684 19.2281L0.899338 16.7719C0.546838 16.1625 0.666838 15.3891 1.18809 14.9156L3.07856 13.1906C3.02699 12.8016 3.00028 12.4031 3.00028 11.9578C3.00028 11.5969 3.02699 11.1984 3.07856 10.8094ZM7.42527 6.05625L6.80184 6.53906L3.61574 5.52188L2.19824 7.97812L4.66809 10.2281L4.56543 11.0063C4.52231 11.3297 4.50028 11.6625 4.50028 11.9578C4.50028 12.3375 4.52231 12.6703 4.56543 12.9938L4.66809 13.7719L2.19824 16.0219L3.61574 18.4781L6.80184 17.4609L7.42527 17.9437C7.94559 18.3469 8.52684 18.6844 9.1409 18.8953L9.86746 19.2375L10.5847 22.5H13.4159L14.1331 19.2375L14.8175 18.8953C15.4737 18.6844 16.055 18.3469 16.5753 17.9437L17.1987 17.4609L20.3862 18.4781L21.8018 16.0219L19.3315 13.7719L19.4347 12.9938C19.4768 12.6703 19.5003 12.3375 19.5003 12C19.5003 11.6625 19.4768 11.3297 19.4347 11.0063L19.3315 10.2281L21.8018 7.97812L20.3862 5.52188L17.1987 6.53906L16.5753 6.05625C16.055 5.65312 15.4737 5.31563 14.8175 5.0625L14.1331 4.7625L13.4159 1.5H10.5847L9.86746 4.7625L9.1409 5.0625C8.52684 5.31563 7.94559 5.65312 7.42527 6.05625Z" fill="white"/>
</g>
<defs>
<clipPath id="clip0_979_2433">
<rect width="24" height="24" fill="white"/>
</clipPath>
</defs>
</svg>
