<svg width="40" height="40" viewBox="0 0 40 40" fill="none" xmlns="http://www.w3.org/2000/svg">
<path d="M28 0C33.6569 0 36.4848 0.000453236 38.2422 1.75781C39.9995 3.51517 40 6.34315 40 12V28C40 33.6569 39.9995 36.4848 38.2422 38.2422C36.4848 39.9995 33.6569 40 28 40H12C6.34315 40 3.51517 39.9995 1.75781 38.2422C0.000453236 36.4848 0 33.6569 0 28V12C0 6.34315 0.000453236 3.51517 1.75781 1.75781C3.51517 0.000453236 6.34315 0 12 0H28ZM13 18.5V25C13 26.125 13.875 27 15 27H25C26.0938 27 27 26.125 27 25V18.5H25.5V25C25.5 25.2812 25.25 25.5 25 25.5H15C14.7188 25.5 14.5 25.2812 14.5 25V18.5H13ZM17.75 19C17.3125 19 17 19.3438 17 19.75C17 20.1875 17.3125 20.5 17.75 20.5H22.25C22.6562 20.5 23 20.1875 23 19.75C23 19.3438 22.6562 19 22.25 19H17.75ZM13 13C12.4375 13 12 13.4688 12 14V16.5C12 17.0625 12.4375 17.5 13 17.5H27C27.5312 17.5 28 17.0625 28 16.5V14C28 13.4688 27.5312 13 27 13H13ZM26.5 14.5V16H13.5V14.5H26.5Z" fill="url(#paint0_linear_22208_52394)"/>
<defs>
<linearGradient id="paint0_linear_22208_52394" x1="0" y1="0" x2="46.761" y2="10.843" gradientUnits="userSpaceOnUse">
<stop stop-color="#800080"/>
<stop offset="1" stop-color="#FF9933"/>
</linearGradient>
</defs>
</svg>
