<svg width="24" height="24" viewBox="0 0 24 24" fill="none" xmlns="http://www.w3.org/2000/svg">
<path d="M8.09375 8.28125C7.1875 7.375 7.1875 5.84375 8.09375 4.90625C9.03125 4 10.5 4 11.4375 4.90625L12 5.46875L12.5312 4.90625C13.4688 4 14.9375 4 15.875 4.90625C16.7812 5.84375 16.7812 7.375 15.875 8.28125L12.6875 11.5312C12.5 11.7187 12.25 11.8125 12 11.8125C11.7188 11.8125 11.4688 11.7188 11.2812 11.5312L8.09375 8.28125ZM6.5 8.25H6.46875L6.46875 12.2812C6.84375 11.9688 7.34375 11.75 7.90625 11.75C8.46875 11.75 9.03125 12 9.4375 12.4062L11.3438 14.3125C11.5938 14.5625 11.8125 14.8125 11.9688 15.0937C12.1563 14.8125 12.375 14.5625 12.625 14.3125L14.5313 12.4062C14.9375 12 15.5 11.75 16.0625 11.75C16.5938 11.75 17.0938 11.9687 17.4688 12.2812V8.25C17.4688 7.03125 18.5 6 19.7188 6C20.9688 6 21.9688 7.03125 21.9688 8.25V15.0312C21.9688 16 21.5938 16.9687 20.875 17.6562L18.75 19.7812C18.4688 20.0937 18 20.0937 17.7188 19.7812C17.4062 19.5 17.4062 19.0312 17.7188 18.7188L19.8125 16.625C20.25 16.1875 20.4688 15.625 20.4688 15.0312V8.25C20.4688 7.84375 20.1562 7.5 19.7188 7.5C19.3125 7.5 18.9688 7.84375 18.9688 8.25V12.8125C18.9688 13.625 18.6562 14.4062 18.0938 14.9687L17.5938 15.4687L16.75 16.2812L16.25 16.7812C15.9688 17.0938 15.5 17.0938 15.2188 16.7812C14.9063 16.5 14.9063 16.0312 15.2188 15.7187L15.7188 15.2187L16.5312 14.4062C16.6562 14.2812 16.75 14.0937 16.75 13.9375C16.75 13.5625 16.4375 13.25 16.0625 13.25C15.9063 13.25 15.7188 13.3437 15.5938 13.4687L13.6875 15.375C13.0625 15.9687 12.75 16.8125 12.75 17.6562V19.25C12.75 19.6875 12.4063 20 12 20C11.5625 20 11.25 19.6875 11.25 19.25L11.25 17.6562C11.25 16.8125 10.9063 15.9687 10.2813 15.375L8.375 13.4688C8.25 13.3438 8.0625 13.2812 7.90625 13.2812C7.53125 13.2812 7.25 13.5625 7.25 13.9375C7.25 14.0938 7.3125 14.2812 7.4375 14.4062L8.25 15.25L8.75 15.75C9.0625 16.0312 9.0625 16.5 8.75 16.7812C8.46875 17.0938 8 17.0938 7.71875 16.7812L7.21875 16.2812L6.375 15.4688L5.875 14.9688C5.3125 14.4062 5 13.625 5 12.8125L5 8.25C5 7.84375 4.65625 7.5 4.25 7.5C3.8125 7.5 3.5 7.84375 3.5 8.25L3.5 15.0312C3.5 15.625 3.71875 16.1875 4.15625 16.625L6.25 18.75C6.5625 19.0312 6.5625 19.5 6.25 19.7812C5.96875 20.0938 5.5 20.0938 5.21875 19.7812L3.09375 17.6875C2.375 16.9688 2 16 2 15.0312L2 8.25C2 7.03125 3 6 4.25 6C5.46875 6 6.5 7.03125 6.5 8.25Z" fill="#131B4A"/>
</svg>
