<?xml version="1.0" encoding="UTF-8"?><svg id="Layer_1" xmlns="http://www.w3.org/2000/svg" viewBox="0 0 20 20"><path d="M17,4.25v.5c0,.14-.11,.25-.25,.25h-.59l-1.04,11.63c-.07,.76-.71,1.37-1.49,1.37H6.37c-.78,0-1.43-.6-1.49-1.37L3.84,5h-.59c-.14,0-.25-.11-.25-.25v-.5c0-.14,.11-.25,.25-.25h3.25l1.05-1.4c.27-.36,.71-.6,1.2-.6h2.5c.49,0,.93,.24,1.2,.6l1.05,1.4h3.25c.14,0,.25,.11,.25,.25Zm-1.84,.75H4.84l1.03,11.54c.02,.25,.24,.46,.5,.46h7.26c.26,0,.47-.2,.5-.46l1.03-11.54Zm-7.41-1h4.5l-.6-.8c-.09-.12-.24-.2-.4-.2h-2.5c-.16,0-.31,.08-.4,.2l-.6,.8Z"/></svg>