<svg width="10" height="10" viewBox="0 0 10 10" fill="none" xmlns="http://www.w3.org/2000/svg">
<path id="Vector" d="M9.85374 9.85374C9.65834 10.0491 9.34218 10.0491 9.14655 9.85374L5.00062 5.70687L0.853742 9.85374C0.658336 10.0491 0.34218 10.0491 0.146555 9.85374C-0.0488516 9.65834 -0.0488516 9.34218 0.146555 9.14655L4.29437 5.00062L0.14718 0.853742C-0.0482266 0.658336 -0.0482266 0.34218 0.14718 0.146555C0.342586 -0.0488516 0.658742 -0.0488516 0.854367 0.146555L5.00062 4.29437L9.14749 0.147492C9.3429 -0.0479141 9.65905 -0.0479141 9.85468 0.147492C10.0501 0.342898 10.0501 0.659055 9.85468 0.85468L5.70687 5.00062L9.85374 9.14749C10.0506 9.34124 10.0506 9.65999 9.85374 9.85374Z" fill="#D9D9D9"/>
</svg>
