<svg width="24" height="24" viewBox="0 0 24 24" fill="none" xmlns="http://www.w3.org/2000/svg">
<path d="M18 7H12.5L11.0844 5.58594C10.7094 5.21062 10.2031 5 9.67188 5H6C4.89531 5 4 5.89531 4 7V17C4 18.1047 4.89531 19 6 19H18C19.1047 19 20 18.1047 20 17V9C20 7.89687 19.1031 7 18 7ZM19 17C19 17.5513 18.5513 18 18 18H6C5.44875 18 5 17.5513 5 17V7C5 6.44875 5.44875 6 6 6H9.67188C9.93903 6 10.19 6.104 10.3791 6.29297L12.0844 8H18C18.5513 8 19 8.44875 19 9V17Z" fill="#131B4A"/>
<path d="M14.8535 13.3531C15.0488 13.1578 15.0488 12.8412 14.8535 12.6462L12.3535 10.1462C12.1582 9.95093 11.8416 9.95093 11.6466 10.1462C11.4516 10.3416 11.4513 10.6581 11.6466 10.8531L13.2941 12.5L9.50039 12.5C9.22402 12.5 9.00039 12.7236 9.00039 13C9.00039 13.2764 9.22402 13.5 9.50039 13.5L13.2941 13.5L11.6476 15.1466C11.5504 15.2437 11.5004 15.3719 11.5004 15.5C11.5004 15.6281 11.5492 15.7559 11.6469 15.8534C11.8422 16.0487 12.1588 16.0487 12.3538 15.8534L14.8535 13.3531Z" fill="#131B4A"/>
</svg>
