<svg width="24" height="24" viewBox="0 0 24 24" fill="none" xmlns="http://www.w3.org/2000/svg">
<g clip-path="url(#clip0_1120_10989)">
<path d="M8.47187 4C8.775 4 8.97187 4.22387 8.97187 4.5V4.625C8.97187 4.86094 9.1125 5.08344 9.3 5.225L10.3 5.975C10.7406 6.30562 10.9719 6.82406 10.9719 7.375V7.5C10.9719 7.775 10.775 8 10.4719 8C10.225 8 9.97188 7.775 9.97188 7.5V7.375C9.97188 7.1375 9.8875 6.91656 9.7 6.775L8.7 6.025C8.25938 5.69438 7.97187 5.17594 7.97187 4.625V4.5C7.97187 4.22387 8.225 4 8.47187 4ZM18 9C18.5531 9 19 9.44688 19 10C19 12.5156 17.4531 14.6687 15.2594 15.5594L16.9563 19.2937C17.0688 19.5437 16.9594 19.8406 16.7063 19.9563C16.4563 20.0688 16.1594 19.9594 16.0437 19.7063L15.4969 18.5H9.90938C9.71563 19.3625 8.93125 20 8 20C6.89531 20 6 19.1031 6 18C6 16.8969 6.89531 16 8 16C8.17812 16 8.34687 16.0219 8.5125 16.0656L8.74062 15.5594C6.54719 14.6687 5 12.5156 5 10C5 9.44688 5.44781 9 6 9H18ZM13 15C15.7625 15 18 12.7625 18 10H5.97188C5.97188 12.7625 8.2375 15 10.9719 15H13ZM9.3875 16.5594C9.65 16.7844 9.81563 17.1344 9.90938 17.5H15.0406L14.2969 15.8594C13.8781 15.95 13.4438 16 13 16H10.9719C10.5563 16 10.1219 15.9531 9.70312 15.8594L9.3875 16.5594ZM7.97187 17C7.44781 17 6.97187 17.4469 6.97187 18C6.97187 18.5531 7.44781 19 7.97187 19C8.55312 19 8.97187 18.5531 8.97187 18C8.97187 17.4469 8.55312 17 7.97187 17ZM11.9719 4.625C11.9719 4.86094 12.1125 5.08344 12.3 5.225L13.3 5.975C13.7406 6.30562 14 6.82406 14 7.375V7.5C14 7.775 13.775 8 13.5 8C13.225 8 13 7.775 13 7.5V7.375C13 7.1375 12.8875 6.91656 12.7 6.775L11.7 6.025C11.2594 5.69438 10.9719 5.17594 10.9719 4.625V4.5C10.9719 4.22387 11.225 4 11.4719 4C11.775 4 11.9719 4.22387 11.9719 4.5V4.625Z" fill="#131B4A"/>
</g>
<defs>
<clipPath id="clip0_1120_10989">
<rect width="14" height="16" fill="white" transform="translate(5 4)"/>
</clipPath>
</defs>
</svg>
