<svg width="24" height="24" viewBox="0 0 24 24" fill="none" xmlns="http://www.w3.org/2000/svg">
<path d="M10.5 17V17.5L12.75 15.8125C13 15.625 13.3125 15.5 13.6563 15.5H18C18.25 15.5 18.5 15.2812 18.5 15V6C18.5 5.75 18.25 5.5 18 5.5L6 5.5C5.71875 5.5 5.5 5.75 5.5 6L5.5 15C5.5 15.2812 5.71875 15.5 6 15.5H9C9.8125 15.5 10.5 16.1875 10.5 17ZM10.4688 19.4062L10.3125 19.5L9.78125 19.9062C9.625 20.0312 9.4375 20.0312 9.25 19.9688C9.09375 19.875 9 19.7188 9 19.5V18.8438V18.6562V18.625V18.5L9 17H7.5H6C4.875 17 4 16.125 4 15L4 6C4 4.90625 4.875 4 6 4L18 4C19.0938 4 20 4.90625 20 6V15C20 16.125 19.0938 17 18 17H13.6563L10.5 19.375L10.4688 19.4062ZM8.75 8.5L15.25 8.5C15.6562 8.5 16 8.84375 16 9.25C16 9.6875 15.6563 10 15.25 10L8.75 10C8.3125 10 8 9.6875 8 9.25C8 8.84375 8.3125 8.5 8.75 8.5ZM8.75 11.5H12.25C12.6563 11.5 13 11.8437 13 12.25C13 12.6875 12.6563 13 12.25 13L8.75 13C8.3125 13 8 12.6875 8 12.25C8 11.8438 8.3125 11.5 8.75 11.5Z" fill="#131B4A"/>
</svg>
