<svg width="14" height="14" viewBox="0 0 14 14" fill="none" xmlns="http://www.w3.org/2000/svg">
<path d="M7.925 3H6.075C4.93125 3 4 3.93125 4 5.075V5.375C4 5.65137 4.22363 5.875 4.5 5.875C4.77637 5.875 5 5.65 5 5.375V5.075C5 4.48125 5.48125 4 6.075 4H7.92656C8.51875 4 9 4.48125 9 5.075C9 5.465 8.78809 5.825 8.46688 6.00375L6.57812 6.94688C6.22188 7.14687 6 7.52187 6 7.93125V8.5C6 8.775 6.225 9 6.5 9C6.775 9 7 8.775 7 8.5V7.93125C7 7.88584 7.02442 7.84384 7.04494 7.83212L8.93275 6.88775C9.59062 6.52188 10 5.82812 10 5.075C10 3.93125 9.06875 3 7.925 3ZM6.5 9.75C6.08594 9.75 5.75 10.0859 5.75 10.5C5.75 10.9141 6.08594 11.25 6.5 11.25C6.91406 11.25 7.25 10.9141 7.25 10.5C7.25 10.0859 6.91563 9.75 6.5 9.75ZM12 0H2C0.895313 0 0 0.895313 0 2V12C0 13.1047 0.895313 14 2 14H12C13.1047 14 14 13.1047 14 12V2C14 0.895313 13.1031 0 12 0ZM13 12C13 12.5513 12.5513 13 12 13H2C1.44875 13 1 12.5513 1 12V2C1 1.44875 1.44875 1 2 1H12C12.5513 1 13 1.44875 13 2V12Z" fill="#606060"/>
</svg>
