<svg width="61" height="61" viewBox="0 0 61 61" fill="none" xmlns="http://www.w3.org/2000/svg">
<rect width="61" height="61" fill="#131B4A"/>
<path d="M23.9443 49H18.5996V39.7197H23.9443V41.332H20.5674V43.3696H23.7095V44.9819H20.5674V47.375H23.9443V49ZM27.9814 49.127C27.1901 49.127 26.5448 48.818 26.0454 48.2002C25.5503 47.5781 25.3027 46.6662 25.3027 45.4644C25.3027 44.2498 25.5545 43.3315 26.0581 42.7095C26.5617 42.0832 27.2197 41.77 28.0322 41.77C28.3708 41.77 28.6691 41.8166 28.9272 41.9097C29.1854 42.0028 29.4076 42.1276 29.5938 42.2842C29.7842 42.4408 29.945 42.6164 30.0762 42.811H30.1396C30.1143 42.6756 30.0825 42.4767 30.0444 42.2144C30.0106 41.9478 29.9937 41.6748 29.9937 41.3955V39.123H31.936V49H30.4507L30.0762 48.0796H29.9937C29.8709 48.2743 29.7165 48.452 29.5303 48.6128C29.3483 48.7694 29.1304 48.8942 28.8765 48.9873C28.6226 49.0804 28.3242 49.127 27.9814 49.127ZM28.6606 47.5845C29.1896 47.5845 29.562 47.4279 29.7778 47.1147C29.9979 46.7974 30.1143 46.3213 30.127 45.6865V45.4771C30.127 44.7873 30.0212 44.2604 29.8096 43.8965C29.598 43.5283 29.2044 43.3442 28.6289 43.3442C28.2015 43.3442 27.8672 43.5283 27.626 43.8965C27.3848 44.2646 27.2642 44.7957 27.2642 45.4897C27.2642 46.1838 27.3848 46.7064 27.626 47.0576C27.8714 47.4089 28.2163 47.5845 28.6606 47.5845ZM35.897 41.9033V49H33.9609V41.9033H35.897ZM34.9321 39.123C35.2199 39.123 35.4674 39.1908 35.6748 39.3262C35.8822 39.4574 35.9858 39.7049 35.9858 40.0688C35.9858 40.4285 35.8822 40.6782 35.6748 40.8179C35.4674 40.9533 35.2199 41.021 34.9321 41.021C34.6401 41.021 34.3905 40.9533 34.1831 40.8179C33.98 40.6782 33.8784 40.4285 33.8784 40.0688C33.8784 39.7049 33.98 39.4574 34.1831 39.3262C34.3905 39.1908 34.6401 39.123 34.9321 39.123ZM40.9243 47.5845C41.1359 47.5845 41.3411 47.5633 41.54 47.521C41.7432 47.4787 41.9442 47.4258 42.1431 47.3623V48.8032C41.9357 48.8963 41.6776 48.9725 41.3687 49.0317C41.064 49.0952 40.7297 49.127 40.3657 49.127C39.9425 49.127 39.5617 49.0592 39.2231 48.9238C38.8888 48.7842 38.6243 48.5451 38.4297 48.2065C38.2393 47.8638 38.144 47.3877 38.144 46.7783V43.3569H37.2173V42.5381L38.2837 41.8906L38.8423 40.3926H40.0801V41.9033H42.0669V43.3569H40.0801V46.7783C40.0801 47.0492 40.1562 47.2523 40.3086 47.3877C40.4652 47.5189 40.6704 47.5845 40.9243 47.5845Z" fill="white"/>
<path d="M23 27.25V31H26.75L37.81 19.94L34.06 16.19L23 27.25ZM40.71 17.04C41.1 16.65 41.1 16.02 40.71 15.63L38.37 13.29C37.98 12.9 37.35 12.9 36.96 13.29L35.13 15.12L38.88 18.87L40.71 17.04V17.04Z" fill="white"/>
</svg>
