<svg width="24" height="24" viewBox="0 0 24 24" fill="none" xmlns="http://www.w3.org/2000/svg">
<path d="M11.8438 8L10.5 6.65625L11.5625 5.59375L10.5 6.65625C10.4062 6.5625 10.2812 6.5 10.1562 6.5L6 6.5C5.71875 6.5 5.5 6.75 5.5 7L5.5 17C5.5 17.2812 5.71875 17.5 6 17.5H18C18.25 17.5 18.5 17.2812 18.5 17V9C18.5 8.75 18.25 8.5 18 8.5L13.0938 8.5C12.625 8.5 12.1875 8.34375 11.8438 8ZM12.9062 6.9375C12.9688 7 13.0312 7 13.0938 7H18C19.0938 7 20 7.90625 20 9L20 17C20 18.125 19.0938 19 18 19H6C4.875 19 4 18.125 4 17L4 7C4 5.90625 4.875 5 6 5L10.1562 5C10.6875 5 11.1875 5.21875 11.5625 5.59375L12.9062 6.9375ZM12.75 15.75H12.7188C12.7188 16.1875 12.4063 16.5 11.9688 16.5C11.5625 16.5 11.2188 16.1875 11.2188 15.75V12.5625L10.25 13.5312C9.96875 13.8437 9.5 13.8438 9.21875 13.5312C8.90625 13.25 8.90625 12.7812 9.21875 12.4688L11.4688 10.2188C11.75 9.9375 12.2188 9.9375 12.5 10.2187L14.75 12.4687C15.0625 12.7812 15.0625 13.25 14.75 13.5312C14.4688 13.8437 14 13.8437 13.7188 13.5312L12.75 12.5625V15.75Z" fill="#898DA4"/>
</svg>
