<svg width="14" height="16" viewBox="0 0 14 16" fill="none" xmlns="http://www.w3.org/2000/svg">
<path d="M3 4C3 1.79094 4.79063 0 7 0C9.20938 0 11 1.79094 11 4C11 6.20937 9.20938 8 7 8C4.79063 8 3 6.20937 3 4ZM10 4C10 2.34312 8.65625 1 7 1C5.31563 1 4 2.34312 4 4C4 5.65625 5.31563 7 7 7C8.65625 7 10 5.65625 10 4ZM8 9.5C8.275 9.5 8.5 9.725 8.5 10C8.5 10.275 8.275 10.5 8 10.5H7.69375L8.31563 12.3687L9.4875 10.0281C12.0219 10.2906 14 12.4344 14 15.0406C14 15.5687 13.5687 15.9719 13.0406 15.9719H0.96C0.429688 15.9719 0 15.5687 0 15.0406C0 12.4344 1.9775 10.2906 4.5125 10.0281L5.68437 12.3687L6.30625 10.5H5.97188C5.725 10.5 5.47188 10.275 5.47188 10C5.47188 9.725 5.725 9.5 5.97188 9.5H8ZM7 14.9719L7.68437 13.6313L7 11.5813L6.31563 13.6313L7 14.9719ZM12.9719 14.9719C12.9812 13.1625 11.7375 11.6188 10.0437 11.1469L8.11875 14.9719H12.9719ZM5.88125 14.9719L3.95625 11.1469C2.26344 11.6188 1.01812 13.1625 1.00031 14.9719H5.88125Z" fill="#131B4A"/>
</svg>
