<svg width="40" height="40" viewBox="0 0 40 40" fill="none" xmlns="http://www.w3.org/2000/svg">
<path d="M6.5 6C6.5 5.1875 7.125 4.5 8 4.5C8.8125 4.5 9.5 5.1875 9.5 6C9.5 6.875 8.8125 7.5 8 7.5C7.125 7.5 6.5 6.875 6.5 6ZM32.5 14C32.5 13.1875 33.125 12.5 34 12.5C34.8125 12.5 35.5 13.1875 35.5 14C35.5 14.875 34.8125 15.5 34 15.5C33.125 15.5 32.5 14.875 32.5 14ZM34 30.5C34.8125 30.5 35.5 31.1875 35.5 32C35.5 32.875 34.8125 33.5 34 33.5C33.125 33.5 32.5 32.875 32.5 32C32.5 31.1875 33.125 30.5 34 30.5ZM14.75 13.25C14.375 12.875 14.375 12.1875 14.75 11.8125L15.3125 11.3125C16.4375 10.1875 17.125 8.6875 17.3125 7.125L17.5 5.4375C17.5625 4.875 18.0625 4.5 18.5625 4.5625C19.125 4.625 19.5 5.0625 19.4375 5.625L19.25 7.375C19.0625 9.375 18.125 11.25 16.6875 12.75L16.1875 13.25C15.8125 13.625 15.125 13.625 14.75 13.25ZM26.75 23.8125L27.3125 23.3125C28.75 21.875 30.625 20.9375 32.625 20.75L34.375 20.5625C34.9375 20.5 35.4375 20.875 35.5 21.4375C35.5625 21.9375 35.125 22.4375 34.5625 22.5L32.875 22.6875C31.3125 22.875 29.8125 23.5625 28.6875 24.6875L28.1875 25.25C27.8125 25.625 27.1875 25.625 26.75 25.25C26.375 24.8125 26.375 24.1875 26.75 23.8125ZM35.25 4.875C35.5625 5.3125 35.5625 5.9375 35.125 6.3125L34.5 6.8125C33.6875 7.5 32.625 7.875 31.5 7.875C30.1875 7.8125 29.125 8.8125 29 10.125L28.9375 12C28.75 14.4375 26.75 16.25 24.375 16.1875C23.8125 16.1875 23.1875 16.375 22.75 16.75L22.125 17.3125C21.6875 17.625 21.0625 17.625 20.6875 17.1875C20.375 16.75 20.4375 16.125 20.8125 15.75L21.4375 15.25C22.3125 14.5625 23.375 14.1875 24.4375 14.1875C25.75 14.25 26.875 13.1875 26.9375 11.9375L27.0625 10.0625C27.1875 7.625 29.1875 5.8125 31.5625 5.875C32.1875 5.875 32.75 5.6875 33.1875 5.3125L33.8125 4.75C34.25 4.4375 34.875 4.4375 35.25 4.875ZM6 34L10.75 32.25L7.75 29.25L6 34ZM16.5625 30.0625L9.9375 23.4375L8.5625 27.1875C8.5625 27.25 8.625 27.25 8.6875 27.3125L12.6875 31.3125C12.75 31.375 12.75 31.4375 12.8125 31.4375L16.5625 30.0625ZM18.625 29.25L22 28L12 18H11.9375L10.6875 21.375L18.625 29.25ZM10.125 17.3125C10.625 16 12.375 15.5625 13.375 16.625L23.375 26.625C24.4375 27.625 24 29.375 22.6875 29.875L6.6875 35.875C5.125 36.5 3.5 34.875 4.125 33.3125L10.125 17.3125Z" fill="url(#paint0_linear_18250_24227)"/>
<defs>
<linearGradient id="paint0_linear_18250_24227" x1="4" y1="4" x2="41.4088" y2="12.6744" gradientUnits="userSpaceOnUse">
<stop stop-color="#800080"/>
<stop offset="1" stop-color="#FF9933"/>
</linearGradient>
</defs>
</svg>
