<svg width="24" height="24" viewBox="0 0 24 24" fill="none" xmlns="http://www.w3.org/2000/svg">
<path d="M16.6875 8.71875L13.4063 12L16.6875 15.3125C17.0938 15.6875 17.0938 16.3438 16.6875 16.7188C16.3125 17.125 15.6563 17.125 15.2813 16.7188L12 13.4375L8.6875 16.7188C8.3125 17.125 7.65625 17.125 7.28125 16.7188C6.875 16.3438 6.875 15.6875 7.28125 15.3125L10.5625 12L7.28125 8.71875C6.875 8.34375 6.875 7.6875 7.28125 7.3125C7.65625 6.90625 8.3125 6.90625 8.6875 7.3125L12 10.5938L15.2812 7.3125C15.6562 6.90625 16.3125 6.90625 16.6875 7.3125C17.0938 7.6875 17.0938 8.34375 16.6875 8.71875Z" fill="#039855"/>
</svg>
