<svg width="40" height="38" viewBox="0 0 40 38" fill="none" xmlns="http://www.w3.org/2000/svg">
<g filter="url(#filter0_d_1149_1186)">
<path d="M8 10.8943C8 7.94383 8 6.46859 8.78417 5.45514C8.97852 5.20398 9.20398 4.97852 9.45514 4.78417C10.4686 4 11.9438 4 14.8943 4H15.6287C16.1872 4 16.4664 4 16.7334 4.0386C17.3529 4.12818 17.9402 4.37143 18.4416 4.74616C18.6576 4.90763 18.8551 5.10508 19.25 5.5C19.6449 5.89492 19.8424 6.09237 20.0584 6.25384C20.5598 6.62857 21.1471 6.87182 21.7666 6.9614C22.0336 7 22.3128 7 22.8713 7H24.5C28.0355 7 29.8033 7 30.9016 8.09835C32 9.1967 32 10.9645 32 14.5V18.5C32 22.0355 32 23.8033 30.9016 24.9016C29.8033 26 28.0355 26 24.5 26H15.5C11.9645 26 10.1967 26 9.09835 24.9016C8 23.8033 8 22.0355 8 18.5V10.8943Z" fill="url(#paint0_linear_1149_1186)"/>
</g>
<defs>
<filter id="filter0_d_1149_1186" x="0" y="0" width="40" height="38" filterUnits="userSpaceOnUse" color-interpolation-filters="sRGB">
<feFlood flood-opacity="0" result="BackgroundImageFix"/>
<feColorMatrix in="SourceAlpha" type="matrix" values="0 0 0 0 0 0 0 0 0 0 0 0 0 0 0 0 0 0 127 0" result="hardAlpha"/>
<feOffset dy="4"/>
<feGaussianBlur stdDeviation="4"/>
<feComposite in2="hardAlpha" operator="out"/>
<feColorMatrix type="matrix" values="0 0 0 0 0.0745098 0 0 0 0 0.105882 0 0 0 0 0.290196 0 0 0 0.08 0"/>
<feBlend mode="normal" in2="BackgroundImageFix" result="effect1_dropShadow_1149_1186"/>
<feBlend mode="normal" in="SourceGraphic" in2="effect1_dropShadow_1149_1186" result="shape"/>
</filter>
<linearGradient id="paint0_linear_1149_1186" x1="8" y1="4" x2="32" y2="25" gradientUnits="userSpaceOnUse">
<stop stop-color="#C500B9"/>
<stop offset="1" stop-color="#8D0085"/>
</linearGradient>
</defs>
</svg>
