<svg width="14" height="16" viewBox="0 0 14 16" fill="none" xmlns="http://www.w3.org/2000/svg">
<path d="M13.9687 14.7563C13.5656 13.1375 12.1093 12 10.4374 12H3.5343C1.86399 12 0.409303 13.1369 0.00305325 14.7575C-0.12754 15.3875 0.349928 16 1.00055 16H12.9724C13.6499 16 14.1281 15.3875 13.9687 14.7563ZM1.00055 14.9719C1.29493 13.8219 2.34805 13 3.5343 13H10.4093C11.6231 13 12.6762 13.8225 12.9709 15L1.00055 14.9719ZM10.0749 7C10.0749 8.65438 8.72899 10 7.07462 10C5.42024 10 4.07493 8.65312 4.07493 7C4.07493 6.72363 3.85124 6.5 3.57493 6.5C3.29862 6.5 3.07493 6.72363 3.07493 7C3.07493 9.20563 4.86962 11 7.07493 11C9.28055 11 11.0749 9.20563 11.0749 7C11.0749 6.72363 10.8512 6.5 10.5749 6.5C10.2999 6.5 10.0749 6.725 10.0749 7ZM2.51368 5.5H11.5637C11.8413 5.5 12.0665 5.27612 12.0665 5C12.0665 4.72381 11.8414 4.5 11.5637 4.5L11.0609 4.49976C11.0609 4.49957 11.0609 4.49994 11.0609 4.49976C11.0609 2.46538 9.52024 0.799756 7.54212 0.549756V0.5C7.54212 0.223625 7.31727 0 7.0393 0C6.7593 0 6.5343 0.223625 6.5343 0.5V0.550062C4.55587 0.799344 3.01555 2.46537 3.01555 4.50006C3.01555 4.50025 3.01555 4.49988 3.01555 4.50006L2.51368 4.5C2.23587 4.5 2.01087 4.725 2.01087 5C2.01087 5.275 2.23587 5.5 2.51368 5.5ZM7.54055 1.55C8.9643 1.78975 10.0543 3.01656 10.0543 4.49969C10.0543 4.49987 10.0543 4.4995 10.0543 4.49969L7.54055 4.5V1.55ZM4.0218 4.47188C4.0218 2.98875 5.1118 1.76187 6.53555 1.52219V4.5L4.0218 4.47188Z" fill="#131B4A"/>
</svg>
