<?xml version="1.0" encoding="UTF-8" standalone="no"?>
<svg
   width="200"
   height="122"
   viewBox="0 0 200 122"
   fill="none"
   version="1.1"
   id="svg18"
   sodipodi:docname="archive-organization.svg"
   inkscape:version="1.1.1 (3bf5ae0d25, 2021-09-20, custom)"
   xmlns:inkscape="http://www.inkscape.org/namespaces/inkscape"
   xmlns:sodipodi="http://sodipodi.sourceforge.net/DTD/sodipodi-0.dtd"
   xmlns="http://www.w3.org/2000/svg"
   xmlns:svg="http://www.w3.org/2000/svg">
  <defs
     id="defs22" />
  <sodipodi:namedview
     id="namedview20"
     pagecolor="#ffffff"
     bordercolor="#666666"
     borderopacity="1.0"
     inkscape:pageshadow="2"
     inkscape:pageopacity="0.0"
     inkscape:pagecheckerboard="0"
     showgrid="false"
     inkscape:zoom="4.27"
     inkscape:cx="100"
     inkscape:cy="61.007026"
     inkscape:window-width="1920"
     inkscape:window-height="1034"
     inkscape:window-x="1024"
     inkscape:window-y="46"
     inkscape:window-maximized="1"
     inkscape:current-layer="svg18" />
  <rect
     x="43"
     y="106"
     width="113"
     height="10"
     rx="2"
     fill="#5261B7"
     id="rect4" />
  <rect
     width="12"
     height="50"
     rx="2"
     transform="matrix(1 0 0 -1 142 104)"
     fill="#5261B7"
     id="rect6" />
  <rect
     width="12"
     height="50"
     rx="2"
     transform="matrix(1 0 0 -1 94 104)"
     fill="#5261B7"
     id="rect8" />
  <rect
     width="12"
     height="50"
     rx="2"
     transform="matrix(1 0 0 -1 70 104)"
     fill="#5261B7"
     id="rect10" />
  <rect
     width="12"
     height="50"
     rx="2"
     transform="matrix(1 0 0 -1 46 104)"
     fill="#5261B7"
     id="rect12" />
  <rect
     width="12"
     height="50"
     rx="2"
     transform="matrix(1 0 0 -1 118 104)"
     fill="#5261B7"
     id="rect14" />
  <path
     d="M98.4533 14.6429C99.0954 14.2485 99.9046 14.2485 100.547 14.6429L154.524 47.7958C156.243 48.8517 155.495 51.5 153.477 51.5H45.5229C43.5053 51.5 42.757 48.8517 44.4761 47.7958L98.4533 14.6429Z"
     fill="#5261B7"
     id="path16" />
</svg>
