<svg width="24" height="24" viewBox="0 0 24 24" fill="none" xmlns="http://www.w3.org/2000/svg">
<path d="M14.5 8C14.5 7.125 14 6.3125 13.25 5.84375C12.4688 5.40625 11.5 5.40625 10.75 5.84375C9.96875 6.3125 9.5 7.125 9.5 8C9.5 8.90625 9.96875 9.71875 10.75 10.1875C11.5 10.625 12.4688 10.625 13.25 10.1875C14 9.71875 14.5 8.90625 14.5 8ZM8 8C8 6.59375 8.75 5.28125 10 4.5625C11.2188 3.84375 12.75 3.84375 14 4.5625C15.2188 5.28125 16 6.59375 16 8C16 9.4375 15.2188 10.75 14 11.4687C12.75 12.1875 11.2188 12.1875 10 11.4688C8.75 10.75 8 9.4375 8 8ZM6.53125 18.5H17.4375C17.1562 16.5312 15.4688 15 13.4063 15H10.5625C8.5 15 6.8125 16.5312 6.53125 18.5ZM5 19.0938C5 16 7.46875 13.5 10.5625 13.5H13.4063C16.5 13.5 19 16 19 19.0938C19 19.5938 18.5625 20 18.0625 20H5.90625C5.40625 20 5 19.5938 5 19.0938Z" fill="#131B4A"/>
</svg>
