<svg width="24" height="24" viewBox="0 0 24 24" fill="none" xmlns="http://www.w3.org/2000/svg">
<path d="M4.75 9.0899C4.82941 7.48749 5.06699 6.48841 5.7777 5.7777C6.48841 5.06699 7.48749 4.82941 9.0899 4.75M19.25 9.0899C19.1706 7.48749 18.933 6.48841 18.2223 5.7777C17.5116 5.06699 16.5125 4.82941 14.9101 4.75M14.9101 19.25C16.5125 19.1706 17.5116 18.933 18.2223 18.2223C18.933 17.5116 19.1706 16.5125 19.25 14.9101M9.0899 19.25C7.48749 19.1706 6.48841 18.933 5.7777 18.2223C5.06699 17.5116 4.82941 16.5125 4.75 14.9101" stroke="#131B4A" stroke-width="1.5" stroke-linecap="round" stroke-linejoin="round"/>
<path d="M16 16L15.8529 15.3826C15.7314 14.8725 15.3447 14.4673 14.8408 14.3221L13.0909 13.8177L13.0907 12.7504C13.7428 12.3103 14.1816 11.4876 14.1816 10.5455C14.1816 9.13964 13.2047 8 11.9998 8C10.7948 8 9.81793 9.13964 9.81793 10.5455C9.81793 11.4876 10.2567 12.3103 10.9089 12.7504L10.9091 13.8177L9.17007 14.3268C8.6818 14.4698 8.30369 14.8575 8.173 15.3492L8 16" stroke="#131B4A" stroke-width="1.5" stroke-linecap="round" stroke-linejoin="round"/>
</svg>
