<svg width="24" height="24" viewBox="0 0 24 24" fill="none" xmlns="http://www.w3.org/2000/svg">
<path d="M11.9998 14C14.4842 14 16.4998 11.9844 16.4998 9.5C16.4998 8.46094 15.4567 6.3125 13.9998 5C13.5817 5.375 13.2029 5.77344 12.8708 6.17188C12.3248 5.4375 11.6436 4.69531 10.8748 4C8.90201 5.78125 7.49982 8.10313 7.49982 9.5C7.49982 11.9844 9.51545 14 11.9998 14ZM10.8811 5.38688C11.3223 5.83625 11.7248 6.305 12.0726 6.76969L12.8248 7.78125L13.6373 6.8125C13.7467 6.67969 13.8639 6.55078 13.9811 6.42563C14.9373 7.57812 15.4998 8.97813 15.4998 9.5C15.4998 11.4297 13.9295 13 11.9998 13C10.0701 13 8.49982 11.4297 8.49982 9.5C8.49982 8.63438 9.37482 6.94938 10.8811 5.38688ZM19.6717 19.0031L13.4529 16.75L19.6717 14.4697C19.9305 14.374 20.0639 14.0869 19.9686 13.8281C19.8734 13.5684 19.5883 13.4366 19.327 13.5303L11.9998 16.2156L4.67232 13.5031C4.41304 13.4094 4.12607 13.5412 4.03076 13.801C3.93554 14.0598 4.06885 14.3469 4.32763 14.4425L10.5467 16.75L4.32795 19.0303C4.06917 19.126 3.93576 19.4131 4.03107 19.6719C4.10479 19.875 4.2962 20 4.49982 20C4.55695 20 4.61507 19.9902 4.6722 19.9697L11.9998 17.2844L19.3279 19.9712C19.3842 19.9906 19.4436 20 19.4998 20C19.7034 20 19.8948 19.875 19.9692 19.6719C20.0654 19.4125 19.9311 19.125 19.6717 19.0031Z" fill="#B4B4B4"/>
</svg>
