<svg width="14" height="14" viewBox="0 0 14 14" fill="none" xmlns="http://www.w3.org/2000/svg">
<path d="M4 4.75C3.58437 4.75 3.25 4.41563 3.25 4C3.25 3.58437 3.58437 3.25 4 3.25C4.41563 3.25 4.75 3.58437 4.75 4C4.75 4.41563 4.41563 4.75 4 4.75ZM6 4C6 3.725 6.225 3.5 6.5 3.5H10.5C10.775 3.5 11 3.725 11 4C11 4.275 10.775 4.5 10.5 4.5H6.5C6.225 4.5 6 4.275 6 4ZM6 7C6 6.725 6.225 6.5 6.5 6.5H10.5C10.775 6.5 11 6.725 11 7C11 7.275 10.775 7.5 10.5 7.5H6.5C6.225 7.5 6 7.275 6 7ZM6 10C6 9.725 6.225 9.5 6.5 9.5H10.5C10.775 9.5 11 9.725 11 10C11 10.275 10.775 10.5 10.5 10.5H6.5C6.225 10.5 6 10.275 6 10ZM4 6.25C4.41563 6.25 4.75 6.58437 4.75 7C4.75 7.41563 4.41563 7.75 4 7.75C3.58437 7.75 3.25 7.41563 3.25 7C3.25 6.58437 3.58437 6.25 4 6.25ZM4 10.75C3.58437 10.75 3.25 10.4156 3.25 10C3.25 9.58438 3.58437 9.25 4 9.25C4.41563 9.25 4.75 9.58438 4.75 10C4.75 10.4156 4.41563 10.75 4 10.75ZM0 2C0 0.895313 0.895313 0 2 0H12C13.1031 0 14 0.895313 14 2V12C14 13.1031 13.1031 14 12 14H2C0.895313 14 0 13.1031 0 12V2ZM1 2V12C1 12.5531 1.44781 13 2 13H12C12.5531 13 13 12.5531 13 12V2C13 1.44781 12.5531 1 12 1H2C1.44781 1 1 1.44781 1 2Z" fill="#131B4A"/>
</svg>
