<?xml version="1.0" encoding="UTF-8"?><svg id="Layer_1" xmlns="http://www.w3.org/2000/svg" viewBox="0 0 20 20"><path d="M20,13c0,2.21-1.79,4-4,4H4.5c-2.49,0-4.5-2.01-4.5-4.5,0-1.93,1.23-3.62,3.01-4.24,.13-2.93,2.54-5.26,5.49-5.26,1.87,0,3.51,.93,4.5,2.34,.47-.23,.98-.34,1.5-.34,1.93,0,3.5,1.57,3.5,3.5,0,.33-.05,.65-.13,.96,1.33,.7,2.13,2.07,2.13,3.54Zm-1,0c0-1.5-1.09-2.74-2.53-2.96,.33-.42,.53-.96,.53-1.54,0-1.38-1.12-2.5-2.5-2.5-.73,0-1.38,.31-1.83,.8-.67-1.64-2.28-2.8-4.17-2.8-2.48,0-4.5,2.02-4.5,4.5,0,.18,0,.36,.03,.53-1.71,.23-3.03,1.69-3.03,3.47,0,1.93,1.57,3.5,3.5,3.5h11.5c1.66,0,3-1.34,3-3Zm-6.16-2.66c.15,.15,.15,.38,0,.53l-.18,.18c-.15,.15-.38,.15-.53,0l-2.13-2.13v4.71c0,.21-.17,.38-.38,.38h-.25c-.21,0-.38-.17-.38-.38v-4.71l-2.13,2.13c-.15,.15-.38,.15-.53,0l-.18-.18c-.15-.15-.15-.38,0-.53l3.07-3.07c.15-.15,.38-.15,.53,0l3.08,3.07Z"/></svg>