<svg width="20" height="16" viewBox="0 0 20 16" fill="none" xmlns="http://www.w3.org/2000/svg">
<path d="M19.5591 7.31875L18.6801 6.43937C18.3872 6.14647 18.0032 6 17.6194 6C17.2357 6 16.8516 6.1465 16.5588 6.43937L11.0744 11.9237C10.7952 12.203 10.6048 12.5587 10.5276 12.9459L10.0069 15.5506C9.95914 15.7875 10.1435 16 10.3466 16C10.3712 16 10.3962 15.9976 10.4216 15.9925L13.0263 15.4716C13.4134 15.3941 13.7691 15.2039 14.0481 14.9247L19.5325 9.44031C20.1466 8.85313 20.1466 7.90312 19.5591 7.31875ZM13.3685 14.1906C13.2285 14.3306 13.0519 14.4252 12.8576 14.464L11.1716 14.8281L11.5085 13.1428C11.5474 12.9485 11.6419 12.7716 11.7821 12.6316L15.3539 9.05969L16.9402 10.6459L13.3685 14.1906ZM18.8529 8.73438L17.646 9.94125L16.0598 8.355L17.2666 7.14813C17.394 7.02075 17.5428 7.00169 17.6201 7.00169C17.6973 7.00169 17.8462 7.02073 17.9735 7.14813L18.8526 8.0275C18.981 8.15312 18.9998 8.30313 18.9998 8.37813C18.9998 8.45625 18.981 8.60625 18.8529 8.73438ZM6.97163 8C9.18101 8 10.9716 6.20906 10.9716 4C10.9716 1.79094 9.18101 0 6.97163 0C4.79038 0 2.99976 1.79094 2.99976 4C2.99976 6.20906 4.79038 8 6.97163 8ZM6.97163 1C8.62601 1 9.97163 2.34562 9.97163 4C9.97163 5.65406 8.62601 7 6.97163 7C5.31726 7 3.97163 5.65406 3.97163 4C3.97163 2.34562 5.34663 1 6.97163 1ZM8.51538 15H1.08288C1.03757 15 0.99976 14.9625 0.99976 14.9156C0.999447 12.4812 2.98101 10.5 5.41538 10.5H8.58101C9.18007 10.5 9.74445 10.6312 10.2635 10.8522C10.4659 10.9384 10.6729 10.8826 10.8563 10.7271C11.0954 10.488 11.025 10.0759 10.7147 9.94181C10.0341 9.65938 9.34039 9.5 8.58414 9.5H5.41538C2.42288 9.5 -0.00384014 11.925 -0.00024014 14.9187C0.00049111 15.5125 0.488197 16 1.08288 16H8.51726C8.78429 16 9.0007 15.7835 9.0007 15.5166V15.4835C8.97163 15.2156 8.78413 15 8.51538 15Z" fill="#131B4A"/>
</svg>
