<svg width="24" height="24" viewBox="0 0 24 24" fill="none" xmlns="http://www.w3.org/2000/svg">
<path d="M12 6.5C9.9375 6.5 8.28125 7.4375 7 8.625C5.78125 9.75 4.96875 11.0625 4.53125 12C4.96875 12.9375 5.78125 14.2812 7 15.4062C8.28125 16.5938 9.9375 17.5 12 17.5C14.0313 17.5 15.6875 16.5938 16.9688 15.4062C18.1875 14.2812 19.0312 12.9375 19.4375 12C19.0312 11.0625 18.1875 9.75 17 8.625C15.6875 7.4375 14.0312 6.5 12 6.5ZM5.96875 7.53125C7.4375 6.15625 9.46875 5 12 5C14.5 5 16.5312 6.15625 18 7.53125C19.4688 8.90625 20.4375 10.5 20.9062 11.625C21 11.875 21 12.1562 20.9062 12.4062C20.4375 13.5 19.4688 15.125 18 16.5C16.5312 17.875 14.5 19 12 19C9.46875 19 7.4375 17.875 5.96875 16.5C4.5 15.125 3.53125 13.5 3.0625 12.4062C2.96875 12.1562 2.96875 11.875 3.0625 11.625C3.53125 10.5 4.5 8.875 5.96875 7.53125ZM12 14.5C13.375 14.5 14.5 13.4062 14.5 12C14.5 10.625 13.375 9.5 12 9.5C11.9688 9.5 11.9375 9.5 11.9375 9.5C11.9688 9.6875 12 9.84375 12 10C12 11.125 11.0938 12 10 12C9.8125 12 9.65625 12 9.5 11.9375C9.5 11.9688 9.5 12 9.5 12C9.5 13.4062 10.5938 14.5 12 14.5ZM12 8C13.4062 8 14.7188 8.78125 15.4375 10C16.1562 11.25 16.1562 12.7812 15.4375 14C14.7188 15.25 13.4063 16 12 16C10.5625 16 9.25 15.25 8.53125 14C7.8125 12.7812 7.8125 11.25 8.53125 10C9.25 8.78125 10.5625 8 12 8Z" fill="#B8BBC9"/>
</svg>
