<svg width="24" height="24" viewBox="0 0 24 24" fill="none" xmlns="http://www.w3.org/2000/svg">
<path d="M15.5 8.5C15.5 7.25 14.8125 6.125 13.75 5.5C12.6562 4.84375 11.3125 4.84375 10.25 5.5C9.15625 6.125 8.5 7.25 8.5 8.5C8.5 9.78125 9.15625 10.9062 10.25 11.5312C11.3125 12.1875 12.6562 12.1875 13.75 11.5312C14.8125 10.9062 15.5 9.78125 15.5 8.5ZM7.5 8.5C7.5 6.90625 8.34375 5.4375 9.75 4.625C11.125 3.8125 12.8438 3.8125 14.25 4.625C15.625 5.4375 16.5 6.90625 16.5 8.5C16.5 10.125 15.625 11.5938 14.25 12.4062C12.8438 13.2188 11.125 13.2188 9.75 12.4062C8.34375 11.5938 7.5 10.125 7.5 8.5ZM5 19H19C18.9688 16.8125 17.1562 15 14.9375 15H9.03125C6.8125 15 5 16.8125 5 19ZM4 19.0625C4 16.2812 6.25 14 9.03125 14H14.9375C17.7188 14 20 16.2812 20 19.0625C20 19.5938 19.5625 20 19.0312 20H4.9375C4.40625 20 4 19.5938 4 19.0625Z" fill="url(#paint0_linear_659_9199)"/>
<defs>
<linearGradient id="paint0_linear_659_9199" x1="4" y1="4" x2="20" y2="20" gradientUnits="userSpaceOnUse">
<stop stop-color="#8D0085"/>
<stop offset="1" stop-color="#FF9400"/>
</linearGradient>
</defs>
</svg>
