<svg width="24" height="24" viewBox="0 0 24 24" fill="none" xmlns="http://www.w3.org/2000/svg">
<path d="M11.5 15V13.5H10C9.725 13.5 9.5 13.275 9.5 13C9.5 12.725 9.725 12.5 10 12.5H11.5V11C11.5 10.725 11.725 10.5 12 10.5C12.275 10.5 12.5 10.725 12.5 11V12.5H14C14.275 12.5 14.5 12.725 14.5 13C14.5 13.275 14.275 13.5 14 13.5H12.5V15C12.5 15.275 12.275 15.5 12 15.5C11.725 15.5 11.5 15.275 11.5 15Z" fill="#131B4A"/>
<path d="M18 7H12.5L11.0844 5.58594C10.7094 5.21062 10.2031 5 9.67188 5H6C4.89531 5 4 5.89531 4 7V17C4 18.1047 4.89531 19 6 19H18C19.1047 19 20 18.1047 20 17V9C20 7.89687 19.1031 7 18 7ZM19 17C19 17.5513 18.5513 18 18 18H6C5.44875 18 5 17.5513 5 17V7C5 6.44875 5.44875 6 6 6H9.67188C9.93903 6 10.19 6.104 10.3791 6.29297L12.0844 8H18C18.5513 8 19 8.44875 19 9V17Z" fill="#131B4A"/>
</svg>
