<?xml version="1.0" encoding="UTF-8"?><svg id="Layer_1" xmlns="http://www.w3.org/2000/svg" viewBox="0 0 20 20"><path d="M17,5.12V13.5c0,.83-.67,1.5-1.5,1.5h-2.5v1.5c0,.83-.67,1.5-1.5,1.5H4.5c-.83,0-1.5-.67-1.5-1.5V6.5c0-.83,.67-1.5,1.5-1.5h2.5v-1.5c0-.83,.67-1.5,1.5-1.5h5.38c.41,0,.79,.17,1.06,.44l1.62,1.62c.27,.27,.44,.65,.44,1.06Zm-5,9.88h-3.5c-.83,0-1.5-.67-1.5-1.5V6h-2.5c-.28,0-.5,.22-.5,.5v10c0,.28,.22,.5,.5,.5h7c.28,0,.5-.22,.5-.5v-1.5Zm4-9h-2.25c-.41,0-.75-.34-.75-.75V3h-4.5c-.28,0-.5,.22-.5,.5V13.5c0,.28,.22,.5,.5,.5h7c.28,0,.5-.22,.5-.5V6Zm-2-1h1.98c-.02-.09-.07-.17-.13-.23l-1.62-1.62c-.06-.06-.14-.11-.23-.13v1.98Z"/></svg>