<svg width="24" height="24" viewBox="0 0 24 24" fill="none" xmlns="http://www.w3.org/2000/svg">
<path d="M11.0313 18.6562L10.9688 18.5625L5.5 13.5C4.53125 12.5938 4 11.3438 4 10.0312V9.9375C4 7.75 5.5625 5.84375 7.71875 5.4375C8.9375 5.1875 10.1875 5.46875 11.2188 6.1875C11.5 6.375 11.75 6.625 12 6.875C12.125 6.75 12.25 6.59375 12.4062 6.46875C12.5312 6.375 12.6562 6.28125 12.7812 6.1875C13.7812 5.46875 15.0312 5.1875 16.25 5.4375C18.4375 5.84375 20 7.75 20 9.9375V10.0312C20 11.3437 19.4375 12.5937 18.4688 13.5L13 18.5625L12.9375 18.6562C12.6875 18.875 12.3438 19.0312 12 19.0312C11.625 19.0312 11.3125 18.875 11.0313 18.6562ZM11.4688 8.53125C11.4375 8.53125 11.4375 8.53125 11.4375 8.5L10.875 7.875C10.1562 7.0625 9.0625 6.71875 8 6.90625C6.53125 7.1875 5.5 8.46875 5.5 9.9375V10.0312C5.5 10.9375 5.84375 11.7812 6.5 12.375L12 17.4688L17.4688 12.375C18.125 11.7812 18.5 10.9375 18.5 10.0312V9.9375C18.5 8.46875 17.4375 7.1875 15.9688 6.90625C14.9062 6.71875 13.8125 7.0625 13.0938 7.875L12.5312 8.5C12.5312 8.53125 12.5312 8.53125 12.5 8.5625C12.375 8.6875 12.1875 8.78125 12 8.78125C11.7812 8.78125 11.5938 8.6875 11.4688 8.5625V8.53125Z" fill="white"/>
</svg>
