<svg width="24" height="24" viewBox="0 0 24 24" fill="none" xmlns="http://www.w3.org/2000/svg">
<path d="M12.5003 17C12.2253 17 12.0003 17.225 12.0003 17.5V18C12.0003 18.5522 11.5525 19 11.0003 19H6.00031C5.44813 19 5.00031 18.5522 5.00031 18V10C5.00031 9.44781 5.44813 9 6.00031 9H9.50031C9.77531 9 10.0003 8.775 10.0003 8.5C10.0003 8.225 9.77531 8 9.50031 8H6C4.89531 8 4 8.89531 4 10L4.00031 18C4.00031 19.1031 4.89563 20 6.00031 20H11.0003C12.105 20 13.0003 19.1047 13.0003 18V17.5C13.0003 17.225 12.7753 17 12.5003 17ZM19.7066 6.70719L17.2925 4.29313C17.1066 4.10534 16.8503 4 16.5847 4H13.0003C11.8972 4 11.0003 4.89531 11.0003 6V14C11.0003 15.1047 11.8956 16 13.0003 16H18.0003C19.105 16 20.0003 15.1047 20.0003 14V7.41563C20.0003 7.15 19.8941 6.89469 19.7066 6.70719ZM17.0003 5.41406L18.5847 7H17.0003V5.41406ZM19.0003 14C19.0003 14.5522 18.5525 15 18.0003 15H13.0003C12.4481 15 12.0003 14.5522 12.0003 14V6C12.0003 5.44781 12.4481 5 13.0003 5H16.0003L16.0004 7C16.0004 7.55219 16.4482 8 17.0004 8H19.0003V14Z" fill="#131B4A"/>
</svg>
