<svg width="24" height="24" viewBox="0 0 24 24" fill="none" xmlns="http://www.w3.org/2000/svg">
<path d="M6.5 8.25C6.5 7.83437 6.83594 7.5 7.25 7.5C7.66563 7.5 8 7.83437 8 8.25C8 8.66563 7.66563 9 7.25 9C6.83594 9 6.5 8.66563 6.5 8.25ZM10.3781 5C10.775 5 11.1594 5.15813 11.4406 5.43938L16.8344 10.8344C17.6156 11.6156 17.6156 12.8844 16.8344 13.6656L12.6656 17.8344C11.8844 18.6156 10.6156 18.6156 9.83437 17.8344L4.43938 12.4406C4.15803 12.1594 4 11.775 4 11.3781V6.5C4 5.67156 4.67156 5 5.5 5H10.3781ZM5.14656 11.7312L10.5437 17.1281C10.9344 17.5188 11.5656 17.5188 11.9563 17.1281L16.1281 12.9563C16.5188 12.5656 16.5188 11.9344 16.1281 11.5437L10.7312 6.14656C10.6375 6.05281 10.5125 6 10.3781 6H5.5C5.22375 6 5 6.22375 5 6.5V11.3781C5 11.5125 5.05281 11.6375 5.14656 11.7312ZM13.6375 5.15469C13.8281 4.955 14.1469 4.94781 14.3469 5.13844L18.7625 9.35938C20.4094 10.9344 20.4094 13.5656 18.7625 15.1406L14.8687 18.8625C14.6687 19.0531 14.3531 19.0437 14.1625 18.8469C13.9719 18.6469 13.9781 18.3281 14.1781 18.1375L18.0719 14.4187C19.3062 13.2375 19.3062 11.2625 18.0719 10.0813L13.6531 5.86156C13.4563 5.67062 13.4469 5.35438 13.6375 5.15469Z" fill="#131B4A"/>
</svg>
