<svg width="24" height="24" viewBox="0 0 24 24" fill="none" xmlns="http://www.w3.org/2000/svg">
<path d="M14.5 8C14.5 7.65625 14.4062 7.3125 14.2812 7H14.25C13.5938 7 13.0312 6.71875 12.6562 6.25C12.2188 7 11.4062 7.5 10.5 7.5H9.53125C9.5 7.6875 9.5 7.84375 9.5 8V8.5C9.5 9.90625 10.5938 11 12 11C13.375 11 14.5 9.90625 14.5 8.5V8ZM8 8C8 5.8125 9.78125 4 12 4C14.1875 4 16 5.8125 16 8V8.34375C16 9.40625 16.4062 10.4375 17.1562 11.1875L17.2812 11.3125C17.4062 11.4375 17.5 11.625 17.5 11.8125C17.5 12.1875 17.1562 12.5 16.7812 12.5H12L7.1875 12.5C6.8125 12.5 6.5 12.1875 6.5 11.8125C6.5 11.625 6.5625 11.4375 6.6875 11.3125L6.8125 11.1875C7.5625 10.4375 8 9.40625 8 8.34375V8ZM6.5 18.4375H17.4688C17.375 17 16.4375 15.75 15.1563 15.2187L13.5938 17.3125C12.7813 18.375 11.1875 18.375 10.375 17.3125L8.8125 15.2188C7.53125 15.75 6.59375 17 6.5 18.4375ZM9.125 13.5625C9.28125 13.5312 9.46875 13.5938 9.59375 13.75L11.5938 16.4062C11.7813 16.6875 12.1875 16.6875 12.375 16.4062L14.375 13.75C14.5 13.5937 14.6875 13.5312 14.875 13.5625C17.2188 14.0937 19 16.1875 19 18.6875V18.9375C19 19.5 18.5312 19.9375 18 19.9375H6C5.4375 19.9375 5 19.5 5 18.9375V18.6875C5 16.1875 6.75 14.0938 9.125 13.5625Z" fill="#131B4A"/>
</svg>
