<svg width="14" height="16" viewBox="0 0 14 16" fill="none" xmlns="http://www.w3.org/2000/svg">
<path d="M8.58438 9.50002H5.41563C2.42531 9.50002 0 11.925 0 14.9156C0 15.5156 0.485 16 1.08312 16H12.9156C13.5156 16 14 15.5156 14 14.9156C14 11.925 11.575 9.50002 8.58438 9.50002ZM12.9156 15H1.08312C1.0375 15 1 14.9625 1 14.9156C1 12.4813 2.98125 10.5 5.41563 10.5H8.58125C11.0188 10.5 13 12.4813 13 14.9156C13 14.9625 12.9625 15 12.9156 15ZM7 8.50002C9.20594 8.50002 11 6.70564 11 4.50002V0.750016C11 0.378453 10.6088 0.136578 10.2762 0.302828L9 0.940953L7.22375 0.0528281C7.08294 -0.0176094 6.91728 -0.0176094 6.77656 0.0528281L5 0.940953L3.725 0.302797C3.39062 0.136547 3 0.378453 3 0.750016V4.50002C3 6.70627 4.79375 8.50002 7 8.50002ZM4 1.55814L5 2.05814L7 1.05814L9 2.05814L10 1.55814V3.50002H4V1.55814ZM10 4.50002C10 6.15439 8.65438 7.50002 7 7.50002C5.34562 7.50002 4 6.15439 4 4.50002H10Z" fill="#131B4A"/>
</svg>
