<svg width="20" height="16" viewBox="0 0 20 16" fill="none" xmlns="http://www.w3.org/2000/svg">
<path d="M19.5969 11.2125L19.0759 10.9117C19.0916 10.7721 19.0989 10.6373 19.0989 10.5064C19.0989 10.3697 19.0911 10.232 19.0755 10.0905L19.598 9.78872C19.9251 9.59828 20.077 9.20372 19.9592 8.85028C19.7346 8.17341 19.3817 7.56122 18.9095 7.02809C18.6668 6.75563 18.2295 6.69028 17.9164 6.87378L17.3764 7.18531C17.1576 7.02809 16.9258 6.89431 16.6817 6.78406V6.1625C16.6817 5.7875 16.4185 5.45844 16.053 5.38031C15.3498 5.23187 14.6511 5.23187 13.9433 5.38031C13.5801 5.45844 13.3164 5.7875 13.3164 6.1625V6.78375C13.0727 6.89409 12.8405 7.02787 12.622 7.185L12.0839 6.87444C11.7655 6.68887 11.3286 6.75725 11.0873 7.02972C10.6167 7.56097 10.2636 8.17316 10.0395 8.84909C9.92136 9.20347 10.0732 9.59816 10.4014 9.78847L10.923 10.0902C10.9073 10.2318 10.8995 10.3695 10.8995 10.5062C10.8995 10.637 10.9068 10.7718 10.9225 10.9115L10.4031 11.2113C10.0734 11.3997 9.92059 11.7953 10.0393 12.1507C10.2644 12.8275 10.6168 13.4397 11.0853 13.9672C11.3255 14.2436 11.7675 14.3091 12.0822 14.1283L12.6128 13.8217C12.8329 13.9809 13.0684 14.1167 13.3162 14.2289V14.8383C13.3162 15.2133 13.5799 15.5423 13.9456 15.6205C14.2972 15.6947 14.6515 15.7318 14.9993 15.7318C15.3472 15.7318 15.7015 15.6947 16.0553 15.6205C16.4184 15.5423 16.6818 15.2133 16.6818 14.8383V14.2289C16.9298 14.1166 17.1653 13.9808 17.3853 13.8217L17.9147 14.1264C18.2334 14.312 18.6718 14.2426 18.9106 13.9711C19.3818 13.4399 19.7343 12.8277 19.9587 12.1517C20.0781 11.7969 19.9281 11.4 19.5969 11.2125ZM18.0406 9.92188C18.0768 10.1113 18.1002 10.3066 18.1002 10.5069C18.1002 10.7041 18.0763 10.8956 18.0411 11.0831L17.9762 11.4306L18.9552 11.9959C18.7931 12.4266 18.5646 12.8231 18.2737 13.1784L17.2849 12.6091L17.0159 12.8415C16.7215 13.0954 16.3856 13.2909 16.0174 13.4196L15.6831 13.5368V14.6737C15.2246 14.7518 14.774 14.7518 14.3174 14.6737V13.5368L13.9831 13.4196C13.6143 13.2898 13.279 13.0953 12.9849 12.8415L12.7164 12.6081L11.7273 13.1784C11.4368 12.824 11.2083 12.4275 11.0458 11.9959L12.0248 11.4306L11.9599 11.0831C11.9247 10.8956 11.9008 10.7043 11.9008 10.5068C11.9008 10.3067 11.9242 10.1112 11.9603 9.92184L12.0268 9.57309L11.0458 9.00559C11.2079 8.57497 11.4364 8.17841 11.7268 7.82184L12.7224 8.39716L12.9914 8.16669C13.2863 7.91278 13.6198 7.72044 13.9827 7.59356L14.3177 7.47638V6.32812C14.777 6.25 15.2267 6.25 15.6833 6.32812V7.4775L16.0186 7.59372C16.3808 7.72066 16.7148 7.91309 17.0098 8.16684L17.2789 8.39731L18.2745 7.822C18.565 8.17856 18.7929 8.57481 18.9554 9.00575L17.9745 9.57325L18.0406 9.92188ZM15 8.75C14.0353 8.75 13.2781 9.535 13.2781 10.5C13.2781 11.465 14.0631 12.25 15 12.25C15.9369 12.25 16.7219 11.465 16.7219 10.5C16.7219 9.535 15.9656 8.75 15 8.75ZM15 11.25C14.5866 11.25 14.25 10.9131 14.25 10.5C14.25 10.0869 14.5866 9.75 15 9.75C15.4134 9.75 15.7219 10.0869 15.7219 10.5C15.7219 10.9131 15.4125 11.25 15 11.25ZM11.5 15H1.08313C1.03782 15 1 14.9625 1 14.9156C0.999692 12.4812 2.98125 10.5 5.41563 10.5H8.5C8.775 10.5 9 10.275 9 10C9 9.72381 8.77647 9.5 8.50032 9.5H5.41563C2.42313 9.5 -0.003596 11.925 4.00022e-06 14.9187C0.00073525 15.5125 0.488442 16 1.08313 16H11.5C11.7761 16 12 15.7761 12 15.5C12 15.225 11.775 15 11.5 15ZM7 8C9.20938 8 11 6.20906 11 4C11 1.79094 9.20938 0 7 0C4.79063 0 3 1.79094 3 4C3 6.20906 4.79063 8 7 8ZM7 1C8.65438 1 10 2.34562 10 4C10 5.65406 8.65438 7 7 7C5.34563 7 4 5.65312 4 4C4 2.34562 5.34688 1 7 1Z" fill="#131B4A"/>
</svg>
