<svg width="24" height="24" viewBox="0 0 24 24" fill="none" xmlns="http://www.w3.org/2000/svg">
<path d="M18.5 17.25L18.5 14C18.5 13.3125 17.9687 12.75 17.25 12.75L6.5625 12.7812L9.28125 15.5C9.59375 15.7812 9.59375 16.25 9.28125 16.5312C9 16.8437 8.53125 16.8437 8.21875 16.5312L4.21875 12.5312C3.9375 12.25 3.9375 11.7813 4.21875 11.4687L8.21875 7.5C8.53125 7.1875 9 7.1875 9.28125 7.5C9.59375 7.78125 9.59375 8.25 9.28125 8.53125L6.5625 11.25L17.25 11.25C18.7812 11.25 20 12.5 20 14L20 17.25C20 17.6875 19.6875 18 19.25 18C18.8437 18 18.5 17.6875 18.5 17.25Z" fill="white"/>
</svg>
