<svg width="25" height="24" viewBox="0 0 25 24" fill="none" xmlns="http://www.w3.org/2000/svg">
<path d="M9.5 4C9.90625 4 10.25 4.34375 10.25 4.75V6L14.75 6V4.75C14.75 4.34375 15.0625 4 15.5 4C15.9062 4 16.25 4.34375 16.25 4.75V6H17.5C18.5938 6 19.5 6.90625 19.5 8V8.5V10V18C19.5 19.125 18.5938 20 17.5 20H7.5C6.375 20 5.5 19.125 5.5 18L5.5 10V8.5V8C5.5 6.90625 6.375 6 7.5 6L8.75 6V4.75C8.75 4.34375 9.0625 4 9.5 4ZM18 10L7 10L7 18C7 18.2812 7.21875 18.5 7.5 18.5H17.5C17.75 18.5 18 18.2812 18 18V10ZM12.7813 11.5938L13.5 13.0937L15.1563 13.3437C15.4375 13.375 15.5313 13.7187 15.3438 13.9062L14.1563 15.0625L14.4375 16.6875C14.4688 16.9688 14.1875 17.1562 13.9688 17.0312L12.5 16.25L11 17.0312C10.7813 17.1562 10.5 16.9688 10.5313 16.6875L10.8125 15.0625L9.625 13.9062C9.4375 13.7188 9.53125 13.375 9.8125 13.3438L11.4688 13.0937L12.1875 11.5938C12.3125 11.375 12.6563 11.375 12.7813 11.5938Z" fill="#131B4A"/>
</svg>
