<svg width="24" height="24" viewBox="0 0 24 24" fill="none" xmlns="http://www.w3.org/2000/svg">
<path d="M12 20C9.125 20 6.5 18.5 5.0625 16C3.625 13.5312 3.625 10.5 5.0625 8C6.5 5.53125 9.125 4 12 4C14.8438 4 17.4688 5.53125 18.9062 8C20.3438 10.5 20.3438 13.5312 18.9062 16C17.4688 18.5 14.8438 20 12 20ZM15.5313 10.5312H15.5C15.8125 10.25 15.8125 9.78125 15.5 9.46875C15.2188 9.1875 14.75 9.1875 14.4688 9.46875L11 12.9687L9.53125 11.5C9.21875 11.1875 8.75 11.1875 8.46875 11.5C8.15625 11.7812 8.15625 12.25 8.46875 12.5312L10.4688 14.5312C10.75 14.8437 11.2188 14.8437 11.5313 14.5312L15.5313 10.5312Z" fill="#12B76A"/>
</svg>
