<svg width="24" height="24" viewBox="0 0 24 24" fill="none" xmlns="http://www.w3.org/2000/svg">
<path d="M10.5312 5H13.4375C13.5938 5 13.75 5.09375 13.8438 5.25L14.3438 6H9.625L10.125 5.25C10.2188 5.09375 10.375 5 10.5312 5ZM15.5 6L14.7188 4.71875C14.4375 4.28125 13.9375 4 13.4375 4H10.5312C10.0312 4 9.53125 4.28125 9.28125 4.71875L8.46875 6H7H6H5.5C5.21875 6 5 6.25 5 6.5C5 6.78125 5.21875 7 5.5 7H6.0625L6.84375 18.1562C6.9375 19.2188 7.8125 20 8.84375 20H15.125C16.1875 20 17.0312 19.2188 17.125 18.1562L17.9062 7H18.5C18.75 7 19 6.78125 19 6.5C19 6.25 18.75 6 18.5 6H18H16.9688H15.5ZM16.9062 7L16.125 18.0938C16.0938 18.5938 15.6562 19 15.125 19H8.84375C8.3125 19 7.875 18.5938 7.84375 18.0938L7.0625 7H16.9062Z" fill="#F04438"/>
</svg>
