<svg width="24" height="24" viewBox="0 0 24 24" fill="none" xmlns="http://www.w3.org/2000/svg">
<path d="M6 8C5.4375 8 4.96875 7.71875 4.6875 7.25C4.40625 6.8125 4.40625 6.21875 4.6875 5.75C4.96875 5.3125 5.4375 5 6 5C6.53125 5 7 5.3125 7.28125 5.75C7.5625 6.21875 7.5625 6.8125 7.28125 7.25C7 7.71875 6.53125 8 6 8ZM5.5 9H6.5C7.25 9 7.9375 9.25 8.5 9.65625C8.125 9.96875 7.8125 10.375 7.5625 10.8125C7.25 10.625 6.875 10.5 6.5 10.5H5.5L5.5 14.5V16V16.5H6.5V16C6.5 15.5938 6.8125 15.25 7.25 15.25C7.65625 15.25 8 15.5938 8 16V17C8 17.5625 7.53125 18 7 18H5C4.4375 18 4 17.5625 4 17V15.6875C2.8125 15.125 2 13.9062 2 12.5C2 10.5938 3.5625 9 5.5 9ZM4 11.1875C3.6875 11.5312 3.5 12 3.5 12.5C3.5 13.0312 3.6875 13.5 4 13.8438L4 11.1875ZM17.5 10.5C17.0938 10.5 16.7188 10.625 16.4062 10.8125C16.1562 10.375 15.8438 9.96875 15.4688 9.65625C16.0312 9.25 16.75 9 17.5 9L18.5 9C20.4062 9 22 10.5937 22 12.5C22 13.9062 21.1563 15.125 20 15.6875V17C20 17.5625 19.5312 18 19 18H17C16.4375 18 16 17.5625 16 17V16C16 15.5937 16.3125 15.25 16.75 15.25C17.1562 15.25 17.5 15.5937 17.5 16V16.5H18.5V16V14.5V10.5L17.5 10.5ZM20.5 12.5C20.5 12 20.3125 11.5312 20 11.1875V13.8437C20.3125 13.5 20.5 13.0312 20.5 12.5ZM19.5 6.5C19.5 7.0625 19.1875 7.53125 18.75 7.8125C18.2812 8.09375 17.6875 8.09375 17.25 7.8125C16.7812 7.53125 16.5 7.0625 16.5 6.5C16.5 5.96875 16.7812 5.5 17.25 5.21875C17.6875 4.9375 18.2812 4.9375 18.75 5.21875C19.1875 5.5 19.5 5.96875 19.5 6.5ZM12 8.5C11.3438 8.5 10.7812 8.1875 10.4688 7.625C10.1562 7.09375 10.1562 6.4375 10.4688 5.875C10.7812 5.34375 11.3438 5 12 5C12.625 5 13.1875 5.34375 13.5 5.875C13.8125 6.4375 13.8125 7.09375 13.5 7.625C13.1875 8.1875 12.625 8.5 12 8.5ZM11.5 9.5L12.5 9.5C14.4062 9.5 16 11.0937 16 13C16 14.4062 15.1563 15.625 14 16.1875V18C14 18.5625 13.5313 19 13 19H11C10.4375 19 10 18.5625 10 18L10 16.1875C8.8125 15.625 8 14.4062 8 13C8 11.0938 9.5625 9.5 11.5 9.5ZM11.5 16.5V17.5H12.5V16.5V15V11L11.5 11L11.5 15V16.5ZM10 14.3437L10 11.6875C9.6875 12.0312 9.5 12.5 9.5 13C9.5 13.5312 9.6875 13.9687 10 14.3437ZM14 14.3437C14.3125 14 14.5 13.5312 14.5 13C14.5 12.5 14.3125 12.0312 14 11.6875V14.3437Z" fill="#131B4A"/>
</svg>
