<svg width="24" height="24" viewBox="0 0 24 24" fill="none" xmlns="http://www.w3.org/2000/svg">
<path d="M14.5 6.59375L14.4688 6.3125C14.375 5.65625 13.8438 5.15625 13.1875 5.0625L12.9062 5C12.6562 4.96875 12.4688 4.71875 12.5 4.4375C12.5312 4.1875 12.7812 3.96875 13.0625 4.03125L13.3125 4.0625C14.4375 4.21875 15.2812 5.09375 15.4375 6.1875L15.4688 6.4375C15.5312 6.71875 15.3438 6.96875 15.0625 7C14.7812 7.0625 14.5312 6.875 14.5 6.59375ZM6.5 6.15625C7.03125 5.59375 7.84375 5.4375 8.5625 5.6875C8.65625 5.46875 8.78125 5.28125 8.96875 5.09375C9.75 4.3125 11 4.3125 11.7812 5.09375L15.5 8.78125V8.625C15.5 7.53125 16.375 6.625 17.5 6.625C18.5938 6.625 19.5 7.53125 19.5 8.625V13.5625C19.5 13.625 19.5 13.6562 19.4688 13.7187L19.5 13.75C19.5 17.1875 16.7188 20 13.2813 20H13.25H13.0313C11.375 20 9.78125 19.3438 8.625 18.1875L5.0625 14.6562C4.28125 13.875 4.28125 12.5938 5.0625 11.8125C5.1875 11.6875 5.3125 11.5938 5.46875 11.5L5.4375 11.4688C4.65625 10.6875 4.65625 9.40625 5.4375 8.625C5.59375 8.46875 5.78125 8.3125 6 8.21875C5.78125 7.53125 5.9375 6.71875 6.5 6.15625ZM8.96875 7.9375L8.25 7.21875C8.0625 7.03125 7.75 7.03125 7.5625 7.21875C7.34375 7.40625 7.34375 7.75 7.5625 7.9375L8.25 8.625L11.25 11.625C11.5625 11.9375 11.5625 12.4062 11.25 12.6875C10.9688 13 10.5 13 10.1875 12.6875L7.1875 9.6875C7 9.5 6.6875 9.5 6.5 9.6875C6.28125 9.875 6.28125 10.2188 6.5 10.4062L7.71875 11.625V11.6562L9.5 13.4062C9.78125 13.7187 9.78125 14.1875 9.5 14.4688C9.1875 14.75 8.71875 14.75 8.4375 14.4688L6.84375 12.875C6.65625 12.6875 6.3125 12.6875 6.125 12.875C5.9375 13.0625 5.9375 13.375 6.125 13.5938L9.65625 17.125C10.5625 18 11.7813 18.5 13.0313 18.5H13.25C15.8438 18.5 17.9375 16.4062 17.9688 13.8437C17.9688 13.8125 17.9688 13.7812 17.9688 13.75C17.9688 13.6875 17.9688 13.625 17.9688 13.5625V8.625C17.9688 8.375 17.75 8.125 17.4688 8.125C17.2188 8.125 16.9688 8.375 16.9688 8.625V10.5937C16.9688 10.9062 16.8125 11.1875 16.5312 11.3125C16.25 11.4062 15.9063 11.3437 15.6875 11.125L10.7188 6.15625C10.5312 5.96875 10.2188 5.96875 10.0312 6.15625C9.84375 6.34375 9.84375 6.65625 10.0312 6.875L13.0313 9.875C13.3125 10.1562 13.3125 10.6562 13.0313 10.9375C12.7188 11.2187 12.25 11.2188 11.9688 10.9375L8.96875 7.9375ZM4.40625 15.5312C4.6875 15.4688 4.9375 15.6562 4.96875 15.9375L5.03125 16.2188C5.125 16.875 5.625 17.375 6.28125 17.4688L6.5625 17.5312C6.8125 17.5625 7.03125 17.8125 6.96875 18.0938C6.9375 18.3438 6.6875 18.5625 6.40625 18.5L6.15625 18.4688C5.0625 18.3125 4.1875 17.4375 4.03125 16.3438L4 16.0938C3.96875 15.8125 4.15625 15.5625 4.40625 15.5312Z" fill="#131B4A"/>
</svg>
