<svg width="24" height="24" viewBox="0 0 24 24" fill="none" xmlns="http://www.w3.org/2000/svg">
<path d="M18 7H12.5L11.0844 5.58594C10.7094 5.21062 10.2031 5 9.67188 5H6C4.89531 5 4 5.89531 4 7V17C4 18.1047 4.89531 19 6 19H18C19.1047 19 20 18.1047 20 17V9C20 7.89687 19.1031 7 18 7ZM19 17C19 17.5513 18.5513 18 18 18H6C5.44875 18 5 17.5513 5 17V7C5 6.44875 5.44875 6 6 6H9.67188C9.93903 6 10.19 6.104 10.3791 6.29297L12.0844 8H18C18.5513 8 19 8.44875 19 9V17Z" fill="#131B4A"/>
<path d="M14.853 13.3531C15.0483 13.1578 15.0483 12.8412 14.853 12.6462L12.353 10.1462C12.1577 9.95093 11.8412 9.95093 11.6462 10.1462C11.4512 10.3416 11.4508 10.6581 11.6462 10.8531L13.2937 12.5L9.4999 12.5C9.22353 12.5 8.9999 12.7236 8.9999 13C8.9999 13.2764 9.22353 13.5 9.4999 13.5L13.2937 13.5L11.6471 15.1466C11.5499 15.2437 11.4999 15.3719 11.4999 15.5C11.4999 15.6281 11.5487 15.7559 11.6464 15.8534C11.8417 16.0487 12.1583 16.0487 12.3533 15.8534L14.853 13.3531Z" fill="#131B4A"/>
</svg>
