<svg width="25" height="24" viewBox="0 0 25 24" fill="none" xmlns="http://www.w3.org/2000/svg">
<path d="M5.71875 12.5625C5.5625 12.4062 5.5 12.2188 5.5 12C5.5 11.8125 5.5625 11.625 5.71875 11.4688L11.2188 6.21875C11.5312 5.9375 12 5.9375 12.2812 6.25C12.5625 6.53125 12.5625 7.03125 12.25 7.3125L8.09375 11.25L18.75 11.25C19.1562 11.25 19.5 11.5938 19.5 12C19.5 12.4375 19.1562 12.75 18.75 12.75L8.09375 12.75L12.25 16.7188C12.5625 17 12.5625 17.4688 12.2812 17.7812C12 18.0938 11.5312 18.0938 11.2187 17.8125L5.71875 12.5625Z" fill="white"/>
</svg>
