<svg width="24" height="24" viewBox="0 0 24 24" fill="none" xmlns="http://www.w3.org/2000/svg">
<path d="M12 5C14.5 5 16.7812 6.34375 18.0312 8.5C19.3125 10.6875 19.3125 13.3438 18.0312 15.5C16.7812 17.6875 14.5 19 12 19C9.46875 19 7.1875 17.6875 5.9375 15.5C4.65625 13.3438 4.65625 10.6875 5.9375 8.5C7.1875 6.34375 9.46875 5 12 5ZM12 20C14.8438 20 17.4688 18.5 18.9062 16C20.3438 13.5312 20.3438 10.5 18.9062 8C17.4688 5.53125 14.8438 4 12 4C9.125 4 6.5 5.53125 5.0625 8C3.625 10.5 3.625 13.5312 5.0625 16C6.5 18.5 9.125 20 12 20ZM12 8C11.7188 8 11.5 8.25 11.5 8.5V12.5C11.5 12.7812 11.7188 13 12 13C12.25 13 12.5 12.7812 12.5 12.5V8.5C12.5 8.25 12.25 8 12 8ZM12.75 15C12.75 14.5938 12.4062 14.25 12 14.25C11.5625 14.25 11.25 14.5938 11.25 15C11.25 15.4375 11.5625 15.75 12 15.75C12.4062 15.75 12.75 15.4375 12.75 15Z" fill="#F04438"/>
</svg>
