<svg width="24" height="24" viewBox="0 0 24 24" fill="none" xmlns="http://www.w3.org/2000/svg">
<path d="M12 20C9.125 20 6.5 18.5 5.0625 16C3.625 13.5312 3.625 10.5 5.0625 8C6.5 5.53125 9.125 4 12 4C14.8438 4 17.4688 5.53125 18.9062 8C20.3438 10.5 20.3438 13.5312 18.9062 16C17.4688 18.5 14.8438 20 12 20ZM12 8C11.5625 8 11.25 8.34375 11.25 8.75V12.25C11.25 12.6875 11.5625 13 12 13C12.4063 13 12.75 12.6875 12.75 12.25L12.75 8.75C12.75 8.34375 12.4062 8 12 8ZM11 15C11 15.5625 11.4375 16 12 16C12.5313 16 13 15.5625 13 15C13 14.4687 12.5313 14 12 14C11.4375 14 11 14.4687 11 15Z" fill="#F04438"/>
</svg>
