<svg width="24" height="24" viewBox="0 0 24 24" fill="none" xmlns="http://www.w3.org/2000/svg">
<path d="M12 18.5C12.2188 18.5 12.8438 18.2812 13.4688 17C13.75 16.4375 14 15.7812 14.1563 15H9.8125C10 15.7812 10.2188 16.4375 10.5 17C11.1563 18.2812 11.75 18.5 12 18.5ZM9.5625 13.5H14.4063C14.4688 13.0312 14.5 12.5312 14.5 12C14.5 11.5 14.4688 11 14.4063 10.5L9.5625 10.5C9.5 11 9.5 11.5 9.5 12C9.5 12.5312 9.5 13.0312 9.5625 13.5ZM9.8125 9L14.1562 9C14 8.25 13.75 7.59375 13.4688 7.03125C12.8438 5.75 12.2188 5.5 12 5.5C11.75 5.5 11.1562 5.75 10.5 7.03125C10.2188 7.59375 10 8.25 9.8125 9ZM15.9063 10.5C15.9688 11 15.9688 11.5 15.9688 12C15.9688 12.5312 15.9688 13.0312 15.9063 13.5H18.3125C18.4375 13.0312 18.5 12.5312 18.5 12C18.5 11.5 18.4375 11 18.3125 10.5L15.9063 10.5ZM17.75 9C17.0938 7.71875 16 6.6875 14.6875 6.09375C15.125 6.90625 15.4688 7.90625 15.6875 9H17.75ZM8.28125 9C8.5 7.90625 8.84375 6.90625 9.28125 6.09375C7.96875 6.6875 6.875 7.71875 6.21875 9H8.28125ZM5.65625 10.5C5.5625 11 5.5 11.5 5.5 12C5.5 12.5312 5.53125 13.0312 5.65625 13.5H8.0625C8 13.0312 8 12.5312 8 12C8 11.5 8 11 8.0625 10.5H5.65625ZM14.6875 17.9375C16 17.3438 17.0938 16.3125 17.75 15H15.6875C15.4688 16.125 15.125 17.125 14.6875 17.9375ZM9.28125 17.9375C8.84375 17.125 8.5 16.125 8.28125 15H6.21875C6.875 16.3125 7.96875 17.3438 9.28125 17.9375ZM12 20C9.125 20 6.5 18.5 5.0625 16C3.625 13.5312 3.625 10.5 5.0625 8C6.5 5.53125 9.125 4 12 4C14.8438 4 17.4688 5.53125 18.9062 8C20.3438 10.5 20.3438 13.5312 18.9062 16C17.4688 18.5 14.8438 20 12 20Z" fill="#131B4A"/>
</svg>
