<svg width="14" height="16" viewBox="0 0 14 16" fill="none" xmlns="http://www.w3.org/2000/svg">
<path d="M3 4C3 1.79094 4.79063 0 7 0C9.20938 0 11 1.79094 11 4V4.5C11 6.70937 9.20938 8.5 7 8.5C4.79063 8.5 3 6.70937 3 4.5V4ZM9.95938 3.5H9.01875C8.55313 3.5 8.10938 3.31562 7.75313 2.9875L7.58437 2.79156C6.98125 3.54688 6.03438 4 5.07188 4H4V4.5C4 6.15625 5.31563 7.5 7 7.5C8.65625 7.5 10 6.15625 10 4.5V4C10 3.82812 9.98438 3.6625 9.95938 3.5ZM9.6 2.5C9.08125 1.60344 8.10938 1 7 1C5.69375 1 4.58125 1.83469 4.17188 3H5.07188C5.90938 3 6.67188 2.53031 7.04688 1.78594C7.07188 1.73531 7.10625 1.68813 7.14687 1.64656C7.34062 1.45125 7.65938 1.45125 7.85313 1.64656L8.4875 2.28031C8.62813 2.42094 8.81875 2.5 9.01875 2.5H9.6ZM0 15.1125C0 12.2875 2.28844 10 5.1125 10H8.8875C11.7125 10 14 12.2875 14 15.1125C14 15.6031 13.6031 16 13.1125 16H0.88875C0.398125 16 0 15.6031 0 15.1125ZM12.9719 15C12.9406 12.7531 11.1219 11 8.8875 11H5.1125C2.87781 11 1.06031 12.7531 1.00156 15H12.9719Z" fill="#131B4A"/>
</svg>
