<svg width="33" height="32" viewBox="0 0 33 32" fill="none" xmlns="http://www.w3.org/2000/svg">
<mask id="path-2-outside-1_10242_3321" maskUnits="userSpaceOnUse" x="0" y="0" width="33" height="32" fill="black">
<rect fill="white" width="33" height="32"/>
<path d="M17 24C14.125 24 11.5 22.5 10.0625 20C8.625 17.5312 8.625 14.5 10.0625 12C11.5 9.53125 14.125 8 17 8C19.8438 8 22.4688 9.53125 23.9062 12C25.3438 14.5 25.3438 17.5312 23.9062 20C22.4688 22.5 19.8438 24 17 24ZM20.5312 14.5312H20.5C20.8125 14.25 20.8125 13.7812 20.5 13.4687C20.2188 13.1875 19.75 13.1875 19.4688 13.4687L16 16.9688L14.5312 15.5C14.2188 15.1875 13.75 15.1875 13.4688 15.5C13.1562 15.7812 13.1562 16.25 13.4688 16.5312L15.4688 18.5312C15.75 18.8438 16.2188 18.8438 16.5312 18.5312L20.5312 14.5312Z"/>
</mask>
<path d="M17 24C14.125 24 11.5 22.5 10.0625 20C8.625 17.5312 8.625 14.5 10.0625 12C11.5 9.53125 14.125 8 17 8C19.8438 8 22.4688 9.53125 23.9062 12C25.3438 14.5 25.3438 17.5312 23.9062 20C22.4688 22.5 19.8438 24 17 24ZM20.5312 14.5312H20.5C20.8125 14.25 20.8125 13.7812 20.5 13.4687C20.2188 13.1875 19.75 13.1875 19.4688 13.4687L16 16.9688L14.5312 15.5C14.2188 15.1875 13.75 15.1875 13.4688 15.5C13.1562 15.7812 13.1562 16.25 13.4688 16.5312L15.4688 18.5312C15.75 18.8438 16.2188 18.8438 16.5312 18.5312L20.5312 14.5312Z" fill="#12B76A"/>
<path d="M10.0625 20L16.9978 16.0122C16.9905 15.9996 16.9832 15.987 16.9759 15.9745L10.0625 20ZM10.0625 12L3.1491 7.97447C3.14178 7.98704 3.1345 7.99963 3.12725 8.01223L10.0625 12ZM23.9062 12L30.8415 8.01223C30.8343 7.99963 30.827 7.98704 30.8197 7.97447L23.9062 12ZM23.9062 20L16.9928 15.9745C16.9855 15.987 16.9782 15.9996 16.971 16.0122L23.9062 20ZM20.5312 14.5312L26.1881 20.1881C28.4761 17.9001 29.1605 14.4592 27.9223 11.4698C26.684 8.48039 23.7669 6.53125 20.5312 6.53125V14.5312ZM20.5 14.5312L15.1483 8.5849C12.6862 10.8008 11.8443 14.3048 13.031 17.3974C14.2178 20.4899 17.1876 22.5312 20.5 22.5312V14.5312ZM19.4688 13.4687L13.8119 7.8119C13.8034 7.82035 13.795 7.82883 13.7866 7.83732L19.4688 13.4687ZM16 16.9688L10.3431 22.6256C11.8478 24.1303 13.89 24.9735 16.0179 24.9687C18.1459 24.964 20.1842 24.1116 21.6822 22.6002L16 16.9688ZM13.4688 15.5L18.8205 21.4464C19.029 21.2587 19.2275 21.0602 19.4151 20.8517L13.4688 15.5ZM13.4688 16.5312L19.1256 10.8744C19.0264 10.7752 18.9247 10.6787 18.8205 10.5849L13.4688 16.5312ZM15.4688 18.5312L21.4151 13.1795C21.3213 13.0753 21.2248 12.9736 21.1256 12.8744L15.4688 18.5312ZM17 16C16.9886 16 16.9809 15.9993 16.9764 15.9987C16.9719 15.9981 16.9696 15.9975 16.9694 15.9974C16.9692 15.9974 16.9737 15.9986 16.9808 16.0027C16.988 16.0069 16.9948 16.0121 16.9999 16.0172C17.0022 16.0196 17.0033 16.021 17.0033 16.0209C17.0032 16.0209 17.0012 16.0183 16.9978 16.0122L3.12725 23.9878C6.00743 28.9968 11.293 32 17 32L17 16ZM16.9759 15.9745C16.9754 15.9737 16.9762 15.9749 16.9775 15.9779C16.9787 15.9809 16.98 15.9846 16.9812 15.989C16.9836 15.9979 16.9844 16.0058 16.9844 16.0117C16.9844 16.0176 16.9836 16.0196 16.9842 16.0174C16.9845 16.0162 16.9853 16.0134 16.9872 16.0088C16.989 16.0043 16.9923 15.9973 16.9978 15.9878L3.12725 8.01223C0.279103 12.9655 0.253781 19.0531 3.1491 24.0255L16.9759 15.9745ZM16.9759 16.0255C16.983 16.0134 16.9885 16.0073 16.9914 16.0044C16.9948 16.0011 16.9971 15.9996 16.9978 15.9992C16.9984 15.9988 16.9976 15.9994 16.9955 15.9999C16.9946 16.0002 16.994 16.0003 16.9941 16.0003C16.9941 16.0003 16.9959 16 17 16V0C11.2448 0 6.003 3.0732 3.1491 7.97447L16.9759 16.0255ZM17 16C16.9963 16 16.9916 15.9997 16.9866 15.9991C16.9817 15.9984 16.9773 15.9975 16.9736 15.9965C16.9664 15.9945 16.9638 15.9928 16.965 15.9935C16.9663 15.9942 16.9701 15.9967 16.975 16.0016C16.9795 16.006 16.9857 16.0133 16.9928 16.0255L30.8197 7.97447C27.9746 3.08839 22.7413 0 17 0V16ZM16.971 15.9878C16.9765 15.9973 16.9797 16.0043 16.9816 16.0088C16.9834 16.0134 16.9843 16.0162 16.9846 16.0174C16.9852 16.0196 16.9844 16.0176 16.9844 16.0117C16.9844 16.0058 16.9852 15.9979 16.9876 15.989C16.9887 15.9846 16.9901 15.9809 16.9913 15.9779C16.9926 15.9749 16.9933 15.9737 16.9928 15.9745L30.8197 24.0255C33.715 19.0531 33.6896 12.9655 30.8415 8.01223L16.971 15.9878ZM16.971 16.0122C16.9675 16.0183 16.9653 16.0212 16.9649 16.0218C16.9644 16.0224 16.9649 16.0217 16.9666 16.02C16.9701 16.0165 16.9754 16.0122 16.982 16.0084C16.9886 16.0046 16.9948 16.0022 16.9999 16.0008C17.0055 15.9993 17.0064 16 17 16L17 32C22.6933 32 27.97 28.9817 30.8415 23.9878L16.971 16.0122ZM20.5312 6.53125H20.5V22.5312H20.5312V6.53125ZM25.8517 20.4776C29.8701 16.861 29.4187 11.0737 26.1569 7.8119L14.8431 19.1256C12.2063 16.4888 11.7549 11.639 15.1483 8.5849L25.8517 20.4776ZM26.1569 7.8119C22.7514 4.40645 17.2173 4.40645 13.8119 7.8119L25.1256 19.1256C22.2827 21.9685 17.6861 21.9685 14.8431 19.1256L26.1569 7.8119ZM13.7866 7.83732L10.3178 11.3373L21.6822 22.6002L25.1509 19.1002L13.7866 7.83732ZM21.6569 11.3119L20.1881 9.84315L8.8744 21.1569L10.3431 22.6256L21.6569 11.3119ZM20.1881 9.84315C16.9263 6.58132 11.139 6.12987 7.5224 10.1483L19.4151 20.8517C16.361 24.2451 11.5112 23.7937 8.8744 21.1569L20.1881 9.84315ZM8.11703 9.55365C4.27349 13.0128 4.27349 19.0184 8.11703 22.4776L18.8205 10.5849C22.039 13.4816 22.039 18.5497 18.8205 21.4464L8.11703 9.55365ZM7.8119 22.1881L9.8119 24.1881L21.1256 12.8744L19.1256 10.8744L7.8119 22.1881ZM9.5224 23.883C13.139 27.9014 18.9263 27.4499 22.1881 24.1881L10.8744 12.8744C13.5112 10.2376 18.361 9.78612 21.4151 13.1795L9.5224 23.883ZM22.1881 24.1881L26.1881 20.1881L14.8744 8.8744L10.8744 12.8744L22.1881 24.1881Z" fill="#D1FADF" mask="url(#path-2-outside-1_10242_3321)"/>
</svg>
