<?xml version="1.0" encoding="UTF-8"?><svg id="Layer_1" xmlns="http://www.w3.org/2000/svg" viewBox="0 0 20 20"><path d="M8.09,2.98c.27,0,.52,.11,.71,.29l1.71,1.71h6c.83,0,1.5,.67,1.5,1.5V15.52c0,.83-.67,1.5-1.5,1.5H3.5c-.83,0-1.5-.67-1.5-1.5V4.48c0-.83,.67-1.5,1.5-1.5h4.59ZM3.5,3.98c-.28,0-.5,.22-.5,.5V15.52c0,.28,.22,.5,.5,.5h13c.28,0,.5-.22,.5-.5V6.48c0-.28-.22-.5-.5-.5h-6c-.27,0-.52-.11-.71-.29l-1.71-1.71H3.5Z"/><path d="M10.43,13.58c-.15,.15-.38,.15-.53,0l-.18-.18c-.15-.15-.15-.38,0-.53l1.49-1.49h-3.82c-.21,0-.38-.17-.38-.37v-.25c0-.21,.17-.37,.38-.37h3.82l-1.49-1.49c-.15-.15-.15-.38,0-.53l.18-.18c.15-.15,.38-.15,.53,0l2.43,2.43c.15,.15,.15,.38,0,.53l-2.43,2.44Z"/></svg>