<svg width="25" height="24" viewBox="0 0 25 24" fill="none" xmlns="http://www.w3.org/2000/svg">
<path d="M11 9.5C11 9.84375 11.0312 10.1562 11.0938 10.4688C11.1562 10.7188 11.0938 10.9688 10.9062 11.1562L6 16.0625V18.5H8V17.25C8 16.8438 8.3125 16.5 8.75 16.5H10V15.25C10 14.8438 10.3125 14.5 10.75 14.5H12.4375L13.3438 13.5938C13.5312 13.4062 13.7812 13.3438 14.0312 13.4062C14.3438 13.4688 14.6562 13.5 15 13.5C17.1875 13.5 19 11.7188 19 9.5C19 7.3125 17.1875 5.5 15 5.5C12.7812 5.5 11 7.3125 11 9.5ZM15 4C18.0312 4 20.5 6.46875 20.5 9.5C20.5 12.5625 18.0312 15 15 15C14.6875 15 14.4062 15 14.125 14.9375L13.2812 15.7812C13.125 15.9375 12.9375 16 12.75 16H11.5V17.25C11.5 17.6875 11.1562 18 10.75 18H9.5V19.25C9.5 19.6875 9.15625 20 8.75 20H5.25C4.8125 20 4.5 19.6875 4.5 19.25V15.75C4.5 15.5625 4.5625 15.375 4.71875 15.2188L9.5625 10.375C9.5 10.0938 9.5 9.8125 9.5 9.5C9.5 6.46875 11.9375 4 15 4ZM16 9.5C15.4375 9.5 15 9.0625 15 8.5C15 7.96875 15.4375 7.5 16 7.5C16.5312 7.5 17 7.96875 17 8.5C17 9.0625 16.5312 9.5 16 9.5Z" fill="white"/>
</svg>
