<svg width="24" height="24" viewBox="0 0 24 24" fill="none" xmlns="http://www.w3.org/2000/svg">
<g id="Group 96">
<g id="Frame">
<path id="Vector" d="M4 17V8.5C4 7.39687 4.89531 6.5 6 6.5H10L11.4656 5.4C11.8125 5.14031 12.2344 5 12.6656 5H18C19.1031 5 20 5.89531 20 7V17C20 18.1031 19.1031 19 18 19H6C4.89531 19 4 18.1031 4 17ZM6 7.5C5.44781 7.5 5 7.94688 5 8.5V11H8.53438C9.22813 9.80312 10.5188 9 12 9C13.4812 9 14.7719 9.80312 15.4656 11H19V7C19 6.44781 18.5531 6 18 6H12.6656C12.45 6 12.2406 6.07031 12.0656 6.2L10.6 7.3C10.4281 7.43125 10.2156 7.5 10 7.5H6ZM5 12V17C5 17.5531 5.44781 18 6 18H18C18.5531 18 19 17.5531 19 17V12H15.8469C15.9563 12.3187 16 12.6281 16 13C16 15.2094 14.2094 17 12 17C9.79063 17 8 15.2094 8 13C8 12.6281 8.04375 12.3187 8.125 12H5ZM12 10C10.3156 10 9 11.3156 9 13C9 14.6562 10.3156 16 12 16C13.6562 16 15 14.6562 15 13C15 11.3156 13.6562 10 12 10ZM6 5.5C6 5.22375 6.22375 5 6.5 5H8.5C8.775 5 9 5.22375 9 5.5C9 5.77625 8.775 6 8.5 6H6.5C6.22375 6 6 5.77625 6 5.5Z" fill="#131B4A"/>
</g>
</g>
</svg>
