<svg width="17" height="16" viewBox="0 0 17 16" fill="none" xmlns="http://www.w3.org/2000/svg">
<path opacity="0.15" fill-rule="evenodd" clip-rule="evenodd" d="M3.232 0H12.768C14.554 0 16 1.446 16.002 3.232V12.768C16.002 14.554 14.554 16 12.77 16H3.232C1.446 16 0 14.554 0 12.77V3.232C0 1.446 1.446 0 3.232 0ZM8.25584 3.11598L7.93184 3.67598L7.61384 3.11398C7.40984 2.76398 6.96784 2.64598 6.61784 2.84598C6.26784 3.04998 6.14984 3.49198 6.34984 3.84198L7.09184 5.12998L4.71584 9.24798H2.85984C2.45584 9.24798 2.13184 9.57198 2.13184 9.97598C2.13184 10.38 2.45584 10.704 2.85984 10.704H9.47984C9.79784 10.108 9.38784 9.24798 8.65584 9.24798H6.39784L9.51984 3.84398C9.71984 3.49398 9.60184 3.04798 9.25184 2.84798C8.90184 2.64798 8.45584 2.76598 8.25584 3.11598ZM4.42384 12.668L5.12384 11.454C4.74584 10.998 4.26784 10.858 3.67984 11.04L3.15984 11.94C2.95984 12.29 3.07784 12.736 3.42784 12.936C3.77784 13.136 4.22384 13.018 4.42384 12.668ZM13.0458 9.25198H11.1518C11.0067 9.00073 10.8672 8.75906 10.7332 8.52698C9.98612 7.23308 9.41114 6.23727 9.00584 5.54198C8.57584 5.89998 8.13984 6.95598 8.74984 8.00798C9.01434 8.46686 9.33832 9.02776 9.72143 9.69103C10.2016 10.5223 10.7746 11.5144 11.4398 12.668C11.6438 13.018 12.0858 13.136 12.4358 12.936C12.7858 12.732 12.9038 12.29 12.7038 11.94L11.9938 10.708H13.0458C13.4498 10.708 13.7738 10.384 13.7738 9.97998C13.7738 9.57598 13.4498 9.25198 13.0458 9.25198Z" fill="white"/>
</svg>
