<svg width="24" height="24" viewBox="0 0 24 24" fill="none" xmlns="http://www.w3.org/2000/svg">
<path d="M14.5 8.5V8C14.5 7.65625 14.4062 7.3125 14.2812 7H14.25C13.5938 7 13.0312 6.71875 12.6562 6.25C12.2188 7 11.4062 7.5 10.5 7.5H9.53125C9.5 7.6875 9.5 7.84375 9.5 8V8.5C9.5 9.90625 10.5938 11 12 11C13.375 11 14.5 9.90625 14.5 8.5ZM12 4C14.1875 4 16 5.8125 16 8V8.5C16 10.7187 14.1875 12.5 12 12.5C9.78125 12.5 8 10.7188 8 8.5V8C8 5.8125 9.78125 4 12 4ZM12.9375 17.0938L14.3125 14.3437C14.4063 14.1562 14.625 14.0625 14.8125 14.0937C17.1875 14.5 19 16.5625 19 19.0625C19 19.5938 18.5625 20 18.0312 20H5.9375C5.40625 20 5 19.5938 5 19.0625C5 16.5625 6.78125 14.5 9.15625 14.0938C9.375 14.0625 9.5625 14.1562 9.65625 14.3437L11.0313 17.0938L11.5313 15.25L10.9375 14.2812C10.75 13.9375 10.9688 13.5 11.375 13.5H12H12.5938C13 13.5 13.2188 13.9375 13.0313 14.2812L12.4375 15.25L12.9375 17.0938ZM8.6875 15.7812C7.5625 16.25 6.71875 17.2812 6.53125 18.5H10.0625L8.6875 15.7812ZM13.9063 18.5H17.4375C17.25 17.2812 16.4062 16.25 15.2813 15.7812L13.9063 18.5Z" fill="#131B4A"/>
</svg>
