<svg width="32" height="32" viewBox="0 0 32 32" fill="none" xmlns="http://www.w3.org/2000/svg">
<path d="M14.5312 9.5C14.4375 9.5 14.375 9.5625 14.3125 9.625L13.7188 10.5L18.25 10.5L17.6562 9.625C17.625 9.5625 17.5312 9.5 17.4375 9.5H14.5312ZM20.0625 10.5H20.4688H22H22.25C22.6562 10.5 23 10.8437 23 11.25C23 11.6875 22.6562 12 22.25 12H21.875L21.125 22.1562C21.0312 23.2188 20.1875 24 19.125 24H12.8438C11.7813 24 10.9375 23.2188 10.8438 22.1562L10.0938 12H9.75C9.3125 12 9 11.6875 9 11.25C9 10.8438 9.3125 10.5 9.75 10.5H10H11.5H11.9062L13.0625 8.78125C13.375 8.3125 13.9375 8 14.5312 8L17.4375 8C18.0312 8 18.5938 8.3125 18.9062 8.78125L20.0625 10.5ZM20.375 12L11.5938 12L12.3438 22.0625C12.375 22.3125 12.5938 22.5 12.8438 22.5H19.125C19.375 22.5 19.5938 22.3125 19.625 22.0625L20.375 12Z" fill="#F04438"/>
</svg>
