<svg width="61" height="61" viewBox="0 0 61 61" fill="none" xmlns="http://www.w3.org/2000/svg">
<rect width="61" height="61" fill="#AF0100"/>
<path d="M18.2236 44.271C18.2236 45.3162 18.0226 46.1901 17.6206 46.8926C17.2228 47.5908 16.6452 48.1177 15.8877 48.4731C15.1302 48.8244 14.2183 49 13.1519 49H10.5239V39.7197H13.4375C14.4108 39.7197 15.255 39.8932 15.9702 40.2402C16.6854 40.583 17.2397 41.0929 17.6333 41.77C18.0269 42.4429 18.2236 43.2765 18.2236 44.271ZM16.1797 44.3218C16.1797 43.6362 16.0781 43.0734 15.875 42.6333C15.6761 42.189 15.3799 41.861 14.9863 41.6494C14.597 41.4378 14.1146 41.332 13.5391 41.332H12.4917V47.375H13.3359C14.2965 47.375 15.0096 47.119 15.4751 46.6069C15.9448 46.0949 16.1797 45.3332 16.1797 44.3218ZM22.9209 41.77C23.5768 41.77 24.1418 41.897 24.6157 42.1509C25.0897 42.4006 25.4557 42.7645 25.7139 43.2427C25.972 43.7209 26.1011 44.3049 26.1011 44.9946V45.9341H21.5244C21.5456 46.48 21.7085 46.9095 22.0132 47.2227C22.3221 47.5316 22.7495 47.686 23.2954 47.686C23.7482 47.686 24.1629 47.6395 24.5396 47.5464C24.9162 47.4533 25.3034 47.3136 25.7012 47.1274V48.6255C25.3499 48.799 24.9818 48.9259 24.5967 49.0063C24.2158 49.0868 23.7524 49.127 23.2065 49.127C22.4956 49.127 21.8651 48.9958 21.3149 48.7334C20.769 48.471 20.3395 48.0711 20.0264 47.5337C19.7174 46.9963 19.563 46.3192 19.563 45.5024C19.563 44.673 19.7026 43.9832 19.9819 43.4331C20.2655 42.8787 20.659 42.464 21.1626 42.189C21.6662 41.9097 22.2523 41.77 22.9209 41.77ZM22.9336 43.1475C22.557 43.1475 22.2438 43.2681 21.9941 43.5093C21.7487 43.7505 21.6069 44.1292 21.5688 44.6455H24.2856C24.2814 44.3577 24.2285 44.1017 24.127 43.8774C24.0296 43.6532 23.8815 43.4754 23.6826 43.3442C23.488 43.2131 23.2383 43.1475 22.9336 43.1475ZM29.6113 49H27.6753V39.123H29.6113V49ZM34.5752 41.77C35.2311 41.77 35.7961 41.897 36.27 42.1509C36.744 42.4006 37.11 42.7645 37.3682 43.2427C37.6263 43.7209 37.7554 44.3049 37.7554 44.9946V45.9341H33.1787C33.1999 46.48 33.3628 46.9095 33.6675 47.2227C33.9764 47.5316 34.4038 47.686 34.9497 47.686C35.4025 47.686 35.8172 47.6395 36.1938 47.5464C36.5705 47.4533 36.9577 47.3136 37.3555 47.1274V48.6255C37.0042 48.799 36.6361 48.9259 36.251 49.0063C35.8701 49.0868 35.4067 49.127 34.8608 49.127C34.1499 49.127 33.5194 48.9958 32.9692 48.7334C32.4233 48.471 31.9938 48.0711 31.6807 47.5337C31.3717 46.9963 31.2173 46.3192 31.2173 45.5024C31.2173 44.673 31.3569 43.9832 31.6362 43.4331C31.9198 42.8787 32.3133 42.464 32.8169 42.189C33.3205 41.9097 33.9066 41.77 34.5752 41.77ZM34.5879 43.1475C34.2113 43.1475 33.8981 43.2681 33.6484 43.5093C33.403 43.7505 33.2612 44.1292 33.2231 44.6455H35.9399C35.9357 44.3577 35.8828 44.1017 35.7812 43.8774C35.6839 43.6532 35.5358 43.4754 35.3369 43.3442C35.1423 43.2131 34.8926 43.1475 34.5879 43.1475ZM42.3193 47.5845C42.5309 47.5845 42.7362 47.5633 42.9351 47.521C43.1382 47.4787 43.3392 47.4258 43.5381 47.3623V48.8032C43.3307 48.8963 43.0726 48.9725 42.7637 49.0317C42.459 49.0952 42.1247 49.127 41.7607 49.127C41.3376 49.127 40.9567 49.0592 40.6182 48.9238C40.2839 48.7842 40.0194 48.5451 39.8247 48.2065C39.6343 47.8638 39.5391 47.3877 39.5391 46.7783V43.3569H38.6123V42.5381L39.6787 41.8906L40.2373 40.3926H41.4751V41.9033H43.4619V43.3569H41.4751V46.7783C41.4751 47.0492 41.5513 47.2523 41.7036 47.3877C41.8602 47.5189 42.0654 47.5845 42.3193 47.5845ZM47.9053 41.77C48.5612 41.77 49.1261 41.897 49.6001 42.1509C50.0741 42.4006 50.4401 42.7645 50.6982 43.2427C50.9564 43.7209 51.0854 44.3049 51.0854 44.9946V45.9341H46.5088C46.5299 46.48 46.6929 46.9095 46.9976 47.2227C47.3065 47.5316 47.7339 47.686 48.2798 47.686C48.7326 47.686 49.1473 47.6395 49.5239 47.5464C49.9006 47.4533 50.2878 47.3136 50.6855 47.1274V48.6255C50.3343 48.799 49.9661 48.9259 49.5811 49.0063C49.2002 49.0868 48.7368 49.127 48.1909 49.127C47.48 49.127 46.8494 48.9958 46.2993 48.7334C45.7534 48.471 45.3239 48.0711 45.0107 47.5337C44.7018 46.9963 44.5474 46.3192 44.5474 45.5024C44.5474 44.673 44.687 43.9832 44.9663 43.4331C45.2498 42.8787 45.6434 42.464 46.147 42.189C46.6506 41.9097 47.2367 41.77 47.9053 41.77ZM47.918 43.1475C47.5413 43.1475 47.2282 43.2681 46.9785 43.5093C46.7331 43.7505 46.5913 44.1292 46.5532 44.6455H49.27C49.2658 44.3577 49.2129 44.1017 49.1113 43.8774C49.014 43.6532 48.8659 43.4754 48.667 43.3442C48.4723 43.2131 48.2227 43.1475 47.918 43.1475Z" fill="white"/>
<path d="M24.5 28.4167C24.5 29.425 25.475 30.25 26.6667 30.25H35.3333C36.525 30.25 37.5 29.425 37.5 28.4167V17.4167H24.5V28.4167ZM38.5833 14.6667H34.7917L33.7083 13.75H28.2917L27.2083 14.6667H23.4167V16.5H38.5833V14.6667Z" fill="white"/>
</svg>
