<svg width="24" height="24" viewBox="0 0 24 24" fill="none" xmlns="http://www.w3.org/2000/svg">
<path d="M8.78125 6.28125V6.25L6.53125 8.75C6.40625 8.90625 6.21875 9 6 9C5.8125 9.03125 5.59375 8.9375 5.46875 8.78125L4.21875 7.53125C3.90625 7.25 3.90625 6.78125 4.21875 6.46875C4.5 6.1875 4.96875 6.1875 5.28125 6.46875L5.96875 7.1875L7.6875 5.25C7.96875 4.96875 8.4375 4.9375 8.75 5.21875C9.03125 5.5 9.0625 5.96875 8.78125 6.28125ZM8.78125 11.2812V11.25L6.53125 13.75C6.40625 13.9062 6.21875 14 6 14C5.8125 14.0312 5.59375 13.9375 5.46875 13.7812L4.21875 12.5312C3.90625 12.25 3.90625 11.7812 4.21875 11.4688C4.5 11.1875 4.96875 11.1875 5.28125 11.4688L5.96875 12.1875L7.6875 10.25C7.96875 9.96875 8.4375 9.9375 8.75 10.2188C9.03125 10.5 9.0625 10.9688 8.78125 11.2812ZM10.75 7.75C10.3125 7.75 10 7.4375 10 7C10 6.59375 10.3125 6.25 10.75 6.25L19.25 6.25C19.6562 6.25 20 6.59375 20 7C20 7.4375 19.6562 7.75 19.25 7.75L10.75 7.75ZM10 12C10 11.5938 10.3125 11.25 10.75 11.25L19.25 11.25C19.6562 11.25 20 11.5937 20 12C20 12.4375 19.6562 12.75 19.25 12.75H10.75C10.3125 12.75 10 12.4375 10 12ZM9 17C9 16.5938 9.3125 16.25 9.75 16.25H19.25C19.6562 16.25 20 16.5938 20 17C20 17.4375 19.6562 17.75 19.25 17.75H9.75C9.3125 17.75 9 17.4375 9 17ZM7 17C7 17.5625 6.53125 18 6 18C5.4375 18 5 17.5625 5 17C5 16.4688 5.4375 16 6 16C6.53125 16 7 16.4688 7 17Z" fill="#131B4A"/>
</svg>
