<svg width="24" height="24" viewBox="0 0 24 24" fill="none" xmlns="http://www.w3.org/2000/svg">
<path d="M16.5 5.5H14V7.8125C14 7.9375 13.9062 8 13.7812 8C13.75 8 13.7188 8 13.6875 8L12.25 7.15625C12.0938 7.0625 11.9062 7.0625 11.75 7.15625L10.2812 8C10.25 8 10.2188 8 10.1875 8C10.0625 8 10 7.9375 10 7.8125V5.5H7.5L7.5 10.5L16.5 10.5V5.5ZM16.5 4C17.3125 4 18 4.6875 18 5.5V10.5C18 11.3437 17.3125 12 16.5 12L7.5 12C6.65625 12 6 11.3438 6 10.5L6 5.5C6 4.6875 6.65625 4 7.5 4L10 4L14 4L16.5 4ZM8.84375 15C8.59375 15 8.34375 15.0938 8.15625 15.2188L5.65625 16.875C5.53125 16.9688 5.375 17 5.25 17H3.75C3.3125 17 3 16.6875 3 16.25C3 15.8438 3.3125 15.5 3.75 15.5H5L7.3125 13.9688C7.78125 13.6875 8.3125 13.5 8.84375 13.5L13.75 13.5C14.8438 13.5 15.75 14.4062 15.75 15.5C15.75 15.5312 15.75 15.5625 15.75 15.5625L17.75 14.3125C18.0938 14.125 18.4688 14 18.875 14H19.0938C20.1562 14 21 14.8437 21 15.9062C21 16.5312 20.6563 17.125 20.125 17.4688L17.1562 19.4062C16.5312 19.8125 15.8125 20.0312 15.0938 20.0312L3.75 20.0312C3.3125 20.0312 3 19.6875 3 19.2812C3 18.8438 3.3125 18.5312 3.75 18.5312H15.0938C15.5313 18.5312 15.9688 18.4062 16.3125 18.1562L19.3125 16.2188C19.4062 16.1562 19.5 16.0312 19.5 15.9062C19.5 15.6875 19.3125 15.5 19.0938 15.5H18.875C18.75 15.5 18.6562 15.5312 18.5625 15.5937L15.625 17.4062C15.5 17.4688 15.375 17.5 15.2188 17.5H13.75H13H11C10.5625 17.5 10.25 17.1875 10.25 16.75C10.25 16.3438 10.5625 16 11 16H13H13.75C14 16 14.25 15.7812 14.25 15.5C14.25 15.25 14 15 13.75 15L8.84375 15Z" fill="#131B4A"/>
</svg>
