<svg width="14" height="14" viewBox="0 0 14 14" fill="none" xmlns="http://www.w3.org/2000/svg">
<path d="M2 0C0.896875 0 0 0.896875 0 2V12C0 13.1031 0.896875 14 2 14H12C13.1031 14 14 13.1031 14 12V2C14 0.896875 13.1031 0 12 0H2ZM10.5312 5.53125L6.53125 9.53125C6.2375 9.825 5.7625 9.825 5.47188 9.53125L3.47187 7.53125C3.17812 7.2375 3.17812 6.7625 3.47187 6.47188C3.76562 6.18125 4.24062 6.17813 4.53125 6.47188L6 7.94063L9.46875 4.46875C9.7625 4.175 10.2375 4.175 10.5281 4.46875C10.8187 4.7625 10.8219 5.2375 10.5281 5.52812L10.5312 5.53125Z" fill="#131B4A"/>
</svg>
