<svg width="24" height="24" viewBox="0 0 24 24" fill="none" xmlns="http://www.w3.org/2000/svg">
<path d="M18.5 12C18.5 9.6875 17.25 7.5625 15.25 6.375C13.2188 5.21875 10.75 5.21875 8.75 6.375C6.71875 7.5625 5.5 9.6875 5.5 12C5.5 14.3438 6.71875 16.4688 8.75 17.6562C10.75 18.8125 13.2188 18.8125 15.25 17.6562C17.25 16.4688 18.5 14.3437 18.5 12ZM4 12C4 9.15625 5.5 6.53125 8 5.09375C10.4688 3.65625 13.5 3.65625 16 5.09375C18.4688 6.53125 20 9.15625 20 12C20 14.875 18.4688 17.5 16 18.9375C13.5 20.375 10.4688 20.375 8 18.9375C5.5 17.5 4 14.875 4 12Z" fill="#131B4A"/>
</svg>
