<svg width="24" height="24" viewBox="0 0 24 24" fill="none" xmlns="http://www.w3.org/2000/svg">
<path d="M9 16C9.53125 16 10 16.4688 10 17V18.5L13.0625 16.2188C13.2188 16.0938 13.4375 16 13.6562 16H18C18.5312 16 19 15.5625 19 15V6C19 5.46875 18.5312 5 18 5H6C5.4375 5 5 5.46875 5 6V15C5 15.5625 5.4375 16 6 16H9ZM4 6C4 4.90625 4.875 4 6 4H18C19.0938 4 20 4.90625 20 6V15C20 16.125 19.0938 17 18 17H13.6562L9.78125 19.9062C9.625 20.0312 9.4375 20.0312 9.25 19.9688C9.09375 19.875 9 19.7188 9 19.5V18V17H8H6C4.875 17 4 16.125 4 15V6Z" fill="url(#paint0_linear_659_9213)"/>
<defs>
<linearGradient id="paint0_linear_659_9213" x1="4" y1="4" x2="20" y2="20" gradientUnits="userSpaceOnUse">
<stop stop-color="#8D0085"/>
<stop offset="1" stop-color="#FF9400"/>
</linearGradient>
</defs>
</svg>
