<svg width="15" height="15" viewBox="0 0 15 15" fill="none" xmlns="http://www.w3.org/2000/svg">
<path d="M4.5 0C5.32812 0 6 0.671562 6 1.5V4.5C6 5.32812 5.32812 6 4.5 6H1.5C0.671562 6 0 5.32812 0 4.5V1.5C0 0.671562 0.671562 0 1.5 0H4.5ZM4.5 1H1.5C1.22375 1 1 1.22375 1 1.5V4.5C1 4.775 1.22375 5 1.5 5H4.5C4.775 5 5 4.775 5 4.5V1.5C5 1.22375 4.775 1 4.5 1ZM4.5 8C5.32812 8 6 8.67188 6 9.5V12.5C6 13.3281 5.32812 14 4.5 14H1.5C0.671562 14 0 13.3281 0 12.5V9.5C0 8.67188 0.671562 8 1.5 8H4.5ZM4.5 9H1.5C1.22375 9 1 9.225 1 9.5V12.5C1 12.775 1.22375 13 1.5 13H4.5C4.775 13 5 12.775 5 12.5V9.5C5 9.225 4.775 9 4.5 9ZM8 1.5C8 0.671562 8.67188 0 9.5 0H12.5C13.3281 0 14 0.671562 14 1.5V4.5C14 5.32812 13.3281 6 12.5 6H9.5C8.67188 6 8 5.32812 8 4.5V1.5ZM9 1.5V4.5C9 4.775 9.225 5 9.5 5H12.5C12.775 5 13 4.775 13 4.5V1.5C13 1.22375 12.775 1 12.5 1H9.5C9.225 1 9 1.22375 9 1.5ZM11 7.5C11.275 7.5 11.5 7.725 11.5 8V10.5H14C14.275 10.5 14.5 10.725 14.5 11C14.5 11.275 14.275 11.5 14 11.5H11.5V14C11.5 14.275 11.275 14.5 11 14.5C10.725 14.5 10.5 14.275 10.5 14V11.5H8C7.725 11.5 7.5 11.275 7.5 11C7.5 10.725 7.725 10.5 8 10.5H10.5V8C10.5 7.725 10.725 7.5 11 7.5Z" fill="#131B4A"/>
</svg>
