<svg width="24" height="24" viewBox="0 0 24 24" fill="none" xmlns="http://www.w3.org/2000/svg">
<path d="M17.5 18H6C4.89531 18 4 17.1047 4 16V7.5C4 7.225 3.77625 7 3.5 7C3.22375 7 3 7.225 3 7.5V16C3 17.6569 4.34312 19 6 19H17.5C17.7761 19 18 18.7761 18 18.5C18 18.2239 17.775 18 17.5 18ZM10 8.75C10.4144 8.75 10.75 8.41406 10.75 8C10.75 7.58594 10.4144 7.25 10 7.25C9.58594 7.25 9.25 7.58594 9.25 8C9.25 8.41406 9.5875 8.75 10 8.75ZM15.8313 8.37187C15.4788 7.87781 14.6281 7.87375 14.2969 8.3709L12.9209 10.2906L12.7032 10.0112C12.3457 9.5593 11.5478 9.55618 11.1907 10.0122L9.19375 12.525C8.96875 12.8094 8.9375 13.1969 9.10938 13.5094C9.275 13.7844 9.59687 14 9.95 14H18.05C18.3938 14 18.7116 13.8186 18.8794 13.5284C18.8784 13.5294 18.8794 13.5275 18.8794 13.5284C19.0561 13.2196 19.0381 12.8459 18.8301 12.555L15.8313 8.37187ZM10.0687 12.9969L11.8891 10.6341L12.5169 11.4359C12.6528 11.6092 13.0669 11.7687 13.3166 11.4193L15.0178 8.95834L17.9141 12.9958H10.0687V12.9969ZM19 5H8C6.89531 5 6 5.89531 6 7V14C6 15.1047 6.89531 16 8 16H19C20.1047 16 21 15.1047 21 14V7C21 5.89531 20.1031 5 19 5ZM20 14C20 14.5513 19.5513 15 19 15H8C7.44875 15 7 14.5513 7 14V7C7 6.44875 7.44875 6 8 6H19C19.5513 6 20 6.44875 20 7V14Z" fill="#131B4A"/>
</svg>
