<svg width="24" height="24" viewBox="0 0 24 24" fill="none" xmlns="http://www.w3.org/2000/svg">
<path d="M5.5 12C5.5 15.5938 8.40625 18.5 12 18.5C12.4063 18.5 12.75 18.8438 12.75 19.25C12.75 19.6875 12.4063 20 12 20C7.5625 20 4 16.4375 4 12C4 7.59375 7.5625 4 12 4C12.4062 4 12.75 4.34375 12.75 4.75C12.75 5.1875 12.4062 5.5 12 5.5C8.40625 5.5 5.5 8.4375 5.5 12ZM16.25 8.21875L19.75 11.4687C19.9062 11.5937 20 11.8125 20 12C20 12.2187 19.9062 12.4375 19.75 12.5625L16.25 15.8125C15.9375 16.0938 15.4688 16.0625 15.1875 15.7812C14.9063 15.4687 14.9375 15 15.2188 14.7187L17.3125 12.75H9.75C9.3125 12.75 9 12.4375 9 12C9 11.5938 9.3125 11.25 9.75 11.25L17.3125 11.25L15.2188 9.3125C14.9062 9.03125 14.9062 8.5625 15.1875 8.25C15.4688 7.9375 15.9375 7.9375 16.25 8.21875Z" fill="#F04438"/>
</svg>
