<svg width="24" height="24" viewBox="0 0 24 24" fill="none" xmlns="http://www.w3.org/2000/svg">
<path d="M6 7C5.4375 7 5 7.46875 5 8V9.25L11.0938 13.75C11.625 14.125 12.3438 14.125 12.875 13.75L19 9.25V8C19 7.46875 18.5312 7 18 7H6ZM5 10.5V16C5 16.5625 5.4375 17 6 17H18C18.5312 17 19 16.5625 19 16V10.5L13.4688 14.5625C12.5938 15.1875 11.375 15.1875 10.5 14.5625L5 10.5ZM4 8C4 6.90625 4.875 6 6 6H18C19.0938 6 20 6.90625 20 8V16C20 17.125 19.0938 18 18 18H6C4.875 18 4 17.125 4 16V8Z" fill="url(#paint0_linear_659_9202)"/>
<defs>
<linearGradient id="paint0_linear_659_9202" x1="4" y1="4" x2="20" y2="20" gradientUnits="userSpaceOnUse">
<stop stop-color="#8D0085"/>
<stop offset="1" stop-color="#FF9400"/>
</linearGradient>
</defs>
</svg>
