<svg width="24" height="24" viewBox="0 0 24 24" fill="none" xmlns="http://www.w3.org/2000/svg">
<path d="M5.01214 19H11.1272L11.0926 19.1313C11.0203 19.425 11.0391 19.725 11.1366 20H5.01214C3.90075 20 3 19.1031 3 18V6C3 4.89531 3.90075 4 5.01214 4H9.91987C10.3192 4 10.7059 4.15803 10.9888 4.43938L14.6295 8.05937C14.9125 8.34062 15.0728 8.725 15.0728 9.12187V13.3625L14.0668 14.3625V10H10.5455C9.71237 10 9.03642 9.32812 9.03642 8.5V5H5.01214C4.4566 5 4.00607 5.44781 4.00607 6V18C4.00607 18.5531 4.4566 19 5.01214 19ZM13.919 8.76875L10.2751 5.14656C10.2123 5.08187 10.1305 5.03688 10.0425 5.015V8.5C10.0425 8.775 10.2689 9 10.5455 9H14.051C14.029 8.9125 13.985 8.83125 13.919 8.76875ZM17.8804 11.5437C18.4715 10.9562 19.4241 10.9562 20.0152 11.5437L20.5591 12.0844C21.147 12.6688 21.147 13.6187 20.5591 14.2031L15.7048 19.0031C15.5381 19.1938 15.2961 19.3313 15.032 19.3969L12.6803 19.9812C12.5074 20.025 12.325 19.975 12.2024 19.85C12.0766 19.725 12.0263 19.5437 12.0703 19.3469L12.6583 17.0375C12.7243 16.775 12.8595 16.5312 13.0544 16.3406L17.8804 11.5437ZM19.3046 12.2219C19.1065 12.0531 18.789 12.0531 18.5909 12.2219L17.8144 13.025L19.0688 14.2719L19.8485 13.4969C20.0434 13.3031 20.0434 12.9844 19.8485 12.7906L19.3046 12.2219ZM13.6329 17.2531L13.221 18.8094L14.7867 18.425C14.8748 18.4031 14.9565 18.3594 15.0194 18.2937L18.3583 14.9781L17.1007 13.7312L13.7649 17.0469C13.7021 17.1125 13.6549 17.1906 13.6329 17.2531Z" fill="#B4B4B4"/>
</svg>
