<svg width="24" height="24" viewBox="0 0 24 24" fill="none" xmlns="http://www.w3.org/2000/svg">
<path d="M10.5 9.5C10.5 9.84375 10.5312 10.1562 10.5938 10.4688C10.6562 10.7188 10.5938 10.9688 10.4062 11.1562L5.5 16.0625L5.5 18.5H7.5V17.25C7.5 16.8438 7.8125 16.5 8.25 16.5H9.5V15.25C9.5 14.8438 9.8125 14.5 10.25 14.5H11.9375L12.8438 13.5937C13.0313 13.4062 13.2813 13.3437 13.5313 13.4062C13.8438 13.4687 14.1563 13.5 14.5 13.5C16.6875 13.5 18.5 11.7187 18.5 9.5C18.5 7.3125 16.6875 5.5 14.5 5.5C12.2812 5.5 10.5 7.3125 10.5 9.5ZM14.5 4C17.5312 4 20 6.46875 20 9.5C20 12.5625 17.5312 15 14.5 15C14.1875 15 13.9063 15 13.625 14.9375L12.7813 15.7812C12.625 15.9375 12.4375 16 12.25 16H11V17.25C11 17.6875 10.6563 18 10.25 18H9V19.25C9 19.6875 8.65625 20 8.25 20H4.75C4.3125 20 4 19.6875 4 19.25L4 15.75C4 15.5625 4.0625 15.375 4.21875 15.2188L9.0625 10.375C9 10.0938 9 9.8125 9 9.5C9 6.46875 11.4375 4 14.5 4ZM15.5 9.5C14.9375 9.5 14.5 9.0625 14.5 8.5C14.5 7.96875 14.9375 7.5 15.5 7.5C16.0312 7.5 16.5 7.96875 16.5 8.5C16.5 9.0625 16.0312 9.5 15.5 9.5Z" fill="#131B4A"/>
</svg>
