<svg width="40" height="40" viewBox="0 0 40 40" fill="none" xmlns="http://www.w3.org/2000/svg">
<path d="M20 6C14.9375 6 10.375 8.6875 7.875 13C5.3125 17.375 5.3125 22.6875 7.875 27C10.375 31.375 14.9375 34 20 34C25 34 29.5625 31.375 32.0625 27C34.625 22.6875 34.625 17.375 32.0625 13C29.5625 8.6875 25 6 20 6ZM20 36C14.25 36 9 33 6.125 28C3.25 23.0625 3.25 17 6.125 12C9 7.0625 14.25 4 20 4C25.6875 4 30.9375 7.0625 33.8125 12C36.6875 17 36.6875 23.0625 33.8125 28C30.9375 33 25.6875 36 20 36ZM20 12C20.5 12 21 12.5 21 13L21 21C21 21.5625 20.5 22 20 22C19.4375 22 19 21.5625 19 21L19 13C19 12.5 19.4375 12 20 12ZM21.5 26C21.5 26.875 20.8125 27.5 20 27.5C19.125 27.5 18.5 26.875 18.5 26C18.5 25.1875 19.125 24.5 20 24.5C20.8125 24.5 21.5 25.1875 21.5 26Z" fill="#F04438"/>
</svg>
