<svg width="40" height="40" viewBox="0 0 40 40" fill="none" xmlns="http://www.w3.org/2000/svg">
<rect width="40" height="40" fill="#131B4A"/>
<path d="M26.5 19.9997C26.5 20.2747 26.275 20.4997 26 20.4997H20.5V25.9997C20.5 26.2761 20.2764 26.5 20 26.5C19.7236 26.5 19.5 26.2747 19.5 25.9997V20.4997H14C13.7236 20.4997 13.5 20.2763 13.5 20C13.5 19.7247 13.7237 19.4997 14 19.4997H19.5V13.9997C19.5 13.7233 19.7236 13.5 20 13.5C20.2764 13.5 20.5 13.7234 20.5 13.9997V19.4997H26C26.275 19.4997 26.5 19.7247 26.5 19.9997Z" fill="white"/>
</svg>
