<svg width="24" height="24" viewBox="0 0 24 24" fill="none" xmlns="http://www.w3.org/2000/svg">
<path d="M6 8C6 6.9375 6.5625 5.96875 7.5 5.40625C8.40625 4.875 9.5625 4.875 10.5 5.40625C11.4062 5.96875 12 6.9375 12 8C12 9.09375 11.4062 10.0625 10.5 10.625C9.5625 11.1562 8.40625 11.1562 7.5 10.625C6.5625 10.0625 6 9.09375 6 8ZM10.4062 14.5C12.9062 14.5 14.9375 16.5312 15 19H3C3.03125 16.5312 5.0625 14.5 7.5625 14.5H10.4062ZM9 12C10.4062 12 11.7188 11.25 12.4375 10C13.1562 8.78125 13.1562 7.25 12.4375 6C11.7188 4.78125 10.4062 4 9 4C7.5625 4 6.25 4.78125 5.53125 6C4.8125 7.25 4.8125 8.78125 5.53125 10C6.25 11.25 7.5625 12 9 12ZM7.5625 13.5C4.46875 13.5 2 16 2 19.0938C2 19.5938 2.40625 20 2.90625 20H15.0625C15.5625 20 16 19.5938 16 19.0938C16 16 13.5 13.5 10.4062 13.5H7.5625ZM18 13.5C18 13.7812 18.2188 14 18.5 14C18.75 14 19 13.7812 19 13.5V11H21.5C21.75 11 22 10.7812 22 10.5C22 10.25 21.75 10 21.5 10H19V7.5C19 7.25 18.75 7 18.5 7C18.2188 7 18 7.25 18 7.5V10H15.5C15.2188 10 15 10.25 15 10.5C15 10.7812 15.2188 11 15.5 11H18V13.5Z" fill="#131B4A"/>
</svg>
