<svg width="20" height="17" viewBox="0 0 20 17" fill="none" xmlns="http://www.w3.org/2000/svg">
<path d="M4.5 5C4.5 5.90625 4.96875 6.71875 5.75 7.1875C6.5 7.625 7.46875 7.625 8.25 7.1875C9 6.71875 9.5 5.90625 9.5 5C9.5 4.125 9 3.3125 8.25 2.84375C7.46875 2.40625 6.5 2.40625 5.75 2.84375C4.96875 3.3125 4.5 4.125 4.5 5ZM11 5C11 6.4375 10.2188 7.75 9 8.46875C7.75 9.1875 6.21875 9.1875 5 8.46875C3.75 7.75 3 6.4375 3 5C3 3.59375 3.75 2.28125 5 1.5625C6.21875 0.84375 7.75 0.84375 9 1.5625C10.2188 2.28125 11 3.59375 11 5ZM8.40625 12H5.5625C3.5 12 1.8125 13.5312 1.53125 15.5H12.4375C12.1562 13.5312 10.4688 12 8.40625 12ZM5.5625 10.5H7H8.40625C11.5 10.5 14 13 14 16.0938C14 16.5938 13.5625 17 13.0625 17H0.90625C0.40625 17 0 16.5938 0 16.0938C0 13 2.46875 10.5 5.5625 10.5ZM15.75 10.75V8.75H13.75C13.3125 8.75 13 8.4375 13 8C13 7.59375 13.3125 7.25 13.75 7.25H15.75V5.25C15.75 4.84375 16.0625 4.5 16.5 4.5C16.9062 4.5 17.25 4.84375 17.25 5.25V7.25H19.25C19.6562 7.25 20 7.59375 20 8C20 8.4375 19.6562 8.75 19.25 8.75H17.25V10.75C17.25 11.1875 16.9062 11.5 16.5 11.5C16.0625 11.5 15.75 11.1875 15.75 10.75Z" fill="white"/>
</svg>
