<svg width="24" height="24" viewBox="0 0 24 24" fill="none" xmlns="http://www.w3.org/2000/svg">
<path d="M5.5 6.5C4.9375 6.5 4.5 6.96875 4.5 7.5V9H5.5V10.5H4.5C3.65625 10.5 3 9.84375 3 9L3 7.5C3 6.125 4.09375 5 5.5 5L15.5 5C16.875 5 18 6.125 18 7.5V12.5H17H16.5H15.5C15.2188 12.5 15 12.2812 15 12C15 11.75 15.2188 11.5 15.5 11.5H16.5V9H15.5C15.2188 9 15 8.78125 15 8.5C15 8.25 15.2188 8 15.5 8H16.5V7.5C16.5 6.96875 16.0312 6.5 15.5 6.5L7.78125 6.5C7.90625 6.8125 8 7.15625 8 7.5V11H9.5C9.75 11 10 11.25 10 11.5C10 11.7812 9.75 12 9.5 12H8L8 16.5C8 17.0625 8.4375 17.5 9 17.5C9.53125 17.5 10 17.0625 10 16.5V15C10 14.1875 10.6563 13.5 11.5 13.5H11.5313H11.5625H11.5938H11.625H11.6563H11.6875H11.7188H11.75H11.7813H11.8125H11.8438H11.875H11.9063H11.9375H11.9688H12H12.0313H12.0625H12.0938H12.125H12.1563H12.1875H12.2188H12.25H12.2813H12.3125H12.3438H12.375H12.4063H12.4375H12.4688H12.5H12.5313H12.5625H12.5938H12.625H12.6563H12.6875H12.7188H12.75H12.7813H12.8125H12.8438H12.875H12.9063H12.9375H12.9688H13H13.0313H13.0625H13.0938H13.125H13.1563H13.1875H13.2188H13.25H13.2813H13.3125H13.3438H13.375H13.4063H13.4375H13.4688H13.5H13.5313H13.5625H13.5938H13.625H13.6563H13.6875H13.7188H13.75H13.7813H13.8125H13.8438H13.875H13.9063H13.9375H13.9688H14H14.0313H14.0625H14.0938H14.125H14.1563H14.1875H14.2188H14.25H14.2813H14.3125H14.3438H14.375H14.4063H14.4375H14.4688H14.5H14.5313H14.5625H14.5938H14.625H14.6563H14.6875H14.7188H14.75H14.7813H14.8125H14.8438H14.875H14.9063H14.9375H14.9688H15H15.0313H15.0625H15.0938H15.125H15.1563H15.1875H15.2188H15.25H15.2813H15.3125H15.3438H15.375H15.4063H15.4375H15.4688H15.5H15.5313H15.5625H15.5938H15.625H15.6563H15.6875H15.7188H15.75H15.7813H15.8125H15.8438H15.875H15.9063H15.9375H15.9688H16H16.0312H16.0625H16.0938H16.125H16.1562H16.1875H16.2188H16.25H16.2812H16.3125H16.3438H16.375H16.4062H16.4375H16.4688H16.5H16.5312H16.5625H16.5938H16.625H16.6562H16.6875H16.7188H16.75H16.7812H16.8125H16.8438H16.875H16.9062H16.9375H16.9688H17H17.0312H17.0625H17.0938H17.125H17.1562H17.1875H17.2188H17.25H17.2812H17.3125H17.3438H17.375H17.4062H17.4375H17.4688H17.5H17.5312H17.5625H17.5938H17.625H17.6562H17.6875H17.7188H17.75H17.7812H17.8125H17.8438H17.875H17.9062H17.9375H17.9688H18H18.0312H18.0625H18.0938H18.125H18.1562H18.1875H18.2188H18.25H18.2812H18.3125H18.3438H18.375H18.4062H18.4375H18.4688H18.5H18.5312H18.5625H18.5938H18.625H18.6562H18.6875H18.7188H18.75H18.7812H18.8125H18.8438H18.875H18.9062H18.9375H18.9688H19H19.0312H19.0625H19.0938H19.125H19.1562H19.1875H19.2188H19.25H19.2812H19.3125H19.3438H19.375H19.4062H19.4375H19.4688H19.5H19.5312H19.5625H19.5938H19.625C20.4375 13.5 21.125 14.1875 21.125 15L21.125 16.5C21.125 17.9062 20 19 18.625 19H9C7.59375 19 6.5 17.9062 6.5 16.5L6.5 7.5C6.5 6.96875 6.03125 6.5 5.5 6.5ZM11.2813 17.5H18.5C19.0312 17.5 19.5 17.0625 19.5 16.5V15H19.4688H19.4375H19.4062H19.375H19.3438H19.3125H19.2812H19.25H19.2188H19.1875H19.1562H19.125H19.0938H19.0625H19.0312H19H18.9688H18.9375H18.9062H18.875H18.8438H18.8125H18.7812H18.75H18.7188H18.6875H18.6562H18.625H18.5938H18.5625H18.5312H18.5H18.4688H18.4375H18.4062H18.375H18.3438H18.3125H18.2812H18.25H18.2188H18.1875H18.1562H18.125H18.0938H18.0625H18.0312H18H17.9688H17.9375H17.9062H17.875H17.8438H17.8125H17.7812H17.75H17.7188H17.6875H17.6562H17.625H17.5938H17.5625H17.5312H17.5H17.4688H17.4375H17.4062H17.375H17.3438H17.3125H17.2812H17.25H17.2188H17.1875H17.1562H17.125H17.0938H17.0625H17.0312H17H16.9688H16.9375H16.9062H16.875H16.8438H16.8125H16.7812H16.75H16.7188H16.6875H16.6562H16.625H16.5938H16.5625H16.5312H16.5H16.4688H16.4375H16.4062H16.375H16.3438H16.3125H16.2812H16.25H16.2188H16.1875H16.1562H16.125H16.0938H16.0625H16.0312H16H15.9688H15.9375H15.9063H15.875H15.8438H15.8125H15.7813H15.75H15.7188H15.6875H15.6563H15.625H15.5938H15.5625H15.5313H15.5V16C15.5 16.2812 15.25 16.5 15 16.5C14.7188 16.5 14.5 16.2812 14.5 16V15H14.4688H14.4375H14.4063H14.375H14.3438H14.3125H14.2813H14.25H14.2188H14.1875H14.1563H14.125H14.0938H14.0625H14.0313H14H13.9688H13.9375H13.9063H13.875H13.8438H13.8125H13.7813H13.75H13.7188H13.6875H13.6563H13.625H13.5938H13.5625H13.5313H13.5H13.4688H13.4375H13.4063H13.375H13.3438H13.3125H13.2813H13.25H13.2188H13.1875H13.1563H13.125H13.0938H13.0625H13.0313H13H12.9688H12.9375H12.9063H12.875H12.8438H12.8125H12.7813H12.75H12.7188H12.6875H12.6563H12.625H12.5938H12.5625H12.5313H12.5H12.4688H12.4375H12.4063H12.375H12.3438H12.3125H12.2813H12.25H12.2188H12.1875H12.1563H12.125H12.0938H12.0625H12.0313H12H11.9688H11.9375H11.9063H11.875H11.8438H11.8125H11.7813H11.75H11.7188H11.6875H11.6563H11.625H11.5938H11.5625H11.5313H11.5V16.5C11.5 16.875 11.4063 17.2188 11.2813 17.5Z" fill="#131B4A"/>
</svg>
