<svg width="42" height="40" viewBox="0 0 42 40" fill="none" xmlns="http://www.w3.org/2000/svg">
<path d="M2.5625 4.25L40.625 34.25C41 34.5625 41.125 35.25 40.75 35.625C40.4375 36.0625 39.8125 36.1875 39.375 35.8125L1.375 5.8125C0.9375 5.5 0.8125 4.8125 1.1875 4.4375C1.5 4 2.1875 3.875 2.5625 4.25ZM38.8125 20.8125C38.1875 22.3125 37.0625 24.375 35.4375 26.375L33.875 25.125C35.375 23.25 36.375 21.4375 37 20C36.125 18 34.3125 15 31.625 12.5C28.9375 10 25.375 8 21 8C18.5 8 16.25 8.6875 14.3125 9.6875L12.625 8.3125C15 6.9375 17.75 6 21 6C26 6 30.0625 8.3125 33 11.0625C35.9375 13.75 37.875 17 38.8125 19.25C39 19.75 39 20.3125 38.8125 20.8125ZM6.5 13.6875L8.0625 14.9375C6.5625 16.75 5.5625 18.625 5 20C5.8125 22 7.625 25 10.3125 27.5C13 30 16.5625 32 21 32C23.4375 32 25.6875 31.375 27.625 30.375L29.3125 31.75C27 33.125 24.1875 34 21 34C15.9375 34 11.875 31.75 8.9375 29C6 26.25 4.0625 23 3.125 20.8125C2.9375 20.3125 2.9375 19.75 3.125 19.25C3.75 17.75 4.875 15.6875 6.5 13.6875ZM21 28C16.5625 28 13 24.4375 13 20C13 19.625 13 19.25 13.0625 18.875L15 20.375C15.1875 23.5625 17.8125 26 21 26C21.3125 26 21.6875 26 22 25.9375L23.9375 27.4375C23 27.8125 22 28 21 28ZM29 20V20.0625C29 20.4375 28.9375 20.8125 28.875 21.1875L26.9375 19.6875C26.75 16.5 24.1875 14.0625 21 14.0625C20.625 14.0625 20.25 14.0625 19.9375 14.125L18 12.625C18.9375 12.25 19.9375 12 21 12C25.375 12 29 15.625 29 20Z" fill="#898DA4"/>
</svg>
