<svg width="40" height="40" viewBox="0 0 40 40" fill="none" xmlns="http://www.w3.org/2000/svg">
<path fill-rule="evenodd" clip-rule="evenodd" d="M1 8C0.462212 8 0.0215535 8.42726 0.0135497 8.96498C0 9.8753 0 10.8825 0 12V18C0 18.5523 0.447715 19 1 19C1.55228 19 2 19.4477 2 20C2 20.5523 1.55228 21 1 21C0.447715 21 0 21.4477 0 22V28C0 29.1175 0 30.1247 0.0135497 31.035C0.0215536 31.5727 0.462212 32 1 32C1.55228 32 2 32.4477 2 33C2 33.5523 1.55228 34 1 34C0.545857 34 0.187653 34.3926 0.256799 34.8414C0.487546 36.3393 0.925632 37.4109 1.75736 38.2426C3.51472 40 6.34315 40 12 40H28C33.6569 40 36.4853 40 38.2426 38.2426C40 36.4853 40 33.6569 40 28V12C40 6.34315 40 3.51472 38.2426 1.75736C36.4853 0 33.6569 0 28 0H12C6.34315 0 3.51472 0 1.75736 1.75736C0.925632 2.58909 0.487546 3.66073 0.256799 5.15859C0.187653 5.60744 0.545857 6 1 6C1.55228 6 2 6.44772 2 7C2 7.55228 1.55228 8 1 8Z" fill="url(#paint0_linear_1120_10523)"/>
<path opacity="0.25" d="M0 8C0 6.14006 0 5.21008 0.204445 4.44709C0.759248 2.37653 2.37653 0.759248 4.44709 0.204445C5.21008 0 6.14006 0 8 0V40C6.14006 40 5.21008 40 4.44709 39.7956C2.37653 39.2408 0.759248 37.6235 0.204445 35.5529C0 34.7899 0 33.8599 0 32V8Z" fill="white"/>
<g clip-path="url(#clip0_1120_10523)">
<path d="M17.8031 18.0312L18.0969 18.5437C18.3563 18.9969 18.7812 19.3312 19.2844 19.475L21.0938 19.9906C21.6312 20.1438 22 20.6344 22 21.1938V22.4406C22 22.7844 22.1937 23.0969 22.5 23.25C22.8063 23.4031 23 23.7156 23 24.0594V25.2781C23 25.7656 23.4656 26.1187 23.9344 25.9844C24.4375 25.8406 24.8281 25.4375 24.9563 24.9281L25.0437 24.5781C25.175 24.05 25.5188 23.5969 25.9906 23.3281L26.2437 23.1844C26.7125 22.9187 27 22.4188 27 21.8813V21.6219C27 21.225 26.8406 20.8438 26.5594 20.5625L26.4375 20.4406C26.1562 20.1594 25.775 20 25.3781 20H24.0312C23.6844 20 23.3406 19.9094 23.0375 19.7375L21.9594 19.1219C21.825 19.0437 21.7219 18.9187 21.6719 18.7719C21.5719 18.4719 21.7062 18.1469 21.9906 18.0062L22.175 17.9125C22.3813 17.8094 22.6219 17.7906 22.8406 17.8656L23.5656 18.1062C23.8219 18.1906 24.1031 18.0938 24.25 17.8719C24.3969 17.6531 24.3812 17.3625 24.2125 17.1594L23.7875 16.65C23.475 16.275 23.4781 15.7281 23.7969 15.3594L24.2875 14.7875C24.5625 14.4656 24.6063 14.0062 24.3969 13.6406L24.3219 13.5094C24.2125 13.5031 24.1062 13.5 23.9969 13.5C21.0969 13.5 18.6375 15.4031 17.8031 18.0312ZM30.5 20C30.5 18.85 30.2 17.7688 29.675 16.8281L28.875 17.15C28.3844 17.3469 28.1313 17.8938 28.2969 18.3938L28.825 19.9781C28.9344 20.3031 29.2 20.55 29.5312 20.6313L30.4406 20.8594C30.4781 20.5781 30.4969 20.2906 30.4969 20H30.5ZM32 20C32 24.4187 28.4187 28 24 28C19.5813 28 16 24.4187 16 20C16 15.5813 19.5813 12 24 12C28.4187 12 32 15.5813 32 20Z" fill="white"/>
</g>
<defs>
<linearGradient id="paint0_linear_1120_10523" x1="0" y1="0" x2="42.0742" y2="34.6591" gradientUnits="userSpaceOnUse">
<stop stop-color="#C500B9"/>
<stop offset="1" stop-color="#8D0085"/>
</linearGradient>
<clipPath id="clip0_1120_10523">
<rect width="16" height="16" fill="white" transform="translate(16 12)"/>
</clipPath>
</defs>
</svg>
