<svg width="24" height="24" viewBox="0 0 24 24" fill="none" xmlns="http://www.w3.org/2000/svg">
<path d="M11.25 7.5C11.25 7.08594 11.5844 6.75 12 6.75C12.4156 6.75 12.75 7.08594 12.75 7.5C12.75 7.91563 12.4156 8.25 12 8.25C11.5844 8.25 11.25 7.91563 11.25 7.5ZM11.5375 13.7219C10.5344 12.4969 8.25 9.45625 8.25 7.75C8.25 5.67906 9.92812 4 12 4C14.0719 4 15.75 5.67906 15.75 7.75C15.75 9.45625 13.4656 12.4969 12.4625 13.7219C12.2219 14.05 11.7781 14.05 11.5375 13.7219ZM14.4563 8.81563C14.6656 8.34375 14.75 7.98125 14.75 7.75C14.75 6.23125 13.5188 5 12 5C10.4812 5 9.25 6.23125 9.25 7.75C9.25 7.98125 9.33437 8.34375 9.54375 8.81563C9.74687 9.325 10.0344 9.85625 10.3688 10.3969C10.9031 11.2656 11.5219 12.1062 12 12.7219C12.4781 12.1062 13.0969 11.2656 13.6313 10.3969C13.9656 9.85625 14.2531 9.325 14.4563 8.81563ZM15.6844 10.9656C15.6594 10.975 15.6344 10.9813 15.6062 10.9875C15.8625 10.5469 16.0969 10.0906 16.2875 9.64687L19.9719 8.17188C20.4656 7.975 21 8.3375 21 8.86875V17.3313C21 17.6375 20.8125 17.9125 20.5281 18.0281L15.6844 19.9656C15.5813 20.0063 15.4688 20.0125 15.3625 19.9812L8.52812 18.0281L4.02844 19.8281C3.53594 20.025 3 19.6625 3 19.1313V10.6687C3 10.3625 3.18672 10.0875 3.47156 9.97188L7.32188 8.43437C7.3875 8.75937 7.4875 9.08438 7.60938 9.39375L4 10.8375V18.7625L8 17.1625V13.4719C8 13.225 8.225 12.9719 8.5 12.9719C8.775 12.9719 9 13.225 9 13.4719V17.1219L15 18.8375V13.4719C15 13.225 15.225 12.9719 15.5 12.9719C15.775 12.9719 16 13.225 16 13.4719V18.7625L20 17.1625V9.2375L15.6844 10.9656Z" fill="#B4B4B4"/>
</svg>
