<svg width="25" height="24" viewBox="0 0 25 24" fill="none" xmlns="http://www.w3.org/2000/svg">
<path d="M6 17.25C6 17.6875 5.6875 18 5.25 18C4.84375 18 4.5 17.6875 4.5 17.25L4.5 14C4.5 12.5 5.75 11.25 7.25 11.25L17.9687 11.25L15.25 8.53125C14.9375 8.25 14.9375 7.78125 15.25 7.5C15.5312 7.1875 16 7.1875 16.2812 7.5L20.2812 11.4687C20.5937 11.7812 20.5937 12.25 20.2812 12.5312L16.2812 16.5312C16 16.8437 15.5312 16.8437 15.25 16.5312C14.9375 16.25 14.9375 15.7812 15.25 15.5L17.9687 12.7812L7.25 12.75C6.5625 12.75 6 13.3125 6 14L6 17.25Z" fill="white"/>
</svg>
