<svg width="24" height="24" viewBox="0 0 24 24" fill="none" xmlns="http://www.w3.org/2000/svg">
<path d="M16.6875 16.5C17.8125 15.3437 18.5 13.75 18.5 12C18.5 8.4375 15.5625 5.5 12 5.5C8.40625 5.5 5.5 8.4375 5.5 12C5.5 13.75 6.15625 15.3438 7.28125 16.5C7.875 15.0312 9.3125 14 11 14H13C14.6563 14 16.0938 15.0312 16.6875 16.5ZM15.4375 17.5312C15.2188 16.375 14.1875 15.5 13 15.5H11C9.78125 15.5 8.75 16.375 8.53125 17.5312C9.53125 18.1562 10.7188 18.5 12 18.5C13.25 18.5 14.4375 18.1562 15.4375 17.5312ZM12 20C9.125 20 6.5 18.5 5.0625 16C3.625 13.5312 3.625 10.5 5.0625 8C6.5 5.53125 9.125 4 12 4C14.8438 4 17.4688 5.53125 18.9062 8C20.3438 10.5 20.3438 13.5312 18.9062 16C17.4688 18.5 14.8438 20 12 20ZM12 11.5C12.4375 11.5 12.8438 11.2812 13.0625 10.875C13.2813 10.5 13.2813 10.0312 13.0625 9.625C12.8438 9.25 12.4375 9 12 9C11.5312 9 11.125 9.25 10.9062 9.625C10.6875 10.0312 10.6875 10.5 10.9062 10.875C11.125 11.2812 11.5312 11.5 12 11.5ZM9.25 10.25C9.25 9.28125 9.75 8.375 10.625 7.875C11.4688 7.40625 12.5 7.40625 13.375 7.875C14.2188 8.375 14.75 9.28125 14.75 10.25C14.75 11.25 14.2188 12.1562 13.375 12.6562C12.5 13.125 11.4688 13.125 10.625 12.6562C9.75 12.1562 9.25 11.25 9.25 10.25Z" fill="#131B4A"/>
</svg>
