<svg width="48" height="48" viewBox="0 0 48 48" fill="none" xmlns="http://www.w3.org/2000/svg">
<g clip-path="url(#clip0_635_7141)">
<path d="M21.3531 19.1469C21.5484 19.3422 21.5484 19.6588 21.3531 19.8537L17.7072 23.5L29.5 23.5C30.8791 23.5 32 24.6216 32 26L32 29.5C32 29.7764 31.775 30 31.5 30C31.225 30 31 29.7764 31 29.5L31 26C31 25.1728 30.3272 24.5 29.5 24.5L17.7072 24.5L21.3531 28.1466C21.5484 28.3419 21.5484 28.6584 21.3531 28.8534C21.1578 29.0484 20.8412 29.0487 20.6462 28.8534L16.1462 24.3534C16.0488 24.2562 16 24.1281 16 24C16 23.8721 16.0488 23.7441 16.1465 23.6466L20.6465 19.1466C20.8406 18.95 21.1594 18.95 21.3531 19.1469Z" fill="white"/>
</g>
<defs>
<clipPath id="clip0_635_7141">
<rect width="12" height="16" fill="white" transform="translate(16 30) rotate(-90)"/>
</clipPath>
</defs>
</svg>
