<svg width="24" height="24" viewBox="0 0 24 24" fill="none" xmlns="http://www.w3.org/2000/svg">
<path d="M17 6.5L7 6.5C6.71875 6.5 6.5 6.75 6.5 7L6.5 17C6.5 17.2812 6.71875 17.5 7 17.5H7.03125C7.25 15.5312 8.9375 14 11 14H13C15.0313 14 16.7188 15.5312 16.9688 17.5H17C17.25 17.5 17.5 17.2812 17.5 17V7C17.5 6.75 17.25 6.5 17 6.5ZM15.4375 17.5C15.2188 16.375 14.1875 15.5 13 15.5H11C9.78125 15.5 8.78125 16.375 8.53125 17.5H15.4375ZM7 5L17 5C18.0938 5 19 5.90625 19 7V17C19 18.125 18.0938 19 17 19H7C5.875 19 5 18.125 5 17L5 7C5 5.90625 5.875 5 7 5ZM12 11.5C12.4375 11.5 12.8438 11.2812 13.0625 10.875C13.2813 10.5 13.2813 10.0312 13.0625 9.625C12.8438 9.25 12.4375 9 12 9C11.5312 9 11.125 9.25 10.9062 9.625C10.6875 10.0312 10.6875 10.5 10.9062 10.875C11.125 11.2812 11.5312 11.5 12 11.5ZM9.25 10.25C9.25 9.28125 9.75 8.375 10.625 7.875C11.4688 7.40625 12.5 7.40625 13.375 7.875C14.2188 8.375 14.75 9.28125 14.75 10.25C14.75 11.25 14.2188 12.1562 13.375 12.6562C12.5 13.125 11.4688 13.125 10.625 12.6562C9.75 12.1562 9.25 11.25 9.25 10.25Z" fill="#131B4A"/>
</svg>
