<svg width="24" height="24" viewBox="0 0 24 24" fill="none" xmlns="http://www.w3.org/2000/svg">
<path d="M11.2188 5.40625L12 6.6875L12.75 5.40625C13.25 4.53125 14.1562 4 15.1562 4H15.25C16.75 4 18 5.25 18 6.75C18 7.21875 17.875 7.625 17.6875 8H18.5C19.3125 8 20 8.6875 20 9.5V11.5C20 12.1562 19.5625 12.7187 19 12.9375V13V18C19 19.125 18.0938 20 17 20H7C5.875 20 5 19.125 5 18V13V12.9375C4.40625 12.7188 4 12.1562 4 11.5V9.5C4 8.6875 4.65625 8 5.5 8H6.28125C6.09375 7.625 6 7.21875 6 6.75C6 5.25 7.21875 4 8.75 4H8.8125C9.8125 4 10.7188 4.53125 11.2188 5.40625ZM18.5 9.5L15.25 9.5H13L13 11.5H17.5L18.5 11.5V9.5ZM11 9.5H8.75H5.5V11.5H6.5H11V9.5ZM11 13L6.5 13V18C6.5 18.2812 6.71875 18.5 7 18.5H11L11 13ZM13 18.5H17C17.25 18.5 17.5 18.2812 17.5 18V13H13V18.5ZM15.25 8C15.9375 8 16.5 7.46875 16.5 6.75C16.5 6.0625 15.9375 5.5 15.25 5.5H15.1562C14.6875 5.5 14.2812 5.75 14.0312 6.15625L12.9375 8H13H15.25ZM11 8H11.0312L9.9375 6.15625C9.71875 5.75 9.28125 5.5 8.8125 5.5H8.75C8.03125 5.5 7.5 6.0625 7.5 6.75C7.5 7.46875 8.03125 8 8.75 8L11 8Z" fill="#131B4A"/>
</svg>
