<svg width="176" height="160" viewBox="0 0 176 160" fill="none" xmlns="http://www.w3.org/2000/svg">
<g filter="url(#filter0_d_1152_1403)">
<path fill-rule="evenodd" clip-rule="evenodd" d="M10.6139 8.85048C8 12.2286 8 17.1461 8 26.981V51C8 62.7851 8 68.6777 11.6612 72.3388C15.3223 76 21.2149 76 33 76H63C65.6089 76 67.929 76 70 75.9603C70.0214 66.0507 78.0507 58.0214 87.9603 58C88 55.929 88 53.6089 88 51V39C88 27.2149 88 21.3223 84.3388 17.6612C80.6777 14 74.7851 14 63 14H57.5711C55.7094 14 54.7786 14 53.8888 13.8713C51.8237 13.5727 49.8662 12.7619 48.1948 11.5128C47.4746 10.9746 46.8164 10.3164 45.5 9C44.1836 7.68362 43.5254 7.02542 42.8052 6.48721C41.1338 5.23811 39.1763 4.42728 37.1112 4.12867C36.2214 4 35.2906 4 33.4289 4H30.981C21.1461 4 16.2286 4 12.8505 6.61391C12.0133 7.26172 11.2617 8.01326 10.6139 8.85048Z" fill="url(#paint0_linear_1152_1403)"/>
</g>
<g filter="url(#filter1_d_1152_1403)">
<path fill-rule="evenodd" clip-rule="evenodd" d="M88.0397 94C88 96.071 88 98.3911 88 101V123C88 134.785 88 140.678 91.6612 144.339C95.3223 148 101.215 148 113 148H143C154.785 148 160.678 148 164.339 144.339C168 140.678 168 134.785 168 123V101C168 89.2149 168 83.3223 164.339 79.6612C160.678 76 154.785 76 143 76H113C110.391 76 108.071 76 106 76.0397C105.979 85.9493 97.9493 93.9786 88.0397 94ZM108 90C108 88.8954 108.895 88 110 88H146C147.105 88 148 88.8954 148 90C148 91.1046 147.105 92 146 92H110C108.895 92 108 91.1046 108 90Z" fill="url(#paint1_linear_1152_1403)"/>
</g>
<mask id="path-3-inside-1_1152_1403" fill="white">
<path d="M83.4064 72.1063C84.9407 70.5475 87.497 70.5475 89.0564 72.1063C90.5407 73.5906 90.597 75.9657 89.2501 77.55L89.0845 77.7407C88.9032 77.95 88.5876 77.9719 88.3782 77.7906C88.172 77.6125 88.147 77.2969 88.3282 77.0875L88.497 76.8938C89.5251 75.7063 89.4626 73.925 88.3501 72.8156C87.1814 71.6438 85.2845 71.6438 84.1157 72.8156L80.222 76.7063C79.0504 77.8781 79.0504 79.7781 80.222 80.95C81.3939 82.1219 83.2939 82.1219 84.4657 80.95L85.172 80.2438C85.3657 80.0469 85.6845 80.0469 85.8782 80.2438C86.0751 80.4375 86.0751 80.7531 85.8782 80.95L85.172 81.6563C83.6095 83.2188 81.077 83.2188 79.5148 81.6563C77.9527 80.0938 77.9527 77.5344 79.5148 76L83.4064 72.1063ZM92.5657 79.8938C91.0314 81.4531 88.5032 81.4531 86.9439 79.8938C85.4595 78.4094 85.3751 76.0344 86.722 74.45L86.9157 74.2594C87.097 74.05 87.4126 74.0281 87.622 74.2094C87.8282 74.3875 87.8532 74.7031 87.672 74.9125L87.5032 75.1063C86.4751 76.2938 86.5376 78.075 87.6501 79.1844C88.8189 80.3563 90.7157 80.3563 91.8845 79.1844L95.7782 75.2938C96.9501 74.1219 96.9501 72.2219 95.7782 71.0503C94.6064 69.8788 92.7064 69.8788 91.5345 71.0503L90.8282 71.7563C90.6345 71.9531 90.3157 71.9531 90.122 71.7563C89.9251 71.5344 89.9251 71.2469 90.122 71.0503L90.8282 70.3431C92.3907 68.781 94.922 68.781 96.4845 70.3431C98.047 71.8781 98.047 74.4375 96.4845 75.9719L92.5657 79.8938Z"/>
</mask>
<path d="M83.4064 72.1063C84.9407 70.5475 87.497 70.5475 89.0564 72.1063C90.5407 73.5906 90.597 75.9657 89.2501 77.55L89.0845 77.7407C88.9032 77.95 88.5876 77.9719 88.3782 77.7906C88.172 77.6125 88.147 77.2969 88.3282 77.0875L88.497 76.8938C89.5251 75.7063 89.4626 73.925 88.3501 72.8156C87.1814 71.6438 85.2845 71.6438 84.1157 72.8156L80.222 76.7063C79.0504 77.8781 79.0504 79.7781 80.222 80.95C81.3939 82.1219 83.2939 82.1219 84.4657 80.95L85.172 80.2438C85.3657 80.0469 85.6845 80.0469 85.8782 80.2438C86.0751 80.4375 86.0751 80.7531 85.8782 80.95L85.172 81.6563C83.6095 83.2188 81.077 83.2188 79.5148 81.6563C77.9527 80.0938 77.9527 77.5344 79.5148 76L83.4064 72.1063ZM92.5657 79.8938C91.0314 81.4531 88.5032 81.4531 86.9439 79.8938C85.4595 78.4094 85.3751 76.0344 86.722 74.45L86.9157 74.2594C87.097 74.05 87.4126 74.0281 87.622 74.2094C87.8282 74.3875 87.8532 74.7031 87.672 74.9125L87.5032 75.1063C86.4751 76.2938 86.5376 78.075 87.6501 79.1844C88.8189 80.3563 90.7157 80.3563 91.8845 79.1844L95.7782 75.2938C96.9501 74.1219 96.9501 72.2219 95.7782 71.0503C94.6064 69.8788 92.7064 69.8788 91.5345 71.0503L90.8282 71.7563C90.6345 71.9531 90.3157 71.9531 90.122 71.7563C89.9251 71.5344 89.9251 71.2469 90.122 71.0503L90.8282 70.3431C92.3907 68.781 94.922 68.781 96.4845 70.3431C98.047 71.8781 98.047 74.4375 96.4845 75.9719L92.5657 79.8938Z" fill="white"/>
<path d="M83.4064 72.1063L84.1137 72.8132L84.119 72.8078L83.4064 72.1063ZM89.0564 72.1063L89.7635 71.3992L89.7633 71.399L89.0564 72.1063ZM89.2501 77.55L90.005 78.2059L90.012 78.1977L89.2501 77.55ZM89.0845 77.7407L88.3296 77.0848L88.3284 77.0861L89.0845 77.7407ZM88.3782 77.7906L89.0327 77.0346L89.0319 77.0338L88.3782 77.7906ZM88.3282 77.0875L87.5742 76.4307L87.5722 76.433L88.3282 77.0875ZM88.497 76.8938L89.2511 77.5506L89.253 77.5483L88.497 76.8938ZM88.3501 72.8156L87.6421 73.5218L87.644 73.5238L88.3501 72.8156ZM84.1157 72.8156L84.8226 73.523L84.8238 73.5218L84.1157 72.8156ZM80.222 76.7063L79.5152 75.9989L79.5148 75.9993L80.222 76.7063ZM80.222 80.95L79.5148 81.657L79.5149 81.6571L80.222 80.95ZM85.172 80.2438L85.8791 80.9509L85.8847 80.9452L85.172 80.2438ZM85.8782 80.2438L85.1655 80.9452L85.1711 80.9509L85.1768 80.9565L85.8782 80.2438ZM79.5148 81.6563L78.8076 82.3633L78.8076 82.3633L79.5148 81.6563ZM79.5148 76L80.2156 76.7135L80.2221 76.7069L79.5148 76ZM92.5657 79.8938L91.8583 79.1869L91.8529 79.1924L92.5657 79.8938ZM86.722 74.45L86.0207 73.7372L85.9889 73.7684L85.9601 73.8023L86.722 74.45ZM86.9157 74.2594L87.6171 74.9722L87.6456 74.9442L87.6718 74.9139L86.9157 74.2594ZM87.622 74.2094L86.9675 74.9655L86.9684 74.9662L87.622 74.2094ZM87.672 74.9125L88.4261 75.5693L88.4281 75.567L87.672 74.9125ZM87.5032 75.1063L86.7492 74.4495L86.7472 74.4517L87.5032 75.1063ZM87.6501 79.1844L88.3582 78.4782L88.3562 78.4763L87.6501 79.1844ZM91.8845 79.1844L91.1777 78.477L91.1764 78.4782L91.8845 79.1844ZM95.7782 75.2938L96.4851 76.0012L96.4854 76.0009L95.7782 75.2938ZM91.5345 71.0503L92.2414 71.7576L92.2415 71.7575L91.5345 71.0503ZM90.8282 71.7563L90.1213 71.049L90.1155 71.0548L90.8282 71.7563ZM90.122 71.7563L89.374 72.42L89.3911 72.4393L89.4093 72.4577L90.122 71.7563ZM90.122 71.0503L90.8285 71.758L90.8296 71.757L90.122 71.0503ZM90.8282 70.3431L90.1212 69.636L90.1207 69.6365L90.8282 70.3431ZM96.4845 70.3431L95.7774 71.0504L95.7837 71.0565L96.4845 70.3431ZM96.4845 75.9719L95.7838 75.2584L95.7771 75.2651L96.4845 75.9719ZM84.119 72.8078C85.2585 71.6502 87.1773 71.6419 88.3494 72.8135L89.7633 71.399C87.8167 69.4531 84.623 69.4448 82.6937 71.4048L84.119 72.8078ZM88.3493 72.8134C89.4545 73.9186 89.5076 75.7031 88.4882 76.9023L90.012 78.1977C91.6863 76.2282 91.627 73.2627 89.7635 71.3992L88.3493 72.8134ZM88.4952 76.8942L88.3296 77.0848L89.8394 78.3965L90.005 78.2059L88.4952 76.8942ZM88.3284 77.0861C88.5107 76.8756 88.8269 76.8564 89.0327 77.0346L87.7237 78.5467C88.3483 79.0874 89.2958 79.0244 89.8406 78.3952L88.3284 77.0861ZM89.0319 77.0338C89.2425 77.2157 89.2661 77.532 89.0843 77.742L87.5722 76.433C87.0279 77.0618 87.1015 78.0093 87.7246 78.5475L89.0319 77.0338ZM89.0823 77.7443L89.2511 77.5506L87.7429 76.237L87.5742 76.4307L89.0823 77.7443ZM89.253 77.5483C90.6237 75.9652 90.5416 73.5888 89.0562 72.1075L87.644 73.5238C88.3836 74.2613 88.4265 75.4474 87.741 76.2392L89.253 77.5483ZM89.0582 72.1095C87.4987 70.5458 84.9672 70.5458 83.4077 72.1095L84.8238 73.5218C85.6018 72.7417 86.8641 72.7417 87.6421 73.5218L89.0582 72.1095ZM83.4089 72.1083L79.5152 75.9989L80.9288 77.4137L84.8226 73.523L83.4089 72.1083ZM79.5148 75.9993C77.9528 77.5616 77.9528 80.0947 79.5148 81.657L80.9292 80.243C80.148 79.4616 80.148 78.1947 80.9292 77.4133L79.5148 75.9993ZM79.5149 81.6571C81.0773 83.2195 83.6105 83.2195 85.1729 81.6571L83.7586 80.2429C82.9773 81.0243 81.7105 81.0243 80.9291 80.2429L79.5149 81.6571ZM85.1729 81.6571L85.8791 80.9509L84.4649 79.5367L83.7586 80.2429L85.1729 81.6571ZM85.8847 80.9452C85.6867 81.1464 85.3635 81.1464 85.1655 80.9452L86.591 79.5423C86.0055 78.9474 85.0448 78.9474 84.4593 79.5423L85.8847 80.9452ZM85.1768 80.9565C84.9724 80.7554 84.9806 80.4334 85.1711 80.2429L86.5854 81.6571C87.1696 81.0729 87.1778 80.1197 86.5797 79.531L85.1768 80.9565ZM85.1711 80.2429L84.4649 80.9492L85.8791 82.3634L86.5854 81.6571L85.1711 80.2429ZM84.4649 80.9492C83.2929 82.1212 81.3936 82.1211 80.222 80.9492L78.8076 82.3633C80.7604 84.3165 83.9261 84.3164 85.8791 82.3634L84.4649 80.9492ZM80.222 80.9493C79.0468 79.7737 79.0561 77.8524 80.2156 76.7134L78.8141 75.2866C76.8494 77.2164 76.8587 80.4139 78.8076 82.3633L80.222 80.9493ZM80.2221 76.7069L84.1137 72.8132L82.6991 71.3994L78.8075 75.2931L80.2221 76.7069ZM91.8529 79.1924C90.7135 80.3504 88.823 80.3587 87.651 79.1867L86.2368 80.6009C88.1835 82.5476 91.3492 82.5559 93.2785 80.5951L91.8529 79.1924ZM87.651 79.1867C86.5366 78.0723 86.473 76.2869 87.4839 75.0977L85.9601 73.8023C84.2773 75.7819 84.3824 78.7465 86.2368 80.6009L87.651 79.1867ZM87.4233 75.1629L87.6171 74.9722L86.2144 73.5466L86.0207 73.7372L87.4233 75.1629ZM87.6718 74.9139C87.4895 75.1244 87.1733 75.1436 86.9675 74.9655L88.2765 73.4533C87.6519 72.9127 86.7044 72.9756 86.1597 73.6049L87.6718 74.9139ZM86.9684 74.9662C86.7578 74.7843 86.7341 74.468 86.9159 74.258L88.4281 75.567C88.9723 74.9383 88.8987 73.9907 88.2756 73.4526L86.9684 74.9662ZM86.9179 74.2557L86.7492 74.4495L88.2573 75.7631L88.4261 75.5693L86.9179 74.2557ZM86.7472 74.4517C85.3765 76.0349 85.4586 78.4113 86.944 79.8925L88.3562 78.4763C87.6166 77.7388 87.5737 76.5527 88.2593 75.7608L86.7472 74.4517ZM86.9421 79.8906C88.5016 81.4542 91.0331 81.4542 92.5925 79.8906L91.1764 78.4782C90.3984 79.2583 89.1362 79.2583 88.3582 78.4782L86.9421 79.8906ZM92.5913 79.8918L96.4851 76.0012L95.0714 74.5864L91.1777 78.477L92.5913 79.8918ZM96.4854 76.0009C98.0477 74.4385 98.0478 71.9053 96.4853 70.3431L95.0712 71.7575C95.8524 72.5385 95.8525 73.8053 95.0711 74.5867L96.4854 76.0009ZM96.4853 70.3431C94.9229 68.7812 92.3899 68.7812 90.8275 70.3431L92.2415 71.7575C93.0229 70.9764 94.2899 70.9764 95.0712 71.7575L96.4853 70.3431ZM90.8275 70.3431L90.1213 71.049L91.5352 72.4635L92.2414 71.7576L90.8275 70.3431ZM90.1155 71.0548C90.3135 70.8536 90.6367 70.8536 90.8347 71.0548L89.4093 72.4577C89.9948 73.0527 90.9555 73.0527 91.541 72.4577L90.1155 71.0548ZM90.87 71.0926C90.9152 71.1435 90.9743 71.2466 90.9743 71.3938C90.9743 71.5463 90.9099 71.6767 90.8285 71.758L89.4155 70.3427C88.8054 70.9518 88.8631 71.8442 89.374 72.42L90.87 71.0926ZM90.8296 71.757L91.5358 71.0498L90.1207 69.6365L89.4144 70.3437L90.8296 71.757ZM91.5353 71.0503C92.7073 69.8786 94.6055 69.8786 95.7775 71.0503L97.1915 69.636C95.2385 67.6834 92.0742 67.6834 90.1212 69.636L91.5353 71.0503ZM95.7837 71.0565C96.9473 72.1997 96.9471 74.116 95.7838 75.2584L97.1852 76.6854C99.1469 74.759 99.1466 71.5566 97.1853 69.6298L95.7837 71.0565ZM95.7771 75.2651L91.8584 79.187L93.2731 80.6006L97.1919 76.6787L95.7771 75.2651Z" fill="#131B4A" mask="url(#path-3-inside-1_1152_1403)"/>
<defs>
<filter id="filter0_d_1152_1403" x="0" y="0" width="96" height="88" filterUnits="userSpaceOnUse" color-interpolation-filters="sRGB">
<feFlood flood-opacity="0" result="BackgroundImageFix"/>
<feColorMatrix in="SourceAlpha" type="matrix" values="0 0 0 0 0 0 0 0 0 0 0 0 0 0 0 0 0 0 127 0" result="hardAlpha"/>
<feOffset dy="4"/>
<feGaussianBlur stdDeviation="4"/>
<feComposite in2="hardAlpha" operator="out"/>
<feColorMatrix type="matrix" values="0 0 0 0 0.0745098 0 0 0 0 0.105882 0 0 0 0 0.290196 0 0 0 0.08 0"/>
<feBlend mode="normal" in2="BackgroundImageFix" result="effect1_dropShadow_1152_1403"/>
<feBlend mode="normal" in="SourceGraphic" in2="effect1_dropShadow_1152_1403" result="shape"/>
</filter>
<filter id="filter1_d_1152_1403" x="80" y="72" width="96" height="88" filterUnits="userSpaceOnUse" color-interpolation-filters="sRGB">
<feFlood flood-opacity="0" result="BackgroundImageFix"/>
<feColorMatrix in="SourceAlpha" type="matrix" values="0 0 0 0 0 0 0 0 0 0 0 0 0 0 0 0 0 0 127 0" result="hardAlpha"/>
<feOffset dy="4"/>
<feGaussianBlur stdDeviation="4"/>
<feComposite in2="hardAlpha" operator="out"/>
<feColorMatrix type="matrix" values="0 0 0 0 0.0745098 0 0 0 0 0.105882 0 0 0 0 0.290196 0 0 0 0.08 0"/>
<feBlend mode="normal" in2="BackgroundImageFix" result="effect1_dropShadow_1152_1403"/>
<feBlend mode="normal" in="SourceGraphic" in2="effect1_dropShadow_1152_1403" result="shape"/>
</filter>
<linearGradient id="paint0_linear_1152_1403" x1="8" y1="4" x2="86.724" y2="74.1591" gradientUnits="userSpaceOnUse">
<stop stop-color="#C500B9"/>
<stop offset="1" stop-color="#8D0085"/>
</linearGradient>
<linearGradient id="paint1_linear_1152_1403" x1="88" y1="76" x2="159.602" y2="155.558" gradientUnits="userSpaceOnUse">
<stop stop-color="#8D0085"/>
<stop offset="1" stop-color="#FF9400"/>
</linearGradient>
</defs>
</svg>
