<svg width="24" height="24" viewBox="0 0 24 24" fill="none" xmlns="http://www.w3.org/2000/svg">
<g clip-path="url(#clip0_1120_10995)">
<path d="M15.5 19H8C6.89531 19 6 18.1047 6 17V7.5C6 7.225 5.77625 7 5.5 7C5.22375 7 5 7.225 5 7.5V17C5 18.6569 6.34312 20 8 20H15.5C15.7761 20 16 19.7761 16 19.5C16 19.2239 15.775 19 15.5 19ZM18.4156 7.54063L15.4622 4.58719C15.0844 4.21069 14.5781 4 14.0469 4H10C8.89687 4 8 4.89531 8 6L8.00031 15C8.00031 16.1047 8.89562 17 10.0003 17H17.0003C18.1062 17 19 16.1031 19 15V8.95312C19 8.42188 18.7906 7.91563 18.4156 7.54063ZM15 5.53906L17.4625 8H15.5C15.225 8 15 7.775 15 7.5V5.53906ZM18 15C18 15.5513 17.5513 16 17 16H10C9.44875 16 9 15.5513 9 15V6C9 5.44875 9.44875 5 10 5H14V7.5C14 8.32812 14.6719 9 15.5 9H18V15Z" fill="#131B4A"/>
</g>
<defs>
<clipPath id="clip0_1120_10995">
<rect width="14" height="16" fill="white" transform="translate(5 4)"/>
</clipPath>
</defs>
</svg>
