<?xml version="1.0" encoding="UTF-8"?><svg id="Layer_1" xmlns="http://www.w3.org/2000/svg" viewBox="0 0 20 20"><path d="M17,15c0,1.66-1.34,3-3,3s-3-1.34-3-3c0-.41,.08-.79,.22-1.14l-2.98-1.87c-.55,.62-1.35,1.01-2.24,1.01-1.66,0-3-1.34-3-3s1.34-3,3-3c.89,0,1.69,.39,2.24,1.01l2.98-1.87c-.14-.35-.23-.74-.23-1.14,0-1.66,1.34-3,3-3s3,1.34,3,3-1.34,3-3,3c-.89,0-1.69-.39-2.24-1.01l-2.98,1.87c.3,.73,.3,1.56,0,2.29l2.98,1.87c.55-.62,1.35-1.01,2.24-1.01,1.66,0,3,1.34,3,3ZM8,10c0-1.1-.9-2-2-2s-2,.9-2,2,.9,2,2,2,2-.9,2-2Zm4-5c0,1.1,.9,2,2,2s2-.9,2-2-.9-2-2-2-2,.9-2,2Zm4,10c0-1.1-.9-2-2-2s-2,.9-2,2,.9,2,2,2,2-.9,2-2Z"/></svg>