<svg width="16" height="16" viewBox="0 0 16 16" fill="none" xmlns="http://www.w3.org/2000/svg">
<path d="M4 4C4 2.93913 4.42143 1.92172 5.17157 1.17157C5.92172 0.421427 6.93913 0 8 0C9.06087 0 10.0783 0.421427 10.8284 1.17157C11.5786 1.92172 12 2.93913 12 4C12 5.06087 11.5786 6.07828 10.8284 6.82843C10.0783 7.57857 9.06087 8 8 8C6.93913 8 5.92172 7.57857 5.17157 6.82843C4.42143 6.07828 4 5.06087 4 4ZM1 15.0719C1 11.9937 3.49375 9.5 6.57188 9.5H9.42813C12.5063 9.5 15 11.9937 15 15.0719C15 15.5844 14.5844 16 14.0719 16H1.92813C1.41563 16 1 15.5844 1 15.0719Z" fill="url(#paint0_linear_659_9106)"/>
<defs>
<linearGradient id="paint0_linear_659_9106" x1="1" y1="0" x2="16.8584" y2="13.8761" gradientUnits="userSpaceOnUse">
<stop stop-color="#8D0085"/>
<stop offset="1" stop-color="#FF9400"/>
</linearGradient>
</defs>
</svg>
