<svg width="19" height="20" viewBox="0 0 19 20" fill="none" xmlns="http://www.w3.org/2000/svg">
<rect y="0.5" width="19" height="19" rx="9.5" fill="white"/>
<path d="M9.5 18C6.625 18 4 16.5 2.5625 14C1.125 11.5312 1.125 8.5 2.5625 6C4 3.53125 6.625 2 9.5 2C12.3438 2 14.9688 3.53125 16.4062 6C17.8438 8.5 17.8438 11.5312 16.4062 14C14.9688 16.5 12.3438 18 9.5 18ZM13.0312 8.53125H13C13.3125 8.25 13.3125 7.78125 13 7.46875C12.7188 7.1875 12.25 7.1875 11.9688 7.46875L8.5 10.9688L7.03125 9.5C6.71875 9.1875 6.25 9.1875 5.96875 9.5C5.65625 9.78125 5.65625 10.25 5.96875 10.5312L7.96875 12.5312C8.25 12.8438 8.71875 12.8438 9.03125 12.5312L13.0312 8.53125Z" fill="#12B76A"/>
</svg>
