<svg width="40" height="40" viewBox="0 0 40 40" fill="none" xmlns="http://www.w3.org/2000/svg">
<path fill-rule="evenodd" clip-rule="evenodd" d="M1 8C0.462212 8 0.0215535 8.42726 0.0135497 8.96498C0 9.8753 0 10.8825 0 12V18C0 18.5523 0.447715 19 1 19C1.55228 19 2 19.4477 2 20C2 20.5523 1.55228 21 1 21C0.447715 21 0 21.4477 0 22V28C0 29.1175 0 30.1247 0.0135497 31.035C0.0215536 31.5727 0.462212 32 1 32C1.55228 32 2 32.4477 2 33C2 33.5523 1.55228 34 1 34C0.545857 34 0.187653 34.3926 0.256799 34.8414C0.487546 36.3393 0.925632 37.4109 1.75736 38.2426C3.51472 40 6.34315 40 12 40H28C33.6569 40 36.4853 40 38.2426 38.2426C40 36.4853 40 33.6569 40 28V12C40 6.34315 40 3.51472 38.2426 1.75736C36.4853 0 33.6569 0 28 0H12C6.34315 0 3.51472 0 1.75736 1.75736C0.925632 2.58909 0.487546 3.66073 0.256799 5.15859C0.187653 5.60744 0.545857 6 1 6C1.55228 6 2 6.44772 2 7C2 7.55228 1.55228 8 1 8Z" fill="url(#paint0_linear_1120_10492)"/>
<path opacity="0.25" d="M0 8C0 6.14006 0 5.21008 0.204445 4.44709C0.759248 2.37653 2.37653 0.759248 4.44709 0.204445C5.21008 0 6.14006 0 8 0V40C6.14006 40 5.21008 40 4.44709 39.7956C2.37653 39.2408 0.759248 37.6235 0.204445 35.5529C0 34.7899 0 33.8599 0 32V8Z" fill="white"/>
<g clip-path="url(#clip0_1120_10492)">
<path d="M24.4188 12.0906C24.2875 12.0313 24.1469 12 24 12C23.8531 12 23.7125 12.0313 23.5813 12.0906L17.6969 14.5875C17.0094 14.8781 16.4969 15.5563 16.5 16.375C16.5156 19.475 17.7906 25.1469 23.175 27.725C23.6969 27.975 24.3031 27.975 24.825 27.725C30.2094 25.1469 31.4844 19.475 31.5 16.375C31.5031 15.5563 30.9906 14.8781 30.3031 14.5875L24.4188 12.0906ZM20.5 18.9156C20.5 17.8594 21.3563 17 22.4156 17C22.9219 17 23.4094 17.2031 23.7688 17.5594L24 17.7906L24.2313 17.5594C24.5906 17.2 25.0781 17 25.5844 17C26.6406 17 27.5 17.8562 27.5 18.9156C27.5 19.4219 27.2969 19.9094 26.9406 20.2688L24.3563 22.8531C24.1625 23.0469 23.8438 23.0469 23.65 22.8531L21.0656 20.2688C20.7063 19.9094 20.5063 19.4219 20.5063 18.9156H20.5Z" fill="white"/>
</g>
<defs>
<linearGradient id="paint0_linear_1120_10492" x1="0" y1="0" x2="42.0742" y2="34.6591" gradientUnits="userSpaceOnUse">
<stop stop-color="#C500B9"/>
<stop offset="1" stop-color="#8D0085"/>
</linearGradient>
<clipPath id="clip0_1120_10492">
<rect width="16" height="16" fill="white" transform="translate(16 12)"/>
</clipPath>
</defs>
</svg>
