<svg width="24" height="24" viewBox="0 0 24 24" fill="none" xmlns="http://www.w3.org/2000/svg">
<path d="M7 5L17 5C18.0938 5 19 5.90625 19 7V17C19 18.125 18.0938 19 17 19H7C5.875 19 5 18.125 5 17L5 7C5 5.90625 5.875 5 7 5ZM12 8C11.5625 8 11.25 8.34375 11.25 8.75V12.25C11.25 12.6875 11.5625 13 12 13C12.4063 13 12.75 12.6875 12.75 12.25L12.75 8.75C12.75 8.34375 12.4062 8 12 8ZM11 15C11 15.5625 11.4375 16 12 16C12.5313 16 13 15.5625 13 15C13 14.4687 12.5313 14 12 14C11.4375 14 11 14.4687 11 15Z" fill="#F04438"/>
</svg>
