<svg width="16" height="16" viewBox="0 0 16 16" fill="none" xmlns="http://www.w3.org/2000/svg">
<path d="M5.5 3.52185H12.1187L10.1797 5.13527C9.96778 5.31171 9.93897 5.6266 10.1157 5.8381C10.2156 5.95509 10.3562 6.01748 10.5 6.01748C10.6128 6.01748 10.7261 5.97945 10.8197 5.90146L13.8197 3.40583C13.9344 3.31284 14 3.16934 14 2.99464C14 2.81995 13.9341 2.70615 13.8203 2.61156L10.8203 0.115934C10.6079 -0.0615049 10.2925 -0.0312766 10.1156 0.179292C9.93888 0.390828 9.96769 0.70587 10.1796 0.882124L12.1187 2.52359H5.5C2.46719 2.52359 0 4.95995 0 7.98591C0 8.2885 0.223625 8.51311 0.5 8.51311C0.776375 8.51311 1.00031 8.2885 1.00031 8.01398C1.00031 5.53707 3.01844 3.52185 5.5 3.52185ZM15.5 7.51485C15.2236 7.51485 14.9997 7.73809 14.9997 8.01398C14.9997 10.4912 12.9813 12.5061 10.5278 12.5061H3.88125L5.82031 10.8927C6.03222 10.7162 6.06103 10.4014 5.88428 10.1899C5.70937 9.97929 5.39375 9.95121 5.18125 10.1259L2.18125 12.6215C2.06594 12.7182 2 12.8555 2 12.9772C2 13.0988 2.06591 13.2657 2.17969 13.3602L5.17969 15.8559C5.275 15.9626 5.3875 16 5.47188 16C5.61544 16 5.75753 15.9386 5.85656 15.8206C6.03331 15.6091 6.0045 15.294 5.79259 15.1178L3.88125 13.5044H10.5C13.5328 13.5044 16 11.0409 16 8.01398C16 7.73946 15.775 7.51485 15.5 7.51485Z" fill="#131B4A"/>
</svg>
