<svg width="24" height="24" viewBox="0 0 24 24" fill="none" xmlns="http://www.w3.org/2000/svg">
<path d="M12 5.5C9.65625 5.5 7.53125 6.75 6.34375 8.75C5.1875 10.7812 5.1875 13.25 6.34375 15.25C7.53125 17.2812 9.65625 18.5 12 18.5C14.3125 18.5 16.4375 17.2812 17.625 15.25C18.7812 13.25 18.7812 10.7812 17.625 8.75C16.4375 6.75 14.3125 5.5 12 5.5ZM12 20C9.125 20 6.5 18.5 5.0625 16C3.625 13.5312 3.625 10.5 5.0625 8C6.5 5.53125 9.125 4 12 4C14.8438 4 17.4688 5.53125 18.9062 8C20.3438 10.5 20.3438 13.5312 18.9062 16C17.4688 18.5 14.8438 20 12 20ZM11.25 14.75V12.75L9.25 12.75C8.8125 12.75 8.5 12.4375 8.5 12C8.5 11.5938 8.8125 11.25 9.25 11.25H11.25V9.25C11.25 8.84375 11.5625 8.5 12 8.5C12.4062 8.5 12.75 8.84375 12.75 9.25L12.75 11.25H14.75C15.1563 11.25 15.5 11.5937 15.5 12C15.5 12.4375 15.1563 12.75 14.75 12.75H12.75V14.75C12.75 15.1875 12.4063 15.5 12 15.5C11.5625 15.5 11.25 15.1875 11.25 14.75Z" fill="#131B4A"/>
</svg>
