<svg width="24" height="24" viewBox="0 0 24 24" fill="none" xmlns="http://www.w3.org/2000/svg">
<path d="M10.5844 13.5H7.41563C4.42406 13.5 2 15.925 2 18.9156C2 19.5156 2.485 20 3.08312 20H14.9156C15.5156 20 16 19.5156 16 18.9156C16 15.925 13.575 13.5 10.5844 13.5ZM14.9156 19H3.08312C3.0375 19 3 18.9625 3 18.9156C3 16.4812 4.98125 14.5 7.41563 14.5H10.5844C13.0188 14.5 15 16.4812 15 18.9156C15 18.9625 14.9625 19 14.9156 19ZM9 12C11.2094 12 13 10.2091 13 8C13 5.79094 11.2094 4 9 4C6.79063 4 5 5.79094 5 8C5 10.2091 6.79063 12 9 12ZM9 5C10.6544 5 12 6.34562 12 8C12 9.65406 10.6544 11 9 11C7.34562 11 6 9.65312 6 8C6 6.34562 7.34688 5 9 5ZM13.7219 11.5312C14.2781 11.8375 14.8844 12 15.5 12C17.4312 12 19 10.4313 19 8.5C19 6.56875 17.4312 5 15.5 5C15.0991 5 14.7066 5.06737 14.3331 5.19972C14.0729 5.292 13.9366 5.57753 14.0289 5.83784C14.1212 6.09859 14.4077 6.23347 14.6671 6.14203C14.9344 6.04781 15.2125 6 15.5 6C16.8781 6 18 7.12156 18 8.5C18 9.87844 16.8781 11 15.5 11C15.06 11 14.6278 10.8843 14.2506 10.6659C14.0114 10.5268 13.7056 10.6088 13.5675 10.8481C13.4281 11.0875 13.5094 11.3938 13.7219 11.5312ZM17.3344 14H16C15.7236 14 15.5 14.2236 15.5 14.5C15.5 14.7764 15.725 15 16 15H17.3334C19.3563 15 21 16.6437 21 18.6656C21 18.85 20.85 19 20.6656 19H17.5C17.2236 19 17 19.2236 17 19.5C17 19.7764 17.2236 20 17.5 20H20.6656C21.4031 20 22 19.4031 22 18.6656C22 16.0656 19.9062 14 17.3344 14Z" fill="white"/>
</svg>
