<svg width="20" height="16" viewBox="0 0 20 16" fill="none" xmlns="http://www.w3.org/2000/svg">
<path d="M8.58438 9.5H5.41563C2.42406 9.5 0 11.925 0 14.9156C0 15.5156 0.485 16 1.08312 16H12.9156C13.5156 16 14 15.5156 14 14.9156C14 11.925 11.575 9.5 8.58438 9.5ZM12.9156 15H1.08312C1.0375 15 1 14.9625 1 14.9156C1 12.4812 2.98125 10.5 5.41563 10.5H8.58438C11.0188 10.5 13 12.4812 13 14.9156C13 14.9625 12.9625 15 12.9156 15ZM7 8C9.20938 8 11 6.20906 11 4C11 1.79094 9.20938 0 7 0C4.79063 0 3 1.79094 3 4C3 6.20906 4.79063 8 7 8ZM7 1C8.65438 1 10 2.34562 10 4C10 5.65406 8.65438 7 7 7C5.34562 7 4 5.65312 4 4C4 2.34562 5.34688 1 7 1ZM11.7219 7.53125C12.2781 7.8375 12.8844 8 13.5 8C15.4312 8 17 6.43125 17 4.5C17 2.56875 15.4312 1 13.5 1C13.0991 1 12.7066 1.06737 12.3331 1.19972C12.0729 1.292 11.9366 1.57753 12.0289 1.83784C12.1212 2.09859 12.4077 2.23347 12.6671 2.14203C12.9344 2.04781 13.2125 2 13.5 2C14.8781 2 16 3.12156 16 4.5C16 5.87844 14.8781 7 13.5 7C13.06 7 12.6278 6.88428 12.2506 6.66594C12.0114 6.52678 11.7056 6.60881 11.5675 6.84806C11.4281 7.0875 11.5094 7.39375 11.7219 7.53125ZM15.3344 10H14C13.7236 10 13.5 10.2236 13.5 10.5C13.5 10.7764 13.725 11 14 11H15.3334C17.3563 11 19 12.6437 19 14.6656C19 14.85 18.85 15 18.6656 15H15.5C15.2236 15 15 15.2236 15 15.5C15 15.7764 15.2236 16 15.5 16H18.6656C19.4031 16 20 15.4031 20 14.6656C20 12.0656 17.9062 10 15.3344 10Z" fill="white"/>
</svg>
