<svg width="24" height="24" viewBox="0 0 24 24" fill="none" xmlns="http://www.w3.org/2000/svg">
<path d="M6.5 4C6.775 4 7 4.22387 7 4.5V6H13V4.5C13 4.22387 13.225 4 13.5 4C13.775 4 14 4.22387 14 4.5V6H15C16.1031 6 17 6.89531 17 8V10.0219C16.8344 10.0062 16.6687 10 16.5 10C16.3313 10 16.1656 10.0062 16 10.0219V10H4V18C4 18.5531 4.44781 19 5 19H12.2563C12.5719 19.3781 12.9344 19.7156 13.3375 20H5C3.89531 20 3 19.1031 3 18V8C3 6.89531 3.89531 6 5 6H6V4.5C6 4.22387 6.225 4 6.5 4ZM15 7H5C4.44781 7 4 7.44688 4 8V9H16V8C16 7.44688 15.5531 7 15 7ZM16.4719 13C16.775 13 16.9719 13.225 16.9719 13.5V15H18C18.275 15 18.5 15.225 18.5 15.5C18.5 15.775 18.275 16 18 16H16.4719C16.225 16 15.9719 15.775 15.9719 15.5V13.5C15.9719 13.225 16.225 13 16.4719 13ZM12 15.5C12 13.0156 14.0156 11 16.5 11C18.9844 11 21 13.0156 21 15.5C21 17.9844 18.9844 20 16.5 20C14.0156 20 12 17.9844 12 15.5ZM16.5 19C18.4344 19 20 17.4344 20 15.5C20 13.5656 18.4344 12 16.5 12C14.5656 12 13 13.5656 13 15.5C13 17.4344 14.5656 19 16.5 19Z" fill="#B4B4B4"/>
</svg>
