<svg width="14" height="16" viewBox="0 0 14 16" fill="none" xmlns="http://www.w3.org/2000/svg">
<path d="M10.3812 12H3.54368C1.88243 12 0.435238 13.1369 0.0311756 14.7575C-0.125606 15.3875 0.353051 16 0.999926 16H12.9281C13.5752 16 14.0499 15.3888 13.8931 14.7575C13.4906 13.1375 12.0437 12 10.3812 12ZM0.995238 14.9719C1.28774 13.8219 2.33555 13 3.54368 13H10.3812C11.5884 13 12.6359 13.8225 12.9287 15L0.995238 14.9719ZM13.7624 2.57531C13.5293 2.43275 13.2237 2.50647 13.0796 2.73938C13.0457 2.79438 12.5293 3.58594 11.1512 4.21719C10.5718 1.38656 9.76555 0 8.69368 0C8.28524 0 7.89305 0.165031 7.51961 0.491562C7.23161 0.744 6.84461 0.744 6.55649 0.490584C6.1843 0.165031 5.78743 0 5.38118 0C4.29993 0 3.5218 1.34938 2.92899 4.21875C1.55118 3.5875 1.03274 2.79813 0.996488 2.73969C0.855644 2.50628 0.552113 2.42963 0.316176 2.57122C0.0805506 2.71344 0.00431307 3.02062 0.145644 3.25625C0.212676 3.36875 1.84211 6 7.03743 6C12.2327 6 13.8624 3.36906 13.9281 3.25719C14.0687 3.02188 13.9937 2.71813 13.7624 2.57531ZM7.03743 5C5.73618 5 4.69961 4.82288 3.86868 4.57094C4.4343 1.755 5.0843 1 5.38118 1C5.54055 1 5.69055 1.0825 5.90305 1.24469C6.55961 1.82219 7.51493 1.82219 8.17274 1.24567C8.3593 1.0825 8.53743 1 8.69993 1C8.9793 1 9.65399 1.74719 10.2102 4.56875C9.37805 4.82188 8.34055 5 7.03743 5ZM7.03743 11C9.23118 11 11.0156 9.20563 11.0156 7C11.0156 6.72363 10.7931 6.5 10.5184 6.5C10.2436 6.5 10.0218 6.725 10.0218 7C10.0218 8.65438 8.68336 10 7.03774 10C5.39211 10 4.05305 8.65312 4.05305 7C4.05305 6.72363 3.83061 6.5 3.55586 6.5C3.28118 6.5 3.05868 6.725 3.05868 7C3.05868 9.20625 4.81555 11 7.03743 11Z" fill="#131B4A"/>
</svg>
