<svg width="24" height="24" viewBox="0 0 24 24" fill="none" xmlns="http://www.w3.org/2000/svg">
<path d="M10 6C10 6.71875 9.59375 7.375 9 7.75C8.375 8.09375 7.59375 8.09375 7 7.75C6.375 7.375 6 6.71875 6 6C6 5.3125 6.375 4.65625 7 4.28125C7.59375 3.9375 8.375 3.9375 9 4.28125C9.59375 4.65625 10 5.3125 10 6ZM7.28125 10.5C6.78125 10.5 6.34375 10.9062 6.28125 11.4375L6.15625 12.9688C6.125 13.25 6.375 13.5 6.65625 13.5H6.75H8.625C8.53125 13.8438 8.5 14.1562 8.5 14.5V15H7.5L7.5 19.25C7.5 19.6875 7.15625 20 6.75 20C6.3125 20 6 19.6875 6 19.25L6 14.9062C5.15625 14.5938 4.59375 13.7812 4.65625 12.8438L4.78125 11.3125C4.90625 10 6 9 7.28125 9H8.6875C8.96875 9 9.25 9.0625 9.5 9.15625C9.5 9.28125 9.5 9.40625 9.5 9.5C9.5 9.875 9.5625 10.2188 9.6875 10.5H8.6875H8H7.28125ZM14.5 9.5C14.5 9.4375 14.4688 9.375 14.4688 9.28125C14.7812 9.125 15.125 9 15.5 9H16.4688C17.375 9 18.1562 9.59375 18.4062 10.4687L19.625 14.75C19.8125 15.375 19.3125 16 18.6562 16H18V19.25C18 19.6875 17.6562 20 17.25 20C16.8125 20 16.5 19.6875 16.5 19.25V16H15.3125C15.4375 15.6875 15.5 15.375 15.5 15V14.5H18L16.9688 10.875C16.9062 10.6562 16.6875 10.5 16.4688 10.5H16H15.5H14.2813C14.4063 10.2187 14.5 9.875 14.5 9.5ZM18 6C18 6.71875 17.5938 7.375 17 7.75C16.375 8.09375 15.5938 8.09375 15 7.75C14.375 7.375 14 6.71875 14 6C14 5.3125 14.375 4.65625 15 4.28125C15.5938 3.9375 16.375 3.9375 17 4.28125C17.5938 4.65625 18 5.3125 18 6ZM12 11C11.4375 11 10.9688 10.7188 10.6875 10.25C10.4062 9.8125 10.4062 9.21875 10.6875 8.75C10.9688 8.3125 11.4375 8 12 8C12.5312 8 13 8.3125 13.2812 8.75C13.5625 9.21875 13.5625 9.8125 13.2813 10.25C13 10.7187 12.5313 11 12 11ZM13 14.5C13 13.9687 12.5313 13.5 12 13.5C11.4375 13.5 11 13.9687 11 14.5V15C11 15.2812 11.2188 15.5 11.5 15.5H12H12.5C12.75 15.5 13 15.2812 13 15V14.5ZM14.5 15C14.5 15.75 14.0625 16.4062 13.4688 16.75C13.4688 16.8438 13.5 16.9375 13.5 17V19C13.5 19.5625 13.0313 20 12.5 20H11.5C10.9375 20 10.5 19.5625 10.5 19L10.5 17C10.5 16.9375 10.5 16.8438 10.5 16.75C9.90625 16.4062 9.5 15.75 9.5 15V14.5C9.5 13.125 10.5938 12 12 12C13.375 12 14.5 13.125 14.5 14.5V15Z" fill="#131B4A"/>
</svg>
