<svg width="48" height="48" viewBox="0 0 48 48" fill="none" xmlns="http://www.w3.org/2000/svg">
<path d="M28.125 28.875C28.3125 29.0625 28.625 29.0625 28.8438 28.875C29.0312 28.6562 29.0312 28.3438 28.8438 28.1562L24.6875 24L28.8438 19.875C29.0312 19.6875 29.0312 19.375 28.8438 19.1562C28.625 18.9688 28.3125 18.9688 28.125 19.1562L24 23.3125L19.8438 19.1562C19.6562 18.9688 19.3438 18.9688 19.125 19.1562C18.9375 19.375 18.9375 19.6875 19.125 19.875L23.2812 24L19.125 28.1562C18.9375 28.3438 18.9375 28.6562 19.125 28.875C19.3438 29.0625 19.6562 29.0625 19.8438 28.875L24 24.7188L28.125 28.875Z" fill="white"/>
</svg>
