<svg width="24" height="24" viewBox="0 0 24 24" fill="none" xmlns="http://www.w3.org/2000/svg">
<path d="M12 5.5C10.5938 5.5 9.5 6.625 9.5 8V10L14.5 10L14.5 8C14.5 6.625 13.375 5.5 12 5.5ZM8 8C8 5.8125 9.78125 4 12 4C14.1875 4 16 5.8125 16 8V10H17C18.0938 10 19 10.9062 19 12V18C19 19.125 18.0938 20 17 20H7C5.875 20 5 19.125 5 18V12C5 10.9062 5.875 10 7 10H8V8ZM7 11.5C6.71875 11.5 6.5 11.75 6.5 12V18C6.5 18.2812 6.71875 18.5 7 18.5H17C17.25 18.5 17.5 18.2812 17.5 18V12C17.5 11.75 17.25 11.5 17 11.5L7 11.5ZM12.75 14V16C12.75 16.4375 12.4063 16.75 12 16.75C11.5625 16.75 11.25 16.4375 11.25 16V14C11.25 13.5937 11.5625 13.25 12 13.25C12.4063 13.25 12.75 13.5937 12.75 14Z" fill="#131B4A"/>
</svg>
